<svg version="1" xmlns="http://www.w3.org/2000/svg" width="346.667" height="346.667" viewBox="0 0 260.000000 260.000000"><path d="M69.7 19.2c-5.5 8.6-65.9 105-67.9 108.4L0 130.7l8.7 5.3c4.9 3 11.7 7.2 15.3 9.5 3.6 2.3 27 16.9 52 32.5 25 15.5 54.9 34.2 66.5 41.4 11.5 7.2 21.8 13.5 22.7 14.1 1 .5 6.3 3.8 11.7 7.2 7.3 4.5 10.2 5.8 10.9 5 2-2.5 71.1-113.5 71.4-114.6.2-.7-1.5-2.3-3.7-3.5-2.2-1.3-15.6-9.6-29.7-18.5-14.2-8.8-26.2-16.1-26.7-16.1-.4 0-.8 15.8-.9 35.2 0 19.4 0 36.5-.1 38l-.1 2.8h-68c-37.4 0-68-.3-68.1-.8-.1-1-.1-72.2 0-74.4.1-1.5 4.6-1.7 59.4-1.7 32.5 0 63.2 0 68.1-.1h9l-27-16.8c-14.8-9.2-33.6-20.9-41.9-26-8.2-5.2-23.5-14.7-34-21.3C85.1 21.3 75.7 15.5 74.8 15c-1.4-.9-2.3-.1-5.1 4.2z"/></svg>