<?xml version="1.0" standalone="no"?>
<!DOCTYPE svg PUBLIC "-//W3C//DTD SVG 1.1//EN" "http://www.w3.org/Graphics/SVG/1.1/DTD/svg11.dtd" >
<svg xmlns="http://www.w3.org/2000/svg">
<metadata>
Created by FontPrep 20130207 at Tue Feb 16 10:49:25 2016
 By marco barria
Copyright (c) 2012 by 205 Corp. All rights reserved.
</metadata>
<defs>
<font id="88df8bbdce2565298957d42b5070cfa8" horiz-adv-x='1024' >
  <font-face 
    font-family="Maax"
    font-weight="400"
    font-stretch="normal"
    units-per-em="2048"
    panose-1="2 0 5 6 0 0 0 2 0 3"
    ascent="1536"
    descent="-512"
    x-height="1004"
    cap-height="1436"
    bbox="-55 -449 3645 1810"
    underline-thickness="102"
    underline-position="-102"
    unicode-range="U+0020-FB02"
  />
<missing-glyph horiz-adv-x="3784" 
d="M3146 -156q146 0 244 88t98 236t-91 232t-233 83q-92 0 -171 -46t-114 -109h-143l35 792h766v-147h-623l-24 -451q100 109 293 109t327 -124t135 -330q0 -206 -139 -343t-371 -137q-276 0 -446 231l111 109q131 -193 346 -193zM2257 561q0 184 -123 310t-295 126
t-287 -124q-114 -124 -114 -312t114 -313t287 -125q172 0 295 127t123 311zM2413 561q0 -250 -167 -417t-405 -167q-237 0 -399 166t-162 417t162 418t400 167t404 -167q167 -167 167 -417zM999 147v-147h-860v47q0 207 92 319t320 191l72 27q119 41 172 92t53 134t-67 135
t-183 52q-233 0 -340 -237l-106 106q59 129 173 204q113 75 279 75t284 -92q118 -93 118 -239t-80 -226t-219 -133l-113 -41q-154 -55 -218 -111t-71 -156h694z" />
    <glyph glyph-name="arrowwest" unicode="&#x3c;&#x2d;" horiz-adv-x="1646" 
d="M1552 666v-146h-1177l461 -450l-103 -117l-639 641l639 639l103 -105l-465 -462h1181z" />
    <glyph glyph-name="arrownorth" unicode="&#x2d;^" horiz-adv-x="1466" 
d="M811 0h-156v1176l-458 -459l-103 102l639 639l639 -639l-102 -102l-459 459v-1176z" />
    <glyph glyph-name="arroweast" unicode="&#x2d;&#x3e;" horiz-adv-x="1646" 
d="M94 520v146h1182l-465 462l102 105l639 -639l-639 -641l-102 117l461 450h-1178z" />
    <glyph glyph-name="arrowwest2" unicode="&#x3c;&#x2d;&#x2d;" horiz-adv-x="2252" 
d="M2159 666v-146h-1786l463 -450l-103 -117l-639 641l639 639l103 -105l-465 -462h1788z" />
    <glyph glyph-name="arrowwest3" unicode="&#x3c;&#x2d;&#x2d;&#x2d;" horiz-adv-x="2836" 
d="M2742 666v-146h-2369l463 -450l-103 -117l-639 641l639 639l103 -105l-465 -462h2371z" />
    <glyph glyph-name="arroweast2" unicode="&#x2d;&#x2d;&#x3e;" horiz-adv-x="2252" 
d="M94 520v146h1788l-465 462l103 105l639 -639l-639 -641l-103 117l463 450h-1786z" />
    <glyph glyph-name="arroweast3" unicode="&#x2d;&#x2d;&#x2d;&#x3e;" horiz-adv-x="2836" 
d="M94 520v146h2372l-465 462l102 105l639 -639l-639 -641l-102 117l463 450h-2370z" />
    <glyph glyph-name=".notdef" horiz-adv-x="3784" 
d="M3146 -156q146 0 244 88t98 236t-91 232t-233 83q-92 0 -171 -46t-114 -109h-143l35 792h766v-147h-623l-24 -451q100 109 293 109t327 -124t135 -330q0 -206 -139 -343t-371 -137q-276 0 -446 231l111 109q131 -193 346 -193zM2257 561q0 184 -123 310t-295 126
t-287 -124q-114 -124 -114 -312t114 -313t287 -125q172 0 295 127t123 311zM2413 561q0 -250 -167 -417t-405 -167q-237 0 -399 166t-162 417t162 418t400 167t404 -167q167 -167 167 -417zM999 147v-147h-860v47q0 207 92 319t320 191l72 27q119 41 172 92t53 134t-67 135
t-183 52q-233 0 -340 -237l-106 106q59 129 173 204q113 75 279 75t284 -92q118 -93 118 -239t-80 -226t-219 -133l-113 -41q-154 -55 -218 -111t-71 -156h694z" />
    <glyph glyph-name=".null" horiz-adv-x="0" 
 />
    <glyph glyph-name="nonmarkingreturn" horiz-adv-x="681" 
 />
    <glyph glyph-name="space" unicode=" " horiz-adv-x="630" 
 />
    <glyph glyph-name="exclam" unicode="!" horiz-adv-x="595" 
d="M186 87q0 46 32 79t79 33t79 -33t32 -79t-32 -78t-78 -32t-79 32t-33 78zM215 432v1004h156v-1004h-156z" />
    <glyph glyph-name="quotedbl" unicode="&#x22;" horiz-adv-x="878" 
d="M555 1436h147v-502h-147v502zM174 1436h148v-502h-148v502z" />
    <glyph glyph-name="numbersign" unicode="#" horiz-adv-x="1605" 
d="M680 874l-90 -313h350l90 313h-350zM174 561h275l88 313h-254v142h295l120 420h142l-121 -420h350l119 420h145l-121 -420h234v-142h-275l-88 -313h254v-141h-293l-116 -420h-146l119 420h-350l-119 -420h-143l119 420h-234v141z" />
    <glyph glyph-name="dollar" unicode="$" horiz-adv-x="1331" 
d="M319 1067q0 -195 279 -248v490q-123 -12 -201 -79t-78 -163zM743 637v-514q135 10 220 78q84 68 84 178q-1 205 -302 258h-2zM598 -233v215q-150 14 -272 84t-197 174l107 110q133 -186 362 -221v533l-29 6q-177 31 -291 129t-114 265t126 271t308 121v215h145v-215
q236 -27 410 -215l-104 -115q-127 150 -306 181v-510l23 -4q208 -33 322 -137t114 -269t-125 -277t-334 -126v-215h-145z" />
    <glyph glyph-name="percent" unicode="%" horiz-adv-x="1423" 
d="M190 0l877 1436h164l-875 -1436h-166zM918 238q0 -59 38 -97q40 -37 90 -37t88 37t38 97t-38 97q-38 38 -88 38t-89 -38t-39 -97zM782 239q0 111 77 187t187 76t186 -77t75 -185q0 -108 -76 -186q-75 -78 -185 -77q-110 0 -187 76t-77 186zM252 1196q0 -59 39 -96t89 -37
t88 37t38 97t-38 97t-88 37t-89 -38t-39 -97zM117 1196q0 110 77 186q76 76 186 76t186 -77t75 -185q0 -108 -76 -186q-75 -76 -185 -76t-186 76t-77 186z" />
    <glyph glyph-name="ampersand" unicode="&#x26;" horiz-adv-x="1370" 
d="M416 1147q0 -82 102 -211l39 -49l78 43q166 86 166 211q-1 78 -55 128t-142 50t-138 -45t-50 -127zM551 117q172 0 301 143l-342 442l-31 -16q-123 -63 -178 -133t-55 -171t82 -183t223 -82zM549 -23q-121 0 -213 40q-92 39 -142 103q-100 127 -100 267q0 258 252 391
l74 39q-90 113 -123 181t-33 155q0 135 93 220t252 85t251 -91t92 -228q0 -190 -209 -310l-96 -55l303 -391q98 152 146 340h157q-59 -254 -206 -461l200 -262h-192l-115 145q-162 -168 -391 -168z" />
    <glyph glyph-name="quotesingle" unicode="'" horiz-adv-x="497" 
d="M174 1436h148v-502h-148v502z" />
    <glyph glyph-name="parenleft" unicode="(" horiz-adv-x="737" 
d="M322 531q0 -247 89 -453t279 -397l-108 -101q-418 406 -418 950t418 955l108 -101q-190 -194 -279 -400t-89 -453z" />
    <glyph glyph-name="parenright" unicode=")" horiz-adv-x="737" 
d="M416 533q0 247 -89 453t-280 398l109 101q418 -406 418 -951t-418 -954l-109 101q190 195 280 400q89 205 89 452z" />
    <glyph glyph-name="asterisk" unicode="*" horiz-adv-x="937" 
d="M203 991l164 205l-250 55l39 144l247 -80l-8 260h150l-10 -260l247 80l39 -144l-250 -55l164 -205l-119 -88l-147 217l-147 -217z" />
    <glyph glyph-name="plus" unicode="+" horiz-adv-x="1290" 
d="M143 573h426v431h146v-431h432v-139h-432v-434h-146v434h-426v139z" />
    <glyph glyph-name="comma" unicode="," horiz-adv-x="548" 
d="M186 -256h-163l194 489h191z" />
    <glyph glyph-name="hyphen" unicode="-" horiz-adv-x="1028" 
d="M164 467v139h700v-139h-700z" />
    <glyph glyph-name="period" unicode="." horiz-adv-x="618" 
d="M186 98q0 51 35 87t87 36t88 -35t36 -87t-36 -87t-88 -35t-87 35t-35 86z" />
    <glyph glyph-name="slash" unicode="/" horiz-adv-x="1087" 
d="M219 0l604 1436h162l-604 -1436h-162z" />
    <glyph glyph-name="zero" unicode="0" horiz-adv-x="1265" 
d="M117 719q0 297 122 509q60 106 161 168q100 62 232 62t233 -62q184 -113 253 -403q31 -129 31 -274t-31 -275q-70 -291 -253 -404q-101 -62 -232 -62t-233 62q-181 111 -253 404q-30 130 -30 275zM991 719q0 270 -93 432t-265 162t-266 -163q-95 -163 -95 -431t94 -432
t267 -164q172 0 265 163t93 433z" />
    <glyph glyph-name="one" unicode="1" horiz-adv-x="1079" 
d="M139 147h365v1055q-129 -102 -365 -102v139q125 6 234 53t155 144h134v-1289h346v-147h-869v147z" />
    <glyph glyph-name="two" unicode="2" horiz-adv-x="1181" 
d="M1034 147v-147h-917v47q0 221 99 372t357 279l39 19q131 67 201 139t70 194t-86 192t-216 71q-131 0 -219 -77t-139 -198l-106 109q63 143 180 227t295 84t314 -110q134 -110 134 -316q0 -146 -85 -250t-259 -194l-114 -58q-287 -147 -299 -383h751z" />
    <glyph glyph-name="three" unicode="3" horiz-adv-x="1165" 
d="M1024 399q0 -203 -136 -313t-337 -109q-131 -1 -260 55t-209 152l106 107q147 -168 373 -168q131 0 219 70q88 71 88 203t-99 196t-253 63h-108v150h86q154 0 246 71q92 70 94 194q0 124 -88 183t-193 60q-197 0 -332 -156l-104 107q178 195 428 194q178 0 311 -101
t133 -286q0 -117 -66 -205q-67 -87 -137 -116q100 -42 169 -132t69 -219z" />
    <glyph glyph-name="four" unicode="4" horiz-adv-x="1193" 
d="M745 510v686l-497 -686h497zM1100 362h-199v-362h-156v362h-663v136l674 938h145v-926h199v-148z" />
    <glyph glyph-name="five" unicode="5" horiz-adv-x="1130" 
d="M915 448q0 148 -92 232t-233 84q-90 0 -170 -46t-115 -112h-141l35 830h766v-148h-625l-23 -485q41 47 120 78t173 30q190 0 326 -123t135 -330q0 -208 -138 -344t-370 -137q-264 0 -446 220l110 108q143 -182 344 -182q145 0 245 89q99 88 99 236z" />
    <glyph glyph-name="six" unicode="6" horiz-adv-x="1261" 
d="M987 450q0 156 -92 244t-220 88t-219 -90t-91 -233t92 -239t220 -97q128 0 219 86t91 241zM674 -23q-240 0 -381 206t-141 542t144 535q144 198 391 198t396 -184l-106 -113q-109 152 -288 152t-290 -168t-100 -432q57 106 161 161t214 56q190 0 330 -131t141 -346
t-143 -345t-328 -131z" />
    <glyph glyph-name="seven" unicode="7" horiz-adv-x="1095" 
d="M94 997v439h930v-136q-446 -535 -506 -1218l-6 -82h-158l8 80q31 350 153 670t319 538h-594v-291h-146z" />
    <glyph glyph-name="eight" unicode="8" horiz-adv-x="1134" 
d="M567 1278q-102 0 -186 -64t-84 -180q0 -118 76 -182q75 -64 193 -64t195 65t77 181t-84 180t-187 64zM872 382q0 120 -87 190t-219 69q-132 0 -218 -70q-86 -69 -86 -189t88 -190t217 -69q129 0 217 70q88 69 88 189zM567 -23q-195 0 -329 111t-134 291q0 127 83 223
t167 119q-76 33 -146 113t-69 198q0 178 128 284t300 107q172 0 300 -106t128 -285q1 -118 -69 -198t-146 -113q84 -23 167 -119t83 -223q0 -180 -134 -291t-329 -111z" />
    <glyph glyph-name="nine" unicode="9" horiz-adv-x="1224" 
d="M272 988q0 -154 96 -244t223 -91q128 0 217 90q89 91 89 231t-92 239t-223 99q-130 0 -220 -84q-90 -86 -90 -240zM586 1458q234 0 378 -206t144 -544t-137 -535q-137 -196 -391 -196t-402 185l107 114q107 -154 293 -154t290 166q104 165 95 435q-57 -109 -161 -163
t-216 -54q-188 0 -329 131q-140 131 -140 346t142 345q143 130 327 130z" />
    <glyph glyph-name="colon" unicode=":" horiz-adv-x="595" 
d="M164 893q0 51 35 87t87 36t88 -35t36 -87t-36 -87t-88 -35t-87 35t-35 86zM164 98q0 51 35 87t87 36t88 -35t36 -87t-36 -87t-88 -35t-87 35t-35 86z" />
    <glyph glyph-name="semicolon" unicode=";" horiz-adv-x="636" 
d="M240 -256h-164l194 489h191zM229 893q0 51 35 87t87 36t88 -35t36 -87t-36 -87t-88 -35t-87 35t-35 86z" />
    <glyph glyph-name="less" unicode="&#x3c;" horiz-adv-x="1239" 
d="M94 418v168l1006 442v-160l-860 -366l860 -367v-158z" />
    <glyph glyph-name="equal" unicode="=" horiz-adv-x="1331" 
d="M164 281v139h1003v-139h-1003zM164 653v142h1003v-142h-1003z" />
    <glyph glyph-name="greater" unicode="&#x3e;" horiz-adv-x="1239" 
d="M1145 586v-168l-1006 -441v158l860 367l-860 366v160z" />
    <glyph glyph-name="question" unicode="?" horiz-adv-x="1118" 
d="M369 98q0 51 34 87q35 36 87 36t88 -35t36 -87t-36 -87t-88 -35t-87 35q-34 35 -34 86zM569 432h-157v330l51 2q174 8 266 90t92 198t-81 188t-203 73q-233 0 -363 -223l-104 114q80 117 200 186t267 68q190 0 316 -110t126 -279q0 -170 -109 -289t-301 -149v-199z" />
    <glyph glyph-name="at" unicode="@" horiz-adv-x="2203" 
d="M584 502q0 221 131 374q131 152 335 152t339 -158v134h151v-740q0 -147 106 -147t169 132t63 292q0 336 -201 557t-561 221t-584 -229q-224 -230 -225 -572q1 -342 233 -570t607 -229q207 0 393 74v-143q-178 -70 -393 -70q-434 0 -710 270q-275 270 -275 668
q0 258 118 472t336 341q219 127 500 127t492 -127t315 -333q105 -206 105 -454t-116 -408q-116 -159 -280 -159q-84 1 -139 49t-78 126q-66 -84 -162 -129t-202 -46q-205 0 -336 152t-131 373zM739 502q0 -166 89 -276t238 -110t239 110t90 276t-90 274t-240 109
q-150 -1 -238 -109t-88 -274z" />
    <glyph glyph-name="A" unicode="A" 
d="M705 1235l-289 -756h581zM795 1436l559 -1436h-168l-131 330h-701l-127 -330h-170l561 1436h177z" />
    <glyph glyph-name="B" unicode="B" horiz-adv-x="1349" 
d="M719 1288h-400v-483h402q135 0 221 62q86 61 86 183t-86 180t-223 58zM319 147h426q143 0 231 67q87 67 87 193t-87 188t-222 62h-435v-510zM164 0v1436h526q228 0 362 -96t134 -285q0 -94 -50 -179t-137 -128q101 -48 161 -140t61 -200q1 -188 -135 -298t-359 -110h-563
z" />
    <glyph glyph-name="C" unicode="C" horiz-adv-x="1433" 
d="M815 -23q-309 -1 -515 215t-206 524t204 525t507 217q338 0 536 -246l-104 -110q-164 211 -432 211q-239 0 -397 -172t-158 -424t161 -423t404 -171q283 0 449 215l100 -115q-100 -115 -244 -181t-305 -65z" />
    <glyph glyph-name="D" unicode="D" horiz-adv-x="1423" 
d="M571 1288h-252v-1141h254q241 0 412 129q86 66 135 182t49 268q0 419 -373 531q-104 31 -225 31zM164 0v1436h389q313 0 532 -150q115 -78 181 -221t66 -319q-1 -333 -163 -510q-213 -236 -616 -236h-389z" />
    <glyph glyph-name="E" unicode="E" horiz-adv-x="1257" 
d="M164 0v1436h940v-148h-785v-483h762v-148h-762v-510h785v-147h-940z" />
    <glyph glyph-name="F" unicode="F" horiz-adv-x="1138" 
d="M319 0h-155v1436h893v-148h-738v-483h693v-148h-693v-657z" />
    <glyph glyph-name="G" unicode="G" horiz-adv-x="1490" 
d="M815 567v148h549v-492q-100 -115 -244 -181t-305 -65q-309 -1 -515 215t-206 524t204 525t507 217q338 0 536 -246l-104 -110q-164 211 -432 211q-239 0 -397 -172t-158 -424t161 -423t403 -171t398 156v288h-397z" />
    <glyph glyph-name="H" unicode="H" horiz-adv-x="1419" 
d="M1100 0v657h-781v-657h-155v1436h155v-631h781v631h155v-1436h-155z" />
    <glyph glyph-name="I" unicode="I" horiz-adv-x="483" 
d="M164 0v1436h155v-1436h-155z" />
    <glyph glyph-name="J" unicode="J" horiz-adv-x="989" 
d="M418 123q137 0 207 85t69 238v990h156v-990q0 -215 -113 -342t-323 -127q-127 0 -226 63q-98 63 -153 161l110 110q96 -188 273 -188z" />
    <glyph glyph-name="K" unicode="K" horiz-adv-x="1230" 
d="M119 0v1436h157v-830l670 830h182l-495 -619l528 -817h-188l-449 686l-248 -307v-379h-157z" />
    <glyph glyph-name="L" unicode="L" horiz-adv-x="1099" 
d="M164 0v1436h155v-1289h699v-147h-854z" />
    <glyph glyph-name="M" unicode="M" horiz-adv-x="1634" 
d="M319 0h-155v1436h151l502 -940l502 940h151v-1436h-155v1090l-420 -773h-156l-420 773v-1090z" />
    <glyph glyph-name="N" unicode="N" horiz-adv-x="1458" 
d="M319 0h-155v1436h160l815 -1168v1168h157v-1436h-161l-816 1163v-1163z" />
    <glyph glyph-name="O" unicode="O" horiz-adv-x="1619" 
d="M814 1313q-248 0 -406 -171t-158 -425t158 -424t406 -170t404 170t156 424t-156 425q-157 171 -404 171zM94 717q0 309 205 525t509 216t512 -216t208 -525t-207 -524t-513 -215t-510 214q-204 216 -204 525z" />
    <glyph glyph-name="P" unicode="P" horiz-adv-x="1247" 
d="M686 1288h-367v-614h367q160 0 253 78t93 227t-93 229t-253 80zM664 528h-345v-528h-155v1436h500q240 0 382 -124t142 -331t-141 -330t-383 -123z" />
    <glyph glyph-name="Q" unicode="Q" horiz-adv-x="1667" 
d="M814 1313q-248 0 -406 -171t-158 -425t158 -424t407 -170q199 0 344 117l-174 174l105 104l170 -172q115 160 114 373q0 252 -156 423q-157 171 -404 171zM807 -23q-305 -1 -509 215t-204 525t205 525t509 216t512 -216t208 -523q0 -270 -164 -477l186 -185l-104 -104
l-184 184q-197 -160 -455 -160z" />
    <glyph glyph-name="R" unicode="R" horiz-adv-x="1329" 
d="M686 1288h-367v-614h367q160 0 253 78t93 227t-93 229t-253 80zM319 528v-528h-155v1436h500q240 0 382 -124t142 -331q0 -166 -92 -280t-256 -154l383 -547h-187l-374 528h-343z" />
    <glyph glyph-name="S" unicode="S" horiz-adv-x="1306" 
d="M307 1067q0 -203 305 -252l142 -24q208 -33 322 -137t114 -275q0 -172 -143 -287t-381 -115q-176 0 -320 73t-229 190l106 110q166 -227 461 -227q152 -1 251 67t99 189q0 205 -301 258l-176 31q-176 31 -291 129q-114 98 -114 272t147 282t348 107q293 0 494 -219
l-105 -115q-156 188 -401 189q-141 0 -235 -69t-93 -177z" />
    <glyph glyph-name="T" unicode="T" horiz-adv-x="1200" 
d="M70 1436h1060v-148h-458v-1288h-156v1288h-446v148z" />
    <glyph glyph-name="U" unicode="U" horiz-adv-x="1368" 
d="M1071 563v873h158v-873q1 -258 -145 -422t-400 -164t-399 164t-146 422v873h158v-875q0 -190 101 -314q102 -124 286 -124t286 125q101 125 101 315z" />
    <glyph glyph-name="V" unicode="V" horiz-adv-x="1267" 
d="M637 188l436 1248h164l-514 -1436h-176l-516 1436h164z" />
    <glyph glyph-name="W" unicode="W" horiz-adv-x="1816" 
d="M1313 236l311 1200h172l-397 -1436h-174l-316 1180l-315 -1180h-176l-398 1436h173l315 -1200l307 1200h186z" />
    <glyph glyph-name="X" unicode="X" horiz-adv-x="1333" 
d="M666 862l378 574h193l-469 -701l496 -735h-193l-405 610l-406 -610h-192l495 735l-469 701h193z" />
    <glyph glyph-name="Y" unicode="Y" horiz-adv-x="1183" 
d="M670 0h-156v580l-467 856h172l375 -703l371 703h172l-467 -856v-580z" />
    <glyph glyph-name="Z" unicode="Z" horiz-adv-x="1271" 
d="M133 1436h1012v-140l-823 -1149h817v-147h-1010v139l821 1149h-817v148z" />
    <glyph glyph-name="bracketleft" unicode="[" horiz-adv-x="739" 
d="M186 -397v1833h484v-148h-326v-1538h326v-147h-484z" />
    <glyph glyph-name="backslash" unicode="\" horiz-adv-x="1087" 
d="M246 1436l604 -1436h-162l-604 1436h162z" />
    <glyph glyph-name="bracketright" unicode="]" horiz-adv-x="739" 
d="M553 1436v-1833h-483v147h325v1538h-325v148h483z" />
    <glyph glyph-name="asciicircum" unicode="^" horiz-adv-x="1271" 
d="M713 1436l442 -736h-164l-356 594l-356 -594h-162l440 736h156z" />
    <glyph glyph-name="underscore" unicode="_" horiz-adv-x="1167" 
d="M117 -397v141h934v-141h-934z" />
    <glyph glyph-name="grave" unicode="`" horiz-adv-x="1138" 
d="M338 1436h199l186 -269h-152z" />
    <glyph glyph-name="a" unicode="a" horiz-adv-x="1064" 
d="M498 457q-118 0 -174 -49t-56 -127t54 -123t144 -45q89 0 169 46t127 113v136q-147 49 -264 49zM455 -23q-143 0 -241 81q-97 81 -97 228q0 148 102 230t268 82q111 0 275 -49v102q0 113 -69 174t-170 61t-171 -47q-70 -48 -100 -118l-105 98q119 209 369 209
q182 0 290 -102t107 -291v-635h-147v104q-112 -127 -311 -127z" />
    <glyph glyph-name="b" unicode="b" horiz-adv-x="1236" 
d="M965 502q0 166 -88 274t-238 109q-150 0 -239 -109q-89 -108 -89 -274t89 -275t239 -109t238 110q88 108 88 274zM1120 502q0 -221 -131 -373t-336 -152t-342 160v-137h-147v1436h151v-566q135 158 339 158t335 -152t131 -374z" />
    <glyph glyph-name="c" unicode="c" horiz-adv-x="1116" 
d="M634 -23q-228 0 -373 153q-144 153 -144 371q0 219 148 373q149 154 369 154t367 -178l-102 -100q-113 135 -269 135t-257 -110q-101 -109 -101 -275t96 -274t266 -108q169 0 284 148l104 -96q-160 -193 -388 -193z" />
    <glyph glyph-name="d" unicode="d" horiz-adv-x="1236" 
d="M272 502q0 -166 88 -275t238 -109t240 110q90 108 90 274t-90 274t-240 109q-150 -1 -238 -109t-88 -274zM117 502q0 221 131 374q131 152 335 152t339 -158v566h151v-1436h-145v137q-139 -160 -344 -160t-336 152t-131 373z" />
    <glyph glyph-name="e" unicode="e" horiz-adv-x="1138" 
d="M577 885q-126 0 -202 -82t-96 -213h589q-10 133 -88 214t-203 81zM620 119q158 0 277 147l104 -96q-160 -193 -388 -193q-228 -1 -362 143t-134 374t124 382q124 153 332 152q153 0 259 -80q190 -144 190 -424l-2 -69h-748q10 -158 100 -247t248 -89z" />
    <glyph glyph-name="f" unicode="f" horiz-adv-x="677" 
d="M618 1296h-53q-113 0 -157 -52t-46 -165v-75h234v-140h-234v-864h-151v864h-164v140h164v75q0 185 89 271t263 86l55 -2v-138z" />
    <glyph glyph-name="g" unicode="g" horiz-adv-x="1214" 
d="M272 525q0 -159 88 -259t226 -100t227 100q90 100 90 259t-90 259t-227 100q-138 0 -226 -100t-88 -259zM899 70v104q-113 -152 -317 -152t-334 144q-130 143 -131 359q0 215 131 359q130 144 332 144t323 -154v130h148v-922q0 -230 -130 -366t-354 -136q-270 0 -415 223
l110 107q106 -190 305 -191q162 1 247 97t85 254z" />
    <glyph glyph-name="h" unicode="h" horiz-adv-x="1144" 
d="M315 1436v-553q51 65 135 105t179 40q193 0 296 -116t103 -328v-584h-154v596q0 139 -67 215q-68 76 -202 76q-134 -1 -212 -105t-78 -284v-498h-151v1436h151z" />
    <glyph glyph-name="i" unicode="i" horiz-adv-x="509" 
d="M139 1346q0 48 34 80t81 32t81 -33t34 -79t-34 -81q-34 -34 -81 -34t-81 34t-34 81zM178 0v1004h152v-1004h-152z" />
    <glyph glyph-name="j" unicode="j" horiz-adv-x="569" 
d="M215 -86v1090h152v-1115q0 -161 -72 -229t-221 -68l-105 5v137q68 -2 90 -2q92 0 124 42t32 140zM176 1345q0 45 34 79t81 34t81 -33t34 -79t-34 -81q-34 -34 -81 -34t-81 34t-34 80z" />
    <glyph glyph-name="k" unicode="k" horiz-adv-x="1095" 
d="M164 0v1436h151v-947l465 515h199l-391 -424l413 -580h-194l-328 461l-164 -178v-283h-151z" />
    <glyph glyph-name="l" unicode="l" horiz-adv-x="479" 
d="M164 0v1436h151v-1436h-151z" />
    <glyph glyph-name="m" unicode="m" horiz-adv-x="1751" 
d="M311 1004v-121q43 61 121 103t168 42q205 0 299 -166q113 166 313 166q387 0 387 -444v-584h-151v596q0 291 -234 291q-126 0 -192 -87t-66 -247v-553h-151v586q0 301 -225 301q-129 0 -197 -87t-68 -247v-553h-151v1004h147z" />
    <glyph glyph-name="n" unicode="n" horiz-adv-x="1179" 
d="M311 1004v-123q51 67 137 107t181 40q193 0 296 -116t103 -328v-584h-154v596q0 139 -67 215q-68 76 -202 76q-134 -1 -212 -105t-78 -284v-498h-151v1004h147z" />
    <glyph glyph-name="o" unicode="o" horiz-adv-x="1245" 
d="M272 502q0 -164 98 -274t252 -110q152 0 250 110t99 274q-1 164 -99 274t-250 109q-152 1 -252 -109q-98 -110 -98 -274zM117 502q0 218 144 372q143 154 359 154t362 -154t146 -372t-145 -372q-145 -153 -361 -153t-361 153q-144 153 -144 372z" />
    <glyph glyph-name="p" unicode="p" horiz-adv-x="1236" 
d="M965 502q0 166 -88 274t-238 109q-150 0 -239 -109q-89 -108 -89 -274t89 -275t239 -109t238 110q88 108 88 274zM1120 502q0 -221 -131 -373t-336 -152t-338 156v-530h-151v1401h147v-138q139 162 343 162t335 -152t131 -374z" />
    <glyph glyph-name="q" unicode="q" horiz-adv-x="1236" 
d="M272 502q0 -166 88 -275t238 -109t240 110q90 108 90 274t-90 274t-240 109q-150 -1 -238 -109t-88 -274zM117 502q0 221 131 374q131 152 335 152t345 -162v138h145v-1401h-151v530q-133 -156 -338 -156t-336 152t-131 373z" />
    <glyph glyph-name="r" unicode="r" horiz-adv-x="743" 
d="M649 872q-178 0 -256 -100t-78 -344v-428h-151v1004h147v-134q66 82 142 115t186 33q22 0 45 -2v-146q-16 2 -35 2z" />
    <glyph glyph-name="s" unicode="s" horiz-adv-x="991" 
d="M131 739q0 135 102 212t244 77q201 0 357 -162l-103 -108q-123 129 -264 129q-82 0 -133 -39t-51 -103q0 -115 149 -147l158 -37q285 -68 284 -282q0 -133 -102 -217t-252 -85q-150 1 -257 55q-108 54 -169 134l101 104q123 -154 303 -153q106 0 166 41q59 41 59 112
q0 109 -158 146l-149 35q-285 68 -285 288z" />
    <glyph glyph-name="t" unicode="t" horiz-adv-x="700" 
d="M502 -4q-147 0 -219 69t-72 230v569h-164v140h164v280h151v-280h234v-140h-234v-547q0 -98 32 -140t122 -42l80 2v-137q-41 -4 -94 -4z" />
    <glyph glyph-name="u" unicode="u" horiz-adv-x="1136" 
d="M285 414q0 -293 257 -293q133 0 207 101q73 101 72 284v498h152v-1004h-146v127q-117 -150 -317 -150q-377 0 -377 443v584h152v-590z" />
    <glyph glyph-name="v" unicode="v" horiz-adv-x="1036" 
d="M979 1004l-381 -1004h-160l-381 1004h166l295 -820l295 820h166z" />
    <glyph glyph-name="w" unicode="w" horiz-adv-x="1579" 
d="M455 166l231 838h205l231 -838l232 838h166l-299 -1004h-189l-244 829l-241 -829h-191l-299 1004h166z" />
    <glyph glyph-name="x" unicode="x" horiz-adv-x="1050" 
d="M276 1004l248 -375l250 375h182l-335 -488l360 -516h-182l-275 406l-272 -406h-182l360 516l-336 488h182z" />
    <glyph glyph-name="y" unicode="y" horiz-adv-x="1105" 
d="M487 -397h-165l151 385l-416 1016h170l330 -834l324 834h168z" />
    <glyph glyph-name="z" unicode="z" horiz-adv-x="1032" 
d="M152 1004h729v-130l-562 -735h584v-139h-774v129l555 735h-532v140z" />
    <glyph glyph-name="braceleft" unicode="{" horiz-adv-x="854" 
d="M461 1102v-1163q0 -188 178 -189h145v-147h-172q-160 0 -234 92t-75 235v516h-233v148h233v514q0 143 75 235t234 93h172v-146h-145q-178 0 -178 -188z" />
    <glyph glyph-name="bar" unicode="|" horiz-adv-x="804" 
d="M328 -397v1833h151v-1833h-151z" />
    <glyph glyph-name="braceright" unicode="}" horiz-adv-x="854" 
d="M393 -61v1163q0 188 -178 188h-145v146h172q160 0 234 -92t75 -236v-514h233v-148h-233v-516q0 -143 -75 -235t-234 -92h-172v147h145q178 1 178 189z" />
    <glyph glyph-name="asciitilde" unicode="~" horiz-adv-x="1013" 
d="M748 653h126q10 -111 -36 -179t-140 -66q-35 0 -127 30l-127 58q-74 25 -90 24q-74 0 -73 -100h-129q-10 110 36 178t142 68q57 0 125 -31l129 -55q68 -27 88 -27q76 0 76 100z" />
    <glyph glyph-name="exclamdown" unicode="&#xa1;" horiz-adv-x="595" 
d="M408 918q0 -47 -32 -80t-78 -33t-79 33t-33 80q0 46 33 78t79 32t78 -32t32 -78zM381 571v-968h-158v968h158z" />
    <glyph glyph-name="cent" unicode="&#xa2;" horiz-adv-x="1116" 
d="M272 500q0 -138 67 -238t189 -131v739q-116 -33 -186 -133t-70 -237zM680 -233h-152v219q-180 33 -296 177q-116 145 -116 337t117 338q117 145 295 180v219h152v-213q190 -18 321 -174l-102 -100q-90 111 -219 131v-760q140 18 238 145l104 -96q-137 -166 -342 -188
v-215z" />
    <glyph glyph-name="sterling" unicode="&#xa3;" horiz-adv-x="1269" 
d="M129 666v139h139q-108 506 270 630q73 24 148 23q252 0 414 -219l-109 -111q-125 184 -305 185q-133 0 -210 -82t-77 -209q0 -84 27 -217h408v-139h-379l114 -519h398v291h139v-438h-977v147h283l-115 519h-168z" />
    <glyph glyph-name="yen" unicode="&#xa5;" horiz-adv-x="1230" 
d="M1094 743v-141h-389v-164h391v-139h-391v-299h-156v299h-387v139h387v164h-387v141h332l-412 693h172l375 -645l352 645h168l-393 -693h338z" />
    <glyph glyph-name="brokenbar" unicode="&#xa6;" horiz-adv-x="804" 
d="M328 688v748h151v-748h-151zM328 -397v747h151v-747h-151z" />
    <glyph glyph-name="section" unicode="&#xa7;" horiz-adv-x="1284" 
d="M291 610q0 -88 60 -145t186 -105l344 -133q90 68 90 193q1 88 -59 150t-183 110l-332 133q-45 -33 -75 -91t-31 -112zM1128 418q0 -152 -137 -273q88 -96 88 -232t-110 -235q-111 -98 -297 -98q-315 0 -482 285l111 102q137 -244 373 -243q121 0 184 52t64 140
q0 145 -207 217l-238 82q-156 55 -249 153t-93 236q0 182 154 297q-76 95 -76 231t113 231t269 95t264 -64t173 -161l-110 -111q-52 86 -136 140t-184 53q-100 0 -167 -52t-66 -141q0 -137 180 -207l207 -79q188 -72 280 -168q92 -98 92 -250z" />
    <glyph glyph-name="dieresis" unicode="&#xa8;" horiz-adv-x="1138" 
d="M641 1341q0 45 30 76q31 31 75 31t75 -31t31 -76t-31 -75t-76 -29q-45 -1 -75 29t-29 75zM270 1341q0 45 30 76t75 31t76 -31t31 -76t-32 -75q-30 -30 -75 -29q-45 -1 -75 29t-30 75z" />
    <glyph glyph-name="copyright" unicode="&#xa9;" horiz-adv-x="1691" 
d="M870 307q-184 0 -299 118t-114 292q0 174 117 291q118 116 299 116t292 -135l-92 -90q-92 100 -208 100q-115 0 -191 -83q-76 -82 -76 -200t74 -200t198 -82t217 107l95 -84q-128 -150 -312 -150zM250 717q0 -256 171 -433q171 -178 425 -178t426 178t172 433
q0 256 -172 434t-426 178t-425 -178t-171 -434zM117 717q0 309 211 525t517 216t518 -217t212 -525t-211 -523t-518 -215t-518 214q-211 216 -211 525z" />
    <glyph glyph-name="ordfeminine" unicode="&#xaa;" horiz-adv-x="839" 
d="M403 1030q-75 0 -121 -32t-46 -84t36 -83t95 -30q121 0 202 104v92q-92 33 -166 33zM368 684q-122 0 -193 62t-71 168t82 169q142 109 383 33v51q0 172 -168 172q-131 0 -182 -118l-90 86q82 152 277 151q135 0 215 -75t79 -214v-469h-129v70q-81 -86 -203 -86z" />
    <glyph glyph-name="guillemotleft" unicode="&#xab;" horiz-adv-x="1114" 
d="M524 502l281 502h168l-285 -502l285 -502h-168zM70 502l280 502h168l-285 -502l285 -502h-168z" />
    <glyph glyph-name="logicalnot" unicode="&#xac;" horiz-adv-x="1284" 
d="M139 467v139h981v-432h-139v293h-842z" />
    <glyph glyph-name="registered" unicode="&#xae;" horiz-adv-x="1349" 
d="M690 1077h-96v-172h96q109 0 109 86t-109 86zM594 811v-158h-107v514h232q82 0 133 -50q51 -49 51 -115q0 -130 -110 -177l125 -172h-121l-111 158h-92zM246 892q0 -185 123 -312t304 -127t305 127t124 312t-124 313t-305 128t-304 -128t-123 -313zM117 892
q0 234 161 400t394 166t397 -166t164 -400t-164 -399t-397 -165t-394 165t-161 399z" />
    <glyph glyph-name="macron" unicode="&#xaf;" horiz-adv-x="1138" 
d="M330 1436h467v-140h-467v140z" />
    <glyph glyph-name="degree" unicode="&#xb0;" horiz-adv-x="839" 
d="M246 1144q0 -79 49 -130t124 -51t125 51t50 130t-50 131t-125 52t-124 -52t-49 -131zM104 1145q0 131 92 222t224 91q131 0 223 -91t92 -223t-91 -223t-223 -91q-133 0 -225 92t-92 223z" />
    <glyph glyph-name="plusminus" unicode="&#xb1;" horiz-adv-x="1331" 
d="M164 737h426v430h145v-430h432v-139h-432v-434h-145v434h-426v139zM164 -139v139h1003v-139h-1003z" />
    <glyph glyph-name="twosuperior" unicode="&#xb2;" horiz-adv-x="849" 
d="M700 752v-121h-565v24q0 131 66 231t211 181l20 10q53 31 76 45q22 14 44 44t22 71t-39 72t-103 31t-117 -36t-86 -92l-90 88q111 158 289 158q123 0 203 -60t80 -156t-46 -151q-46 -54 -151 -114l-65 -37q-139 -77 -164 -188h415z" />
    <glyph glyph-name="threesuperior" unicode="&#xb3;" horiz-adv-x="813" 
d="M672 850q0 -116 -86 -180t-209 -64q-180 0 -283 137l88 88q86 -104 199 -104q70 0 114 33t44 88q0 133 -185 133h-63v121h49q86 0 132 35t46 90t-40 84t-95 28q-106 0 -182 -92l-86 86q96 125 268 125q106 0 187 -61t81 -160q-1 -68 -35 -118t-77 -66q133 -57 133 -203z
" />
    <glyph glyph-name="acute" unicode="&#xb4;" horiz-adv-x="1138" 
d="M631 1436h198l-233 -269h-152z" />
    <glyph glyph-name="mu" unicode="&#xb5;" horiz-adv-x="1167" 
d="M315 399q0 -278 259 -278q132 0 205 101t73 284v498h152v-1004h-148v127q-113 -150 -305 -150q-150 0 -236 93v-467h-151v1401h151v-605z" />
    <glyph glyph-name="mu" unicode="&#x3bc;" horiz-adv-x="1167" 
d="M315 399q0 -278 259 -278q132 0 205 101t73 284v498h152v-1004h-148v127q-113 -150 -305 -150q-150 0 -236 93v-467h-151v1401h151v-605z" />
    <glyph glyph-name="paragraph" unicode="&#xb6;" horiz-adv-x="1402" 
d="M772 528h-188q-242 0 -384 123t-143 330t143 331t384 124h655v-1833h-156v1693h-153v-1693h-158v925z" />
    <glyph glyph-name="periodcentered" unicode="&#xb7;" horiz-adv-x="761" 
d="M252 535q0 51 35 87t87 36t88 -36q36 -34 36 -86t-36 -87t-88 -35t-87 35t-35 86z" />
    <glyph glyph-name="cedilla" unicode="&#xb8;" horiz-adv-x="1116" 
d="M571 -281h-163l129 269h151z" />
    <glyph glyph-name="onesuperior" unicode="&#xb9;" horiz-adv-x="790" 
d="M164 750h205v512q-70 -51 -205 -52v117q168 4 217 109h121v-686h196v-119h-534v119z" />
    <glyph glyph-name="ordmasculine" unicode="&#xba;" horiz-adv-x="985" 
d="M238 1067q0 -115 70 -189t185 -75q115 0 185 76q70 75 70 189t-71 190t-185 75q-114 1 -184 -75t-70 -191zM881 1066q0 -162 -114 -274q-115 -114 -275 -114t-274 114t-114 276q0 163 114 277q114 113 275 113t275 -115t113 -277z" />
    <glyph glyph-name="guillemotright" unicode="&#xbb;" horiz-adv-x="1114" 
d="M764 1004l280 -502l-280 -502h-168l285 502l-285 502h168zM307 1004l281 -502l-281 -502h-168l285 502l-285 502h168z" />
    <glyph glyph-name="onequarter" unicode="&#xbc;" horiz-adv-x="1916" 
d="M164 750h205v512q-70 -51 -205 -52v117q168 4 217 109h121v-686h196v-119h-534v119zM504 0l876 1436h164l-874 -1436h-166zM1561 285v319l-244 -319h244zM1800 166h-108v-166h-131v166h-394v106l398 523h127v-510h108v-119z" />
    <glyph glyph-name="onehalf" unicode="&#xbd;" horiz-adv-x="1994" 
d="M1868 121v-121h-565v25q0 131 65 230q66 99 211 181l20 10q53 32 76 46t44 44q22 30 22 70t-39 72q-38 31 -102 31t-117 -36t-86 -91l-90 88q111 158 288 157q123 0 203 -60q80 -61 80 -157t-46 -150t-151 -114l-65 -37q-139 -77 -164 -188h416zM164 750h205v512
q-70 -51 -205 -52v117q168 4 217 109h121v-686h196v-119h-534v119zM504 0l876 1436h164l-874 -1436h-166z" />
    <glyph glyph-name="threequarters" unicode="&#xbe;" horiz-adv-x="1777" 
d="M428 0l877 1436h163l-874 -1436h-166zM672 850q0 -116 -86 -180t-209 -64q-180 0 -283 137l88 88q86 -104 199 -104q70 0 114 33t44 88q0 133 -185 133h-63v121h49q86 0 132 35t46 90t-40 84t-95 28q-106 0 -182 -92l-86 86q96 125 268 125q106 0 187 -61t81 -160
q-1 -68 -35 -118t-77 -66q133 -57 133 -203zM1444 285v319l-244 -319h244zM1683 166h-108v-166h-131v166h-393v106l397 523h127v-510h108v-119z" />
    <glyph glyph-name="questiondown" unicode="&#xbf;" horiz-adv-x="1118" 
d="M739 905q-1 -51 -35 -87t-86 -36t-88 35q-34 35 -34 87t35 88q36 36 87 36t86 -36t35 -87zM698 571v-317l-51 -2q-176 -8 -268 -86t-92 -193t80 -181t204 -64q236 0 363 221l104 -115q-80 -118 -198 -186t-269 -68q-193 0 -317 104t-123 274q1 169 107 282t301 145v186
h159z" />
    <glyph glyph-name="Agrave" unicode="&#xc0;" 
d="M438 1786h211l187 -211h-174zM727 1235l-289 -756h582zM817 1436l559 -1436h-168l-131 330h-700l-127 -330h-170l561 1436h176z" />
    <glyph glyph-name="Aacute" unicode="&#xc1;" 
d="M758 1786h211l-221 -211h-177zM727 1235l-289 -756h582zM817 1436l559 -1436h-168l-131 330h-700l-127 -330h-170l561 1436h176z" />
    <glyph glyph-name="Acircumflex" unicode="&#xc2;" 
d="M606 1786h199l199 -211h-164l-133 127l-136 -127h-161zM727 1235l-289 -756h582zM817 1436l559 -1436h-168l-131 330h-700l-127 -330h-170l561 1436h176z" />
    <glyph glyph-name="Atilde" unicode="&#xc3;" 
d="M985 1786q0 -98 -42 -154q-41 -56 -99 -57q-58 0 -99 20l-61 25q-51 20 -78 20q-57 0 -61 -65h-117q0 99 42 155t102 56t96 -19l61 -26q61 -20 76 -21q59 0 63 66h117zM727 1235l-289 -756h582zM817 1436l559 -1436h-168l-131 330h-700l-127 -330h-170l561 1436h176z" />
    <glyph glyph-name="Adieresis" unicode="&#xc4;" 
d="M809 1679q0 45 30 76q31 31 75 31t75 -31t31 -76t-31 -75t-76 -29q-45 -1 -75 29t-29 75zM438 1679q0 45 30 76t75 31t75 -31t31 -76q0 -45 -31 -75q-32 -30 -76 -29q-44 -1 -74 29t-30 75zM727 1235l-289 -756h582zM817 1436l559 -1436h-168l-131 330h-700l-127 -330
h-170l561 1436h176z" />
    <glyph glyph-name="Aring" unicode="&#xc5;" 
d="M664 1592q0 -30 20 -49t49 -19t48 19t19 49t-18 49q-20 19 -49 19t-49 -18q-20 -20 -20 -50zM727 1235l-289 -756h582zM551 1579q0 92 52 143q52 52 128 52t129 -52t53 -131q0 -106 -96 -157l559 -1434h-168l-131 330h-700l-127 -330h-170l563 1436q-92 51 -92 143z" />
    <glyph glyph-name="AE" unicode="&#xc6;" horiz-adv-x="1828" 
d="M682 1235l-289 -756h580zM1688 1436v-148h-861l189 -483h649v-148h-592l201 -510h414v-147h-525l-131 330h-700l-129 -330h-168l561 1436h1092z" />
    <glyph glyph-name="Ccedilla" unicode="&#xc7;" horiz-adv-x="1433" 
d="M94 726q0 298 204 515t507 217q338 0 536 -246l-104 -110q-164 211 -432 211q-239 0 -397 -172t-158 -424t161 -423t404 -171q283 0 449 215l100 -115q-184 -213 -475 -241l-113 -263h-164l125 263q-281 26 -462 236t-181 508z" />
    <glyph glyph-name="Egrave" unicode="&#xc8;" horiz-adv-x="1245" 
d="M373 1786h211l186 -211h-174zM164 0v1436h940v-148h-785v-483h762v-148h-762v-510h785v-147h-940z" />
    <glyph glyph-name="Eacute" unicode="&#xc9;" horiz-adv-x="1245" 
d="M688 1786h211l-221 -211h-176zM164 0v1436h940v-148h-785v-483h762v-148h-762v-510h785v-147h-940z" />
    <glyph glyph-name="Ecircumflex" unicode="&#xca;" horiz-adv-x="1245" 
d="M545 1786h198l199 -211h-164l-133 127l-135 -127h-162zM164 0v1436h940v-148h-785v-483h762v-148h-762v-510h785v-147h-940z" />
    <glyph glyph-name="Edieresis" unicode="&#xcb;" horiz-adv-x="1245" 
d="M715 1665q0 45 29 76q30 31 75 31t76 -31t31 -76t-31 -75t-76 -30t-75 30q-29 30 -29 75zM344 1665q0 45 30 76t75 31t75 -31t31 -76q0 -45 -31 -75q-32 -30 -76 -30t-74 30t-30 75zM164 0v1436h940v-148h-785v-483h762v-148h-762v-510h785v-147h-940z" />
    <glyph glyph-name="Igrave" unicode="&#xcc;" horiz-adv-x="483" 
d="M-33 1786h211l187 -211h-175zM164 0v1436h155v-1436h-155z" />
    <glyph glyph-name="Iacute" unicode="&#xcd;" horiz-adv-x="483" 
d="M301 1786h211l-221 -211h-176zM164 0v1436h155v-1436h-155z" />
    <glyph glyph-name="Icircumflex" unicode="&#xce;" horiz-adv-x="483" 
d="M141 1786h199l199 -211h-164l-133 127l-136 -127h-161zM164 0v1436h155v-1436h-155z" />
    <glyph glyph-name="Idieresis" unicode="&#xcf;" horiz-adv-x="483" 
d="M322 1669q0 45 29 76q30 31 75 31t76 -31q30 -31 30 -76t-30 -75t-76 -30q-45 0 -75 30q-29 30 -29 75zM-49 1669q0 45 30 76q31 31 75 31t75 -31t31 -76t-31 -75t-76 -30t-75 30t-29 75zM164 0v1436h155v-1436h-155z" />
    <glyph glyph-name="Eth" unicode="&#xd0;" horiz-adv-x="1470" 
d="M618 1288h-251v-483h264v-148h-264v-510h254q240 0 411 129q86 66 135 182t49 268q1 419 -373 531q-104 31 -225 31zM211 0v657h-164v148h164v631h389q312 0 533 -150q115 -78 181 -221t64 -319q-1 -331 -161 -510q-213 -236 -617 -236h-389z" />
    <glyph glyph-name="Ntilde" unicode="&#xd1;" horiz-adv-x="1458" 
d="M1004 1786q0 -98 -42 -154t-100 -57q-58 0 -98 20l-62 25q-51 20 -77 20q-57 0 -62 -65h-117q0 99 42 155t102 56t96 -19l62 -26q61 -20 75 -21q60 0 64 66h117zM319 0h-155v1436h160l815 -1168v1168h157v-1436h-161l-816 1163v-1163z" />
    <glyph glyph-name="Ograve" unicode="&#xd2;" horiz-adv-x="1619" 
d="M510 1786h211l186 -211h-174zM814 1313q-248 0 -406 -171t-158 -425t158 -424t406 -170t404 170t156 424t-156 425q-157 171 -404 171zM94 717q0 309 205 525t509 216t512 -216t208 -525t-207 -524t-513 -215t-510 214q-204 216 -204 525z" />
    <glyph glyph-name="Oacute" unicode="&#xd3;" horiz-adv-x="1619" 
d="M868 1786h211l-221 -211h-176zM814 1313q-248 0 -406 -171t-158 -425t158 -424t406 -170t404 170t156 424t-156 425q-157 171 -404 171zM94 717q0 309 205 525t509 216t512 -216t208 -525t-207 -524t-513 -215t-510 214q-204 216 -204 525z" />
    <glyph glyph-name="Ocircumflex" unicode="&#xd4;" horiz-adv-x="1619" 
d="M709 1786h198l199 -211h-164l-133 127l-135 -127h-162zM814 1313q-248 0 -406 -171t-158 -425t158 -424t406 -170t404 170t156 424t-156 425q-157 171 -404 171zM94 717q0 309 205 525t509 216t512 -216t208 -525t-207 -524t-513 -215t-510 214q-204 216 -204 525z" />
    <glyph glyph-name="Otilde" unicode="&#xd5;" horiz-adv-x="1619" 
d="M1085 1786q0 -98 -42 -154t-99 -57q-57 0 -98 20l-62 25q-51 20 -77 20q-57 0 -62 -65h-117q0 99 42 155t102 56t96 -19l61 -26q61 -20 76 -21q60 0 64 66h116zM814 1313q-248 0 -406 -171t-158 -425t158 -424t406 -170t404 170t156 424t-156 425q-157 171 -404 171z
M94 717q0 309 205 525t509 216t512 -216t208 -525t-207 -524t-513 -215t-510 214q-204 216 -204 525z" />
    <glyph glyph-name="Odieresis" unicode="&#xd6;" horiz-adv-x="1619" 
d="M887 1669q0 45 29 76q30 31 75 31t76 -31t31 -76t-31 -75t-76 -30t-75 30q-29 30 -29 75zM516 1669q0 45 30 76t75 31t75 -31t31 -76q0 -45 -31 -75q-32 -30 -76 -30t-74 30t-30 75zM814 1313q-248 0 -406 -171t-158 -425t158 -424t406 -170t404 170t156 424t-156 425
q-157 171 -404 171zM94 717q0 309 205 525t509 216t512 -216t208 -525t-207 -524t-513 -215t-510 214q-204 216 -204 525z" />
    <glyph glyph-name="multiply" unicode="&#xd7;" horiz-adv-x="1163" 
d="M264 920l318 -318l315 316l100 -99l-315 -315l317 -320l-98 -98l-319 317l-318 -317l-100 98l319 320l-317 317z" />
    <glyph glyph-name="Oslash" unicode="&#xd8;" horiz-adv-x="1644" 
d="M827 1313q-249 0 -407 -171t-158 -428t162 -425l672 956q-123 68 -269 68zM1386 727q0 264 -178 436l-673 -964q129 -76 292 -76q246 0 403 170q156 170 156 434zM106 704q0 322 205 538t508 216q195 0 359 -96l84 121l112 -82l-84 -119q119 -104 185 -250t65 -313
q0 -311 -207 -526t-514 -216q-201 0 -368 101l-86 -123l-115 82l88 127q-232 218 -232 540z" />
    <glyph glyph-name="Ugrave" unicode="&#xd9;" horiz-adv-x="1368" 
d="M430 1786h211l186 -211h-174zM1071 563v873h158v-873q1 -258 -145 -422t-400 -164t-399 164t-146 422v873h158v-875q0 -190 101 -314q102 -124 286 -124t286 125q101 125 101 315z" />
    <glyph glyph-name="Uacute" unicode="&#xda;" horiz-adv-x="1368" 
d="M737 1786h211l-221 -211h-176zM1071 563v873h158v-873q1 -258 -145 -422t-400 -164t-399 164t-146 422v873h158v-875q0 -190 101 -314q102 -124 286 -124t286 125q101 125 101 315z" />
    <glyph glyph-name="Ucircumflex" unicode="&#xdb;" horiz-adv-x="1368" 
d="M592 1786h199l198 -211h-164l-133 127l-135 -127h-162zM1071 563v873h158v-873q1 -258 -145 -422t-400 -164t-399 164t-146 422v873h158v-875q0 -190 101 -314q102 -124 286 -124t286 125q101 125 101 315z" />
    <glyph glyph-name="Udieresis" unicode="&#xdc;" horiz-adv-x="1368" 
d="M768 1669q0 45 30 76t74 31t76 -31q31 -31 31 -76t-31 -75t-76 -30q-44 0 -74 30t-30 75zM397 1669q0 45 30 76t75 31t76 -31q30 -31 30 -76t-30 -75t-76 -30q-45 0 -75 30t-30 75zM1071 563v873h158v-873q1 -258 -145 -422t-400 -164t-399 164t-146 422v873h158v-875
q0 -190 101 -314q102 -124 286 -124t286 125q101 125 101 315z" />
    <glyph glyph-name="Yacute" unicode="&#xdd;" horiz-adv-x="1183" 
d="M666 1786h211l-222 -211h-176zM670 0h-156v580l-467 856h172l375 -703l371 703h172l-467 -856v-580z" />
    <glyph glyph-name="Thorn" unicode="&#xde;" horiz-adv-x="1247" 
d="M686 1044h-367v-614h367q160 0 253 78t93 226t-93 229t-253 81zM664 283h-345v-283h-155v1436h155v-246h345q242 0 383 -124t141 -331t-142 -329t-382 -123z" />
    <glyph glyph-name="germandbls" unicode="&#xdf;" horiz-adv-x="1318" 
d="M174 0v881q0 264 129 409t375 146q186 0 323 -117t138 -289q0 -96 -44 -176t-114 -121q97 -51 159 -140t62 -206q0 -191 -128 -289t-326 -98h-195v139h164q137 1 235 61t98 185t-92 194t-235 68h-170v139h154q121 0 199 62t79 178q0 116 -85 194t-222 76
q-170 0 -260 -105t-90 -310v-881h-154z" />
    <glyph glyph-name="agrave" unicode="&#xe0;" horiz-adv-x="1064" 
d="M283 1436h198l187 -269h-152zM498 457q-118 0 -174 -49t-56 -127t54 -123t144 -45q89 0 169 46t127 113v136q-147 49 -264 49zM455 -23q-143 0 -241 81q-97 81 -97 228q0 148 102 230t268 82q111 0 275 -49v102q0 113 -69 174t-170 61t-171 -47q-70 -48 -100 -118
l-105 98q119 209 369 209q182 0 290 -102t107 -291v-635h-147v104q-112 -127 -311 -127z" />
    <glyph glyph-name="aacute" unicode="&#xe1;" horiz-adv-x="1064" 
d="M586 1436h198l-233 -269h-152zM498 457q-118 0 -174 -49t-56 -127t54 -123t144 -45q89 0 169 46t127 113v136q-147 49 -264 49zM455 -23q-143 0 -241 81q-97 81 -97 228q0 148 102 230t268 82q111 0 275 -49v102q0 113 -69 174t-170 61t-171 -47q-70 -48 -100 -118
l-105 98q119 209 369 209q182 0 290 -102t107 -291v-635h-147v104q-112 -127 -311 -127z" />
    <glyph glyph-name="acircumflex" unicode="&#xe2;" horiz-adv-x="1064" 
d="M424 1436h199l198 -269h-151l-148 168l-145 -168h-152zM498 457q-118 0 -174 -49t-56 -127t54 -123t144 -45q89 0 169 46t127 113v136q-147 49 -264 49zM455 -23q-143 0 -241 81q-97 81 -97 228q0 148 102 230t268 82q111 0 275 -49v102q0 113 -69 174t-170 61t-171 -47
q-70 -48 -100 -118l-105 98q119 209 369 209q182 0 290 -102t107 -291v-635h-147v104q-112 -127 -311 -127z" />
    <glyph glyph-name="atilde" unicode="&#xe3;" horiz-adv-x="1064" 
d="M805 1436q0 -98 -42 -154q-41 -56 -99 -57q-58 0 -99 20l-61 25q-51 20 -78 20q-57 0 -61 -65h-117q0 98 42 154q42 57 101 57t96 -19l62 -26q61 -20 76 -21q59 0 63 66h117zM498 457q-118 0 -174 -49t-56 -127t54 -123t144 -45q89 0 169 46t127 113v136q-147 49 -264 49
zM455 -23q-143 0 -241 81q-97 81 -97 228q0 148 102 230t268 82q111 0 275 -49v102q0 113 -69 174t-170 61t-171 -47q-70 -48 -100 -118l-105 98q119 209 369 209q182 0 290 -102t107 -291v-635h-147v104q-112 -127 -311 -127z" />
    <glyph glyph-name="adieresis" unicode="&#xe4;" horiz-adv-x="1064" 
d="M608 1341q0 45 30 76t75 31t75 -31t31 -76q0 -45 -31 -75q-32 -30 -76 -29q-44 -1 -74 29t-30 75zM238 1341q0 45 29 76q30 31 75 31t76 -31t31 -76t-31 -75t-76 -29q-44 -1 -74 29t-30 75zM498 457q-118 0 -174 -49t-56 -127t54 -123t144 -45q89 0 169 46t127 113v136
q-147 49 -264 49zM455 -23q-143 0 -241 81q-97 81 -97 228q0 148 102 230t268 82q111 0 275 -49v102q0 113 -69 174t-170 61t-171 -47q-70 -48 -100 -118l-105 98q119 209 369 209q182 0 290 -102t107 -291v-635h-147v104q-112 -127 -311 -127z" />
    <glyph glyph-name="aring" unicode="&#xe5;" horiz-adv-x="1064" 
d="M471 1300q0 -27 17 -43t43 -16t42 16t17 43q0 27 -16 42q-16 16 -43 16q-26 0 -43 -16t-17 -42zM373 1304q0 66 45 110q46 44 112 44t112 -44t46 -112t-46 -112t-112 -45q-66 0 -112 46q-45 47 -45 113zM498 457q-118 0 -174 -49t-56 -127t54 -123t144 -45q89 0 169 46
t127 113v136q-147 49 -264 49zM455 -23q-143 0 -241 81q-97 81 -97 228q0 148 102 230t268 82q111 0 275 -49v102q0 113 -69 174t-170 61t-171 -47q-70 -48 -100 -118l-105 98q119 209 369 209q182 0 290 -102t107 -291v-635h-147v104q-112 -127 -311 -127z" />
    <glyph glyph-name="ae" unicode="&#xe6;" horiz-adv-x="1783" 
d="M1221 885q-125 0 -202 -82t-97 -213h591q-11 133 -89 214t-203 81zM532 455q-124 0 -194 -48t-70 -126t54 -123t148 -45t188 55t133 131q-27 74 -27 156h-232zM117 289q0 143 119 225t301 82h227v55q0 109 -67 172t-179 64q-190 0 -266 -166l-105 98q119 209 369 209
t348 -184q131 184 355 184q154 0 259 -80q189 -144 189 -424l-2 -69h-747q10 -158 99 -247t249 -89t274 147l107 -96q-164 -192 -414 -192t-377 188q-139 -188 -412 -189q-139 0 -233 84t-94 228z" />
    <glyph glyph-name="ccedilla" unicode="&#xe7;" horiz-adv-x="1116" 
d="M634 1028q220 0 367 -178l-102 -100q-113 135 -269 135t-257 -110q-101 -109 -101 -275t96 -274t266 -108q169 0 284 148l104 -96q-137 -166 -338 -188l-113 -263h-163l127 267q-182 29 -301 175q-118 146 -118 352q0 207 149 361t369 154z" />
    <glyph glyph-name="egrave" unicode="&#xe8;" horiz-adv-x="1138" 
d="M338 1436h199l186 -269h-152zM577 885q-126 0 -202 -82t-96 -213h589q-10 133 -88 214t-203 81zM620 119q158 0 277 147l104 -96q-160 -193 -388 -193q-228 -1 -362 143t-134 374t124 382q124 153 332 152q153 0 259 -80q190 -144 190 -424l-2 -69h-748q10 -158 100 -247
t248 -89z" />
    <glyph glyph-name="eacute" unicode="&#xe9;" horiz-adv-x="1138" 
d="M631 1436h198l-233 -269h-152zM577 885q-126 0 -202 -82t-96 -213h589q-10 133 -88 214t-203 81zM620 119q158 0 277 147l104 -96q-160 -193 -388 -193q-228 -1 -362 143t-134 374t124 382q124 153 332 152q153 0 259 -80q190 -144 190 -424q0 -35 -2 -69h-748
q10 -158 100 -247t248 -89z" />
    <glyph glyph-name="ecircumflex" unicode="&#xea;" horiz-adv-x="1138" 
d="M481 1436h199l199 -269h-152l-147 168l-146 -168h-151zM577 885q-126 0 -202 -82t-96 -213h589q-10 133 -88 214t-203 81zM620 119q158 0 277 147l104 -96q-160 -193 -388 -193q-228 -1 -362 143t-134 374t124 382q124 153 332 152q153 0 259 -80q190 -144 190 -424
q0 -35 -2 -69h-748q10 -158 100 -247t248 -89z" />
    <glyph glyph-name="edieresis" unicode="&#xeb;" horiz-adv-x="1138" 
d="M653 1341q0 45 30 76t75 31t76 -31q30 -31 30 -76t-30 -75t-76 -29q-45 -1 -75 29t-30 75zM283 1341q0 45 29 76q30 31 75 31t76 -31t31 -76t-31 -75t-76 -29q-45 -1 -75 29t-29 75zM577 885q-126 0 -202 -82t-96 -213h589q-10 133 -88 214t-203 81zM620 119
q158 0 277 147l104 -96q-160 -193 -388 -193q-228 -1 -362 143t-134 374t124 382q124 153 332 152q153 0 259 -80q190 -144 190 -424q0 -35 -2 -69h-748q10 -158 100 -247t248 -89z" />
    <glyph glyph-name="igrave" unicode="&#xec;" horiz-adv-x="509" 
d="M-12 1436h198l187 -269h-152zM178 0v1004h152v-1004h-152z" />
    <glyph glyph-name="iacute" unicode="&#xed;" horiz-adv-x="509" 
d="M317 1436h199l-233 -269h-152zM178 0v1004h152v-1004h-152z" />
    <glyph glyph-name="icircumflex" unicode="&#xee;" horiz-adv-x="509" 
d="M154 1436h198l199 -269h-152l-147 168l-146 -168h-151zM178 0v1004h152v-1004h-152z" />
    <glyph glyph-name="idieresis" unicode="&#xef;" horiz-adv-x="509" 
d="M334 1341q0 45 30 76t74 31t76 -31q31 -31 31 -76t-31 -75t-76 -29q-44 -1 -74 29t-30 75zM-37 1341q0 45 30 76t75 31q46 0 76 -31t30 -76t-31 -75t-75 -29q-44 -1 -75 29q-30 30 -30 75zM178 0v1004h152v-1004h-152z" />
    <glyph glyph-name="eth" unicode="&#xf0;" horiz-adv-x="1214" 
d="M977 453q0 147 -98 238q-97 91 -241 91t-242 -91t-99 -238q0 -147 98 -239q99 -92 241 -91q142 0 242 91q99 92 99 239zM1135 458q1 -204 -139 -342t-354 -138t-358 128q-144 130 -144 346t144 347t343 131q96 0 176 -35l-197 276l-225 -122v139l154 84l-117 164h180
l64 -95l212 117v-139l-141 -78l230 -330q172 -249 172 -453z" />
    <glyph glyph-name="ntilde" unicode="&#xf1;" horiz-adv-x="1179" 
d="M862 1436q0 -98 -42 -154t-99 -57q-57 0 -98 20l-62 25q-51 20 -78 20q-57 0 -61 -65h-117q0 98 42 154q41 57 101 57t97 -19l61 -26q61 -20 76 -21q59 0 63 66h117zM311 1004v-123q51 67 137 107t181 40q193 0 296 -116t103 -328v-584h-154v596q0 139 -67 215
q-68 76 -202 76q-134 -1 -212 -105t-78 -284v-498h-151v1004h147z" />
    <glyph glyph-name="ograve" unicode="&#xf2;" horiz-adv-x="1245" 
d="M371 1436h198l187 -269h-152zM272 502q0 -164 98 -274t252 -110q152 0 250 110t99 274q-1 164 -99 274t-250 109q-152 1 -252 -109q-98 -110 -98 -274zM117 502q0 218 144 372q143 154 359 154t362 -154t146 -372t-145 -372q-145 -153 -361 -153t-361 153
q-144 153 -144 372z" />
    <glyph glyph-name="oacute" unicode="&#xf3;" horiz-adv-x="1245" 
d="M651 1436h199l-234 -269h-151zM272 502q0 -164 98 -274t252 -110q152 0 250 110t99 274q-1 164 -99 274t-250 109q-152 1 -252 -109q-98 -110 -98 -274zM117 502q0 218 144 372q143 154 359 154t362 -154t146 -372t-145 -372q-145 -153 -361 -153t-361 153
q-144 153 -144 372z" />
    <glyph glyph-name="ocircumflex" unicode="&#xf4;" horiz-adv-x="1245" 
d="M520 1436h199l199 -269h-152l-148 168l-145 -168h-151zM272 502q0 -164 98 -274t252 -110q152 0 250 110t99 274q-1 164 -99 274t-250 109q-152 1 -252 -109q-98 -110 -98 -274zM117 502q0 218 144 372q143 154 359 154t362 -154t146 -372t-145 -372q-145 -153 -361 -153
t-361 153q-144 153 -144 372z" />
    <glyph glyph-name="otilde" unicode="&#xf5;" horiz-adv-x="1245" 
d="M889 1436q0 -98 -42 -154q-41 -56 -99 -57q-58 0 -99 20l-61 25q-51 20 -78 20q-57 0 -61 -65h-117q0 98 42 154q42 57 101 57t96 -19l62 -26q61 -20 76 -21q59 0 63 66h117zM272 502q0 -164 98 -274t252 -110q152 0 250 110t99 274q-1 164 -99 274t-250 109
q-152 1 -252 -109q-98 -110 -98 -274zM117 502q0 218 144 372q143 154 359 154t362 -154t146 -372t-145 -372q-145 -153 -361 -153t-361 153q-144 153 -144 372z" />
    <glyph glyph-name="odieresis" unicode="&#xf6;" horiz-adv-x="1245" 
d="M698 1341q0 45 30 76t75 31t76 -31t31 -76t-32 -75q-30 -30 -75 -29q-45 -1 -75 29t-30 75zM328 1341q0 45 29 76q30 31 75 31t76 -31t31 -76t-31 -75t-76 -29q-44 -1 -74 29t-30 75zM272 502q0 -164 98 -274t252 -110q152 0 250 110t99 274q-1 164 -99 274t-250 109
q-152 1 -252 -109q-98 -110 -98 -274zM117 502q0 218 144 372q143 154 359 154t362 -154t146 -372t-145 -372q-145 -153 -361 -153t-361 153q-144 153 -144 372z" />
    <glyph glyph-name="divide" unicode="&#xf7;" horiz-adv-x="1331" 
d="M547 903q0 51 35 87t87 36t88 -35t36 -87t-36 -87t-88 -35t-87 35t-35 86zM547 98q0 51 35 87t87 36t88 -35t36 -87t-36 -87t-88 -35t-87 35t-35 86zM164 440v140h1003v-140h-1003z" />
    <glyph glyph-name="oslash" unicode="&#xf8;" horiz-adv-x="1267" 
d="M633 885q-152 1 -250 -109t-98 -269t82 -259l421 600q-72 37 -155 37zM633 119q154 -1 252 109t98 269t-86 263l-424 -604q72 -37 160 -37zM129 499q0 221 144 375t360 154q127 0 237 -61l60 84l114 -82l-59 -86q156 -156 156 -378q1 -222 -145 -375t-363 -153
q-129 0 -242 62l-59 -86l-115 82l62 88q-150 154 -150 376z" />
    <glyph glyph-name="ugrave" unicode="&#xf9;" horiz-adv-x="1120" 
d="M274 1436h199l186 -269h-151zM268 414q0 -293 258 -293q133 0 206 101t73 284v498h151v-1004h-145v127q-117 -150 -317 -150q-377 0 -377 443v584h151v-590z" />
    <glyph glyph-name="uacute" unicode="&#xfa;" horiz-adv-x="1120" 
d="M586 1436h198l-233 -269h-152zM268 414q0 -293 258 -293q133 0 206 101t73 284v498h151v-1004h-145v127q-117 -150 -317 -150q-377 0 -377 443v584h151v-590z" />
    <glyph glyph-name="ucircumflex" unicode="&#xfb;" horiz-adv-x="1120" 
d="M436 1436h199l199 -269h-152l-147 168l-146 -168h-151zM268 414q0 -293 258 -293q133 0 206 101t73 284v498h151v-1004h-145v127q-117 -150 -317 -150q-377 0 -377 443v584h151v-590z" />
    <glyph glyph-name="udieresis" unicode="&#xfc;" horiz-adv-x="1120" 
d="M621 1341q0 45 29 76q30 31 75 31t76 -31t31 -76t-32 -75q-30 -30 -75 -29q-45 -1 -75 29t-29 75zM250 1341q0 45 30 76t74 31t76 -31q31 -31 31 -76t-31 -75t-76 -29q-44 -1 -74 29t-30 75zM268 414q0 -293 258 -293q133 0 206 101t73 284v498h151v-1004h-145v127
q-117 -150 -317 -150q-377 0 -377 443v584h151v-590z" />
    <glyph glyph-name="yacute" unicode="&#xfd;" horiz-adv-x="1105" 
d="M643 1436h199l-234 -269h-151zM322 -397l151 385l-416 1016h170l330 -834l324 834h168l-562 -1401h-165z" />
    <glyph glyph-name="thorn" unicode="&#xfe;" horiz-adv-x="1236" 
d="M965 502q0 166 -88 274t-238 109q-150 0 -239 -109q-89 -108 -89 -274t89 -275t239 -109t238 110q88 108 88 274zM1120 502q0 -221 -131 -373t-336 -152t-338 156v-530h-151v1833h151v-570q139 162 341 162t333 -152t131 -374z" />
    <glyph glyph-name="ydieresis" unicode="&#xff;" horiz-adv-x="1105" 
d="M639 1341q0 45 30 76q31 31 75 31t75 -31t31 -76t-31 -75t-76 -29q-45 -1 -75 29t-29 75zM268 1341q0 45 30 76t75 31t76 -31t31 -76t-32 -75q-30 -30 -75 -29q-45 -1 -75 29t-30 75zM322 -397l151 385l-416 1016h170l330 -834l324 834h168l-562 -1401h-165z" />
    <glyph glyph-name="dotlessi" unicode="&#x131;" horiz-adv-x="509" 
d="M178 0v1004h152v-1004h-152z" />
    <glyph glyph-name="Lslash" unicode="&#x141;" horiz-adv-x="1181" 
d="M246 1436h155v-598l209 61l39 -141l-248 -74v-537h699v-147h-854v639l-160 -45l-39 139l199 58v645z" />
    <glyph glyph-name="lslash" unicode="&#x142;" horiz-adv-x="718" 
d="M279 1436h151v-594l191 57l41 -141l-232 -68v-690h-151v645l-181 -51l-41 139l222 66v637z" />
    <glyph glyph-name="OE" unicode="&#x152;" horiz-adv-x="1871" 
d="M862 1288q-260 0 -430 -154t-170 -418q0 -263 164 -416t436 -153h45v1141h-45zM862 0q-330 0 -544 198t-214 520q0 320 214 519t544 199h871v-148h-668v-483h643v-148h-643v-510h668v-147h-871z" />
    <glyph glyph-name="oe" unicode="&#x153;" horiz-adv-x="1994" 
d="M1431 885q-126 0 -202 -82t-96 -213h589q-8 133 -86 214t-205 81zM272 502q0 -164 98 -274t251 -110t251 110q98 108 98 275t-98 275q-100 108 -252 107q-152 1 -250 -109t-98 -274zM1476 119q160 0 275 147l104 -96q-160 -193 -391 -193q-297 0 -424 240
q-68 -113 -178 -176t-241 -64q-215 0 -360 153q-144 153 -144 372q0 218 144 372t360 154q133 0 243 -64t176 -180q123 244 390 244q118 0 206 -45q157 -80 216 -282q26 -85 26 -177l-4 -69h-746q10 -156 100 -246q88 -90 248 -90z" />
    <glyph glyph-name="Scaron" unicode="&#x160;" horiz-adv-x="1306" 
d="M754 1575h-199l-197 211h162l135 -127l133 127h164zM307 1067q0 -203 305 -252l142 -24q208 -33 322 -137t114 -275q0 -172 -143 -287t-381 -115q-176 0 -320 73t-229 190l106 110q166 -227 461 -227q152 -1 251 67t99 189q0 205 -301 258l-176 31q-176 31 -291 129
q-114 98 -114 272t147 282t348 107q293 0 494 -219l-105 -115q-156 188 -401 189q-141 0 -235 -69t-93 -177z" />
    <glyph glyph-name="scaron" unicode="&#x161;" horiz-adv-x="991" 
d="M582 1167h-199l-199 269h152l145 -168l148 168h151zM131 739q0 135 102 212t244 77q201 0 357 -162l-103 -108q-123 129 -264 129q-82 0 -133 -39t-51 -103q0 -115 149 -147l158 -37q285 -68 284 -282q0 -133 -102 -217t-252 -85q-150 1 -257 55q-108 54 -169 134
l101 104q123 -154 303 -153q106 0 166 41q59 41 59 112q0 109 -158 146l-149 35q-285 68 -285 288z" />
    <glyph glyph-name="Ydieresis" unicode="&#x178;" horiz-adv-x="1183" 
d="M686 1669q0 45 30 76t75 31t75 -31t31 -76q0 -45 -31 -75q-32 -30 -76 -30t-74 30t-30 75zM315 1669q0 45 30 76t75 31t76 -31q30 -31 30 -76t-30 -75t-76 -30q-45 0 -75 30t-30 75zM670 0h-156v580l-467 856h172l375 -703l371 703h172l-467 -856v-580z" />
    <glyph glyph-name="Zcaron" unicode="&#x17d;" horiz-adv-x="1271" 
d="M729 1575h-199l-196 211h162l135 -127l133 127h164zM133 1436h1012v-140l-823 -1149h817v-147h-1010v139l821 1149h-817v148z" />
    <glyph glyph-name="zcaron" unicode="&#x17e;" horiz-adv-x="1032" 
d="M606 1167h-198l-199 269h151l146 -168l147 168h150zM152 1004h729v-130l-562 -735h584v-139h-774v129l555 735h-532v140z" />
    <glyph glyph-name="florin" unicode="&#x192;" horiz-adv-x="747" 
d="M256 -43v907h-186v140h186v75q0 185 89 271t265 86l78 -2v-140q-53 2 -76 2q-112 0 -158 -52t-46 -165v-75h258v-140h-258v-907q0 -186 -90 -271t-263 -85l-78 2v141q53 -4 76 -4q113 0 158 52t45 165z" />
    <glyph glyph-name="circumflex" unicode="&#x2c6;" horiz-adv-x="1138" 
d="M471 1436h199l198 -269h-151l-148 168l-145 -168h-152z" />
    <glyph glyph-name="caron" unicode="&#x2c7;" horiz-adv-x="991" 
d="M580 1167h-199l-199 269h152l145 -168l148 168h151z" />
    <glyph glyph-name="breve" unicode="&#x2d8;" horiz-adv-x="1138" 
d="M573 1145q-125 0 -199 81t-85 210h135q8 -72 47 -112t102 -40q133 0 150 152h137q-10 -129 -86 -210t-201 -81z" />
    <glyph glyph-name="dotaccent" unicode="&#x2d9;" horiz-adv-x="509" 
d="M262 1219h-26q-33 6 -54 24q-12 6 -18 19l-6 6q-17 34 -17 38t-2 9v26q0 29 13 45q24 43 69 58q6 0 8 2l25 2h8l10 -2h4q4 -2 20 -7q29 -10 60 -53q8 -24 13 -45v-22l-2 -4v-6l-7 -17l-4 -12l-12 -18q-10 -15 -35 -29t-47 -14z" />
    <glyph glyph-name="ring" unicode="&#x2da;" horiz-adv-x="1064" 
d="M467 1300q0 -27 17 -43t43 -16t42 16t17 43q0 27 -16 42q-16 16 -43 16q-26 0 -43 -16t-17 -42zM369 1304q0 66 45 110q46 44 112 44t112 -44t46 -112t-46 -112t-112 -45q-66 0 -112 46q-45 47 -45 113z" />
    <glyph glyph-name="ogonek" unicode="&#x2db;" horiz-adv-x="1138" 
d="M801 1436h198l-233 -269h-152zM463 1436h199l-234 -269h-152z" />
    <glyph glyph-name="tilde" unicode="&#x2dc;" horiz-adv-x="1179" 
d="M852 1436q0 -98 -42 -154t-100 -57q-58 0 -98 20l-61 25q-51 20 -78 20q-57 0 -61 -65h-117q0 98 42 154q41 57 101 57t97 -19l61 -26q61 -20 76 -21q59 0 63 66h117z" />
    <glyph glyph-name="hungarumlaut" unicode="&#x2dd;" horiz-adv-x="1116" 
d="M571 -281h-163l129 269h151z" />
    <glyph glyph-name="Delta" unicode="&#x394;" horiz-adv-x="1433" 
d="M717 1231l-402 -1086h803zM1270 0h-1106v133l487 1303h131l488 -1303v-133z" />
    <glyph glyph-name="Delta" unicode="&#x2206;" horiz-adv-x="1433" 
d="M717 1231l-402 -1086h803zM1270 0h-1106v133l487 1303h131l488 -1303v-133z" />
    <glyph glyph-name="Omega" unicode="&#x3a9;" horiz-adv-x="1560" 
d="M1323 139v-139h-403v377q158 33 250 162t92 297q0 209 -140 344t-340 135q-201 0 -341 -135t-140 -344q0 -168 92 -297t248 -162v-377h-403v139h258v152q-152 55 -248 206t-96 339q0 266 183 444t443 178t444 -179t185 -443q0 -186 -96 -337t-244 -208v-152h256z" />
    <glyph glyph-name="Omega" unicode="&#x2126;" horiz-adv-x="1560" 
d="M1323 139v-139h-403v377q158 33 250 162t92 297q0 209 -140 344t-340 135q-201 0 -341 -135t-140 -344q0 -168 92 -297t248 -162v-377h-403v139h258v152q-152 55 -248 206t-96 339q0 266 183 444t443 178t444 -179t185 -443q0 -186 -96 -337t-244 -208v-152h256z" />
    <glyph glyph-name="pi" unicode="&#x3c0;" horiz-adv-x="1314" 
d="M889 0v864h-465v-864h-143v864h-164v140h1081v-140h-164v-864h-145z" />
    <glyph glyph-name="endash" unicode="&#x2013;" horiz-adv-x="1179" 
d="M164 467v139h864v-139h-864z" />
    <glyph glyph-name="emdash" unicode="&#x2014;" horiz-adv-x="1751" 
d="M164 467v139h1435v-139h-1435z" />
    <glyph glyph-name="quoteleft" unicode="&#x2018;" horiz-adv-x="536" 
d="M459 967h-164l-217 469h190z" />
    <glyph glyph-name="quoteright" unicode="&#x2019;" horiz-adv-x="536" 
d="M248 967h-164l190 469h191z" />
    <glyph glyph-name="quotesinglbase" unicode="&#x201a;" horiz-adv-x="548" 
d="M190 -236h-163l190 469h191z" />
    <glyph glyph-name="quotedblleft" unicode="&#x201c;" horiz-adv-x="913" 
d="M465 967h-164l-217 469h190zM844 967h-164l-217 469h190z" />
    <glyph glyph-name="quotedblright" unicode="&#x201d;" horiz-adv-x="913" 
d="M627 967h-164l190 469h191zM248 967h-164l190 469h191z" />
    <glyph glyph-name="quotedblbase" unicode="&#x201e;" horiz-adv-x="921" 
d="M594 -236h-164l191 469h190zM221 -236h-164l191 469h190z" />
    <glyph glyph-name="dagger" unicode="&#x2020;" horiz-adv-x="1122" 
d="M94 1004h389v432h156v-432h391v-148h-391v-1253h-156v1253h-389v148z" />
    <glyph glyph-name="daggerdbl" unicode="&#x2021;" horiz-adv-x="1122" 
d="M94 381h389v475h-389v148h389v432h156v-432h391v-148h-391v-475h391v-148h-391v-630h-156v630h-389v148z" />
    <glyph glyph-name="bullet" unicode="&#x2022;" horiz-adv-x="827" 
d="M139 538q0 114 80 194t194 79q113 0 193 -80q80 -81 80 -195t-79 -193t-193 -79t-195 80q-80 80 -80 194z" />
    <glyph glyph-name="ellipsis" unicode="&#x2026;" horiz-adv-x="1574" 
d="M1237 98q0 51 35 87t87 36t88 -35t36 -87t-36 -87t-88 -35t-87 35t-35 86zM711 98q0 51 34 87q35 36 87 36t88 -35t36 -87t-36 -87t-88 -35t-87 35q-34 35 -34 86zM186 98q0 51 35 87t87 36t88 -35t36 -87t-36 -87t-88 -35t-87 35t-35 86z" />
    <glyph glyph-name="perthousand" unicode="&#x2030;" horiz-adv-x="2066" 
d="M188 0l877 1436h164l-875 -1436h-166zM1688 373q-51 0 -89 -37t-38 -97t37 -98q38 -37 90 -37t89 37q38 37 38 97t-38 97q-38 38 -89 38zM1423 239q0 111 77 187t187 76q111 0 187 -77t76 -187t-77 -185q-77 -76 -187 -76t-186 76q-77 76 -77 186zM918 238q0 -59 38 -97
q40 -37 90 -37t88 37t38 97t-38 97q-38 38 -88 38t-89 -38t-39 -97zM782 239q0 111 77 187t187 76t186 -77t75 -185q0 -108 -76 -186q-75 -78 -185 -77q-110 0 -187 76t-77 186zM252 1196q0 -59 39 -96t89 -37t88 37t38 97t-38 97t-88 37t-89 -38t-39 -97zM117 1196
q0 110 77 186q76 76 186 76t186 -77t75 -185q0 -108 -76 -186q-75 -76 -185 -76t-186 76t-77 186z" />
    <glyph glyph-name="guilsinglleft" unicode="&#x2039;" horiz-adv-x="657" 
d="M70 502l280 502h168l-285 -502l285 -502h-168z" />
    <glyph glyph-name="guilsinglright" unicode="&#x203a;" horiz-adv-x="851" 
d="M762 502l-281 -502h-168l285 502l-285 502h168z" />
    <glyph glyph-name="fraction" unicode="&#x2044;" horiz-adv-x="1187" 
d="M74 0l876 1436h164l-874 -1436h-166z" />
    <glyph glyph-name="Euro" unicode="&#x20ac;" horiz-adv-x="1419" 
d="M117 795v139h157q49 240 202 382t374 142q268 0 432 -223l-102 -107q-121 184 -330 185q-156 -1 -266 -101t-150 -278h500v-139h-520q-2 -27 -2 -69t4 -95h518v-142h-498q42 -172 148 -269t264 -97q211 0 354 176l101 -115q-197 -207 -455 -207q-224 1 -372 139t-200 373
h-159v142h139q-2 27 -2 82t2 82h-139z" />
    <glyph glyph-name="trademark" unicode="&#x2122;" horiz-adv-x="1734" 
d="M920 631h-129v805h139l252 -514l254 514h135v-805h-127v555l-195 -389h-133l-196 389v-555zM47 1436h592v-119h-233v-686h-130v686h-229v119z" />
    <glyph glyph-name="arrownorthwest" unicode="&#x2196;" horiz-adv-x="1370" 
d="M1067 920h-647l827 -830l-106 -108l-830 829v-647h-147v903h903v-147z" />
    <glyph glyph-name="arrownortheast" unicode="&#x2197;" horiz-adv-x="1370" 
d="M303 920v147h903v-903h-147v647l-830 -829l-106 108l827 830h-647z" />
    <glyph glyph-name="arrowsoutheast" unicode="&#x2198;" horiz-adv-x="1370" 
d="M373 147h647l-827 830l106 108l829 -829v647h148v-903h-903v147z" />
    <glyph glyph-name="arrowsouthwest" unicode="&#x2199;" horiz-adv-x="1370" 
d="M1067 147v-147h-903v903h147v-647l830 829l106 -108l-827 -830h647z" />
    <glyph glyph-name="partialdiff" unicode="&#x2202;" horiz-adv-x="1202" 
d="M586 782q-123 0 -218 -90q-96 -90 -96 -244t87 -239q87 -86 214 -86t213 98q86 97 86 239t-81 232q-82 90 -205 90zM573 -23q-176 -1 -316 131t-140 345t138 345t318 132q111 0 210 -52t155 -155q10 270 -94 430t-290 160t-292 -152l-108 113q150 184 402 184t391 -196
q138 -196 138 -534q1 -339 -139 -545t-373 -206z" />
    <glyph glyph-name="product" unicode="&#x220f;" horiz-adv-x="1312" 
d="M991 -397v1261h-672v-1261h-145v1401h963v-1401h-146z" />
    <glyph glyph-name="summation" unicode="&#x2211;" horiz-adv-x="1062" 
d="M946 -252v-145h-842v133l453 784l-453 783v133h842v-146h-665l450 -770l-450 -772h665z" />
    <glyph glyph-name="minus" unicode="&#x2212;" horiz-adv-x="1331" 
d="M164 463v139h1003v-139h-1003z" />
    <glyph glyph-name="radical" unicode="&#x221a;" horiz-adv-x="1427" 
d="M94 1004h326l301 -818l465 1250h151l-536 -1436h-156l-328 864h-223v140z" />
    <glyph glyph-name="infinity" unicode="&#x221e;" horiz-adv-x="2344" 
d="M1714 121q141 0 241 110q99 111 99 271t-99 270t-241 111q-104 -1 -178 -57t-152 -162l-118 -164l118 -162q76 -104 151 -160t179 -57zM631 883q-143 0 -243 -111q-100 -110 -99 -270q0 -160 99 -271t243 -110q104 0 176 55t154 164l116 162l-116 164q-80 106 -153 162
t-177 55zM1714 1028q201 0 345 -155q145 -155 145 -371t-144 -370q-144 -155 -346 -155q-256 0 -442 259l-101 137l-98 -135q-193 -260 -442 -261q-201 0 -346 155t-146 370q-1 214 145 370t347 156q254 0 440 -260l100 -137l99 135q195 262 444 262z" />
    <glyph glyph-name="integral" unicode="&#x222b;" horiz-adv-x="712" 
d="M281 -43v1122q0 185 89 271t263 86l80 -2v-140q-55 2 -78 2q-113 0 -158 -52t-45 -165v-1122q0 -186 -89 -271t-263 -85l-80 2v141q53 -4 78 -4q113 0 158 52t45 165z" />
    <glyph glyph-name="approxequal" unicode="&#x2248;" horiz-adv-x="1337" 
d="M1038 483h129q10 -127 -49 -210t-164 -83q-59 0 -159 37l-281 97q-68 27 -117 26q-106 0 -106 -147h-127q-10 127 49 210t164 83q55 0 160 -35l280 -99q68 -27 117 -26q104 0 104 147zM1038 879h129q10 -127 -49 -210t-164 -83q-55 0 -159 35l-281 98q-68 27 -117 26
q-106 0 -106 -147h-127q-10 127 49 209t164 82q55 0 160 -35l280 -98q74 -25 117 -25q104 1 104 148z" />
    <glyph glyph-name="notequal" unicode="&#x2260;" horiz-adv-x="1331" 
d="M164 631v141h584l143 232h162l-142 -232h256v-141h-344l-143 -234h487v-139h-573l-158 -258h-164l158 258h-266v139h352l146 234h-498z" />
    <glyph glyph-name="lessequal" unicode="&#x2264;" horiz-adv-x="1239" 
d="M96 -139v139h1004v-139h-1004zM94 522v146l1006 360v-160l-801 -272l801 -274v-158z" />
    <glyph glyph-name="greaterequal" unicode="&#x2265;" horiz-adv-x="1239" 
d="M141 -139v139h1004v-139h-1004zM1147 668v-146l-1008 -358v158l801 274l-801 272v160z" />
    <glyph glyph-name="lozenge" unicode="&#x25ca;" horiz-adv-x="1331" 
d="M299 506l367 -742l366 742l-366 745zM600 1436h131l459 -930l-459 -926h-131l-461 926z" />
    <glyph glyph-name="fi" unicode="&#xfb01;" horiz-adv-x="1255" 
d="M1094 1333v-10q-12 -54 -45 -80l-19 -12l-12 -6h-2q-4 -2 -6 -2l-13 -4h-36l-15 4q-2 0 -8 2l-25 12q-28 28 -30 31l-13 24q-6 12 -6 31v29l2 4q6 39 41 67l19 13q14 8 28 10h7l8 2h10q5 0 31 -4l8 -4l12 -4q24 -18 41 -35l4 -8q4 -4 4 -7q15 -21 15 -53zM901 0v864h-493
v-864h-152v864h-186v140h186v75q0 185 89 271t265 86l56 -2v-140q-31 2 -54 2q-112 0 -158 -52t-46 -165v-75h645v-1004h-152z" />
    <glyph glyph-name="fl" unicode="&#xfb02;" horiz-adv-x="1216" 
d="M610 1436h443v-1436h-152v1296h-289q-112 0 -158 -52t-46 -165v-75h258v-140h-258v-864h-152v864h-186v140h186v75q0 185 89 271t265 86z" />
    <glyph glyph-name="acutecap" horiz-adv-x="1245" 
d="M688 1786h211l-221 -211h-176z" />
    <glyph glyph-name="caroncap" horiz-adv-x="1245" 
d="M739 1575h-198l-197 211h162l135 -127l133 127h164z" />
    <glyph glyph-name="ringcap" 
d="M635 1592q0 -30 20 -49q19 -19 49 -19t49 19t19 49t-19 49t-48 19t-49 -18q-20 -20 -21 -50zM522 1595q0 76 52 127q52 52 128 52t129 -52t53 -128q0 -77 -52 -129q-54 -52 -129 -52t-128 53t-53 129z" />
    <glyph glyph-name="gravecap" horiz-adv-x="1245" 
d="M373 1786h211l186 -211h-174z" />
    <glyph glyph-name="circumflexcap" horiz-adv-x="1245" 
d="M541 1786h198l199 -211h-164l-133 127l-135 -127h-162z" />
    <glyph glyph-name="zero.onum" 
d="M1116 561q0 184 -123 310t-295 126t-286 -124t-115 -312q0 -188 115 -313q114 -125 286 -125t295 127t123 311zM1272 561q0 -250 -167 -417t-405 -167t-400 166t-161 417q0 251 162 418q161 167 399 167t405 -167t167 -417z" />
    <glyph glyph-name="one.onum" horiz-adv-x="1044" 
d="M129 147h340v740q-129 -102 -340 -103v140q272 12 365 196h133v-973h323v-147h-821v147z" />
    <glyph glyph-name="two.onum" horiz-adv-x="1146" 
d="M999 147v-147h-860v47q0 207 92 319t320 191l72 27q119 41 172 92t53 134t-67 135t-183 52q-233 0 -340 -237l-106 106q59 129 173 204q113 75 279 75t284 -92q118 -93 118 -239t-80 -226t-219 -133l-113 -41q-154 -55 -218 -111t-71 -156h694z" />
    <glyph glyph-name="three.onum" horiz-adv-x="1153" 
d="M1014 106q0 -201 -131 -305t-332 -104q-131 0 -254 54t-203 153l107 108q141 -168 360 -168q129 0 212 67t83 193t-94 186q-94 62 -246 62h-108v150h86q152 0 240 68t87 187q0 120 -83 180t-185 60q-182 0 -320 -153l-104 104q176 197 416 197q176 -1 305 -103t129 -286
q1 -115 -65 -198t-140 -112q102 -41 171 -129t69 -211z" />
    <glyph glyph-name="four.onum" horiz-adv-x="1251" 
d="M780 147v707l-485 -707h485zM1135 0h-199v-281h-156v281h-663v135l674 985h145v-973h199v-147z" />
    <glyph glyph-name="five.onum" horiz-adv-x="1212" 
d="M938 168q0 148 -91 232t-233 83q-92 0 -171 -46t-113 -109h-144l35 792h766v-147h-622l-25 -451q100 109 293 109t328 -124t135 -330t-140 -343t-370 -137q-276 0 -447 231l111 109q131 -193 346 -193q145 0 244 88q98 88 98 236z" />
    <glyph glyph-name="six.onum" horiz-adv-x="1284" 
d="M664 770q-123 0 -205 -90t-82 -227t86 -233t213 -97q127 0 214 84t87 234q0 149 -95 239t-218 90zM674 -23q-233 0 -372 201q-138 201 -138 535t143 522t391 188t398 -184l-109 -115q-103 154 -285 154t-292 -153t-99 -412q55 100 153 152t210 53q182 0 320 -132
t138 -345q0 -214 -140 -339t-318 -125z" />
    <glyph glyph-name="seven.onum" horiz-adv-x="1140" 
d="M117 682v438h932v-135q-444 -483 -508 -1184l-6 -82h-156l6 80q29 344 151 647t320 527h-592v-291h-147z" />
    <glyph glyph-name="eight.onum" horiz-adv-x="1228" 
d="M614 1241q-106 0 -194 -57t-88 -173t81 -177q81 -62 201 -62t201 62q82 62 82 177q0 116 -88 173q-89 57 -195 57zM932 373q0 119 -92 187t-228 67q-135 0 -225 -67q-90 -66 -90 -186t93 -186t224 -66t225 66q93 66 93 185zM614 -23q-198 0 -336 108t-139 286
q0 121 79 217t161 117q-73 29 -139 109t-66 194q0 176 132 278t308 102t308 -102t131 -278q0 -113 -66 -193t-137 -110q82 -21 160 -117t77 -217q0 -180 -138 -287t-335 -107z" />
    <glyph glyph-name="nine.onum" horiz-adv-x="1284" 
d="M621 350q123 0 205 90t81 228q0 138 -86 233q-86 96 -213 96t-214 -83t-87 -233t95 -241q96 -90 219 -90zM610 1145q230 0 370 -202t140 -536t-143 -522t-391 -188t-398 184l109 115q103 -152 285 -152t292 152t99 412q-55 -100 -153 -152t-210 -53q-182 0 -320 132
t-138 345t140 339t318 126z" />
    <glyph glyph-name="zero.ss01" horiz-adv-x="1265" 
d="M991 719q0 113 -18 211l-635 -586q96 -221 295 -221q172 0 265 163t93 433zM633 1313q-172 0 -266 -163t-95 -431q0 -121 19 -221l639 585q-94 230 -297 230zM117 719q0 297 122 509q60 106 161 168q100 62 232 62t233 -62q184 -113 253 -403q31 -129 31 -274t-31 -275
q-70 -291 -253 -404q-101 -62 -232 -62t-233 62q-181 111 -253 404q-30 130 -30 275z" />
    <glyph glyph-name="one.ss01" horiz-adv-x="1101" 
d="M139 147h375v1141h-350v148h510v-1289h358v-147h-893v147z" />
    <glyph glyph-name="two.ss01" horiz-adv-x="1220" 
d="M156 1019q0 185 133 312t323 127t322 -127t133 -315q0 -121 -59 -220t-174 -208l-465 -441h700v-147h-917v135l469 449q-10 -4 -41 -4q-176 0 -300 127t-124 312zM305 1016q0 -127 88 -213t217 -86t218 86t90 213q0 127 -88 213t-218 86q-129 0 -218 -86t-89 -213z" />
    <glyph glyph-name="three.ss01" horiz-adv-x="1200" 
d="M1036 436q0 -201 -135 -330t-350 -129q-293 0 -457 230l105 106q137 -193 352 -192q145 0 241 82q95 82 95 216t-88 213t-252 79h-131v131l356 444h-602v148h797v-140l-361 -446q186 -2 308 -124t122 -288z" />
    <glyph glyph-name="four.ss01" horiz-adv-x="1155" 
d="M817 846v-336h246v-148h-246v-362h-155v362h-549v320l549 752h186l-580 -801v-123h394v336h155z" />
    <glyph glyph-name="five.ss01" horiz-adv-x="1210" 
d="M586 127q150 -1 248 93t98 234t-92 230t-214 90t-196 -52q-76 -52 -108 -134h-146v848h811v-148h-655v-475q113 109 293 109t321 -125t141 -331t-135 -347t-372 -142q-276 0 -441 228l113 108q119 -186 334 -186z" />
    <glyph glyph-name="six.ss01" horiz-adv-x="1267" 
d="M293 453q0 -147 98 -239q99 -92 241 -91q142 0 240 91q98 90 98 238t-98 239t-241 91t-241 -91t-97 -238zM1128 452q0 -216 -144 -346t-358 -129t-354 139t-139 343q0 205 172 452l365 525h188l-385 -541q80 35 170 35q199 0 342 -131t143 -347z" />
    <glyph glyph-name="seven.ss01" horiz-adv-x="1095" 
d="M104 963v473h920v-146l-559 -1290h-166l567 1290h-610v-327h-152z" />
    <glyph glyph-name="eight.ss01" horiz-adv-x="1114" 
d="M557 1315q-104 0 -179 -69t-75 -176t70 -179q71 -72 185 -72t184 72q70 71 69 179q0 108 -75 176t-179 69zM557 676q-125 0 -207 -81t-82 -200t81 -197t208 -77q127 0 208 78q81 79 81 197t-82 199t-207 81zM557 -23q-195 0 -319 122t-125 296q0 119 60 214t142 143
q-70 47 -118 128q-49 81 -50 183q0 163 116 279t293 116t294 -116t117 -279q0 -102 -49 -183t-119 -128q82 -46 142 -142t60 -215q-1 -174 -125 -296t-319 -122z" />
    <glyph glyph-name="nine.ss01" horiz-adv-x="1251" 
d="M977 983q0 147 -99 239q-100 92 -242 91q-142 0 -240 -91q-98 -90 -99 -238q0 -148 98 -240q97 -92 241 -91q144 0 243 91q98 92 98 239zM642 1458q214 0 353 -138t139 -343t-171 -453l-365 -524h-186l385 541q-80 -35 -170 -35q-199 0 -343 131t-144 347t144 345
t358 129z" />
    <glyph glyph-name="A.ss01" horiz-adv-x="1359" 
d="M596 1290l-211 -811h590l-211 811h-168zM881 1434l387 -1434h-166l-90 330h-664l-90 -330h-166l387 1434h402z" />
    <glyph glyph-name="Aacute.ss01" horiz-adv-x="1359" 
d="M727 1786h211l-221 -211h-176zM596 1290l-211 -811h590l-211 811h-168zM881 1434l387 -1434h-166l-90 330h-664l-90 -330h-166l387 1434h402z" />
    <glyph glyph-name="Agrave.ss01" horiz-adv-x="1359" 
d="M424 1786h211l186 -211h-174zM596 1290l-211 -811h590l-211 811h-168zM881 1434l387 -1434h-166l-90 330h-664l-90 -330h-166l387 1434h402z" />
    <glyph glyph-name="Acircumflex.ss01" horiz-adv-x="1359" 
d="M578 1786h198l199 -211h-164l-133 127l-135 -127h-162zM596 1290l-211 -811h590l-211 811h-168zM881 1434l387 -1434h-166l-90 330h-664l-90 -330h-166l387 1434h402z" />
    <glyph glyph-name="Adieresis.ss01" horiz-adv-x="1359" 
d="M758 1704q0 45 29 76q30 30 75 30t76 -30t31 -76q0 -45 -31 -75t-76 -30t-75 30q-29 30 -29 75zM387 1704q0 45 30 76q30 30 75 30q46 0 76 -30t30 -76q0 -45 -31 -75t-75 -30t-75 30q-30 30 -30 75zM596 1290l-211 -811h590l-211 811h-168zM881 1434l387 -1434h-166
l-90 330h-664l-90 -330h-166l387 1434h402z" />
    <glyph glyph-name="Atilde.ss01" horiz-adv-x="1359" 
d="M948 1786q0 -98 -42 -154t-99 -57q-57 0 -98 20l-62 25q-51 20 -78 20q-57 0 -61 -65h-117q0 99 42 155q41 56 101 56t97 -19l61 -26q61 -20 76 -21q59 0 63 66h117zM596 1290l-211 -811h590l-211 811h-168zM881 1434l387 -1434h-166l-90 330h-664l-90 -330h-166
l387 1434h402z" />
    <glyph glyph-name="Aring.ss01" horiz-adv-x="1359" 
d="M610 1592q0 -30 20 -49t50 -19q29 0 48 19q20 19 20 49t-20 49t-48 19q-30 0 -50 -18q-20 -20 -20 -50zM596 1290l-211 -811h590l-211 811h-168zM498 1591q0 80 52 131q52 52 128 52t129 -52t53 -116q0 -124 -98 -172h119l387 -1434h-166l-90 330h-664l-90 -330h-166
l387 1434h115q-96 48 -96 157z" />
    <glyph glyph-name="AE.ss01" horiz-adv-x="1820" 
d="M596 1290l-211 -811h590l-211 811h-168zM1667 1434v-148h-747l131 -481h594v-148h-555l137 -510h440v-147h-565l-90 330h-664l-90 -330h-166l387 1434h1188z" />
    <glyph glyph-name="Ccedilla.ss01" horiz-adv-x="1433" 
d="M893 -281h-152v263q-281 26 -463 236t-184 508q0 298 204 515t507 217q338 0 536 -246l-104 -110q-164 211 -432 211q-239 0 -397 -172t-158 -424t161 -423t404 -171q283 0 449 215l100 -115q-186 -213 -471 -241v-263z" />
    <glyph glyph-name="G.ss01" horiz-adv-x="1490" 
d="M815 567v148h549v-715h-152v92q-174 -115 -397 -115q-309 -1 -515 215t-206 524t204 525t507 217q338 0 536 -246l-104 -110q-164 211 -432 211q-239 0 -397 -172t-158 -424t161 -423t405 -171t396 151v293h-397z" />
    <glyph glyph-name="I.ss01" horiz-adv-x="968" 
d="M129 1296v140h711v-140h-277v-1157h277v-139h-711v139h277v1157h-277z" />
    <glyph glyph-name="Iacute.ss01" horiz-adv-x="968" 
d="M545 1786h211l-221 -211h-177zM129 1296v140h711v-140h-277v-1157h277v-139h-711v139h277v1157h-277z" />
    <glyph glyph-name="Igrave.ss01" horiz-adv-x="968" 
d="M209 1786h211l186 -211h-174zM129 1296v140h711v-140h-277v-1157h277v-139h-711v139h277v1157h-277z" />
    <glyph glyph-name="Icircumflex.ss01" horiz-adv-x="968" 
d="M385 1786h199l198 -211h-164l-133 127l-135 -127h-162zM129 1296v140h711v-140h-277v-1157h277v-139h-711v139h277v1157h-277z" />
    <glyph glyph-name="Idieresis.ss01" horiz-adv-x="968" 
d="M567 1704q0 45 30 76q30 30 75 30t76 -30q30 -30 30 -76q0 -45 -30 -75t-76 -30q-45 0 -75 30t-30 75zM197 1704q0 45 29 76q30 30 75 30t76 -30t31 -76q0 -45 -31 -75t-76 -30t-75 30q-29 30 -29 75zM129 1296v140h711v-140h-277v-1157h277v-139h-711v139h277v1157h-277
z" />
    <glyph glyph-name="J.ss01" horiz-adv-x="1079" 
d="M315 1288v148h623v-990q0 -215 -111 -342t-317 -127t-324 128q-117 128 -116 317v65h157v-65q0 -143 79 -221t198 -78q279 0 278 323v842h-467z" />
    <glyph glyph-name="K.ss01" horiz-adv-x="1212" 
d="M119 0v1436h157v-617h250l420 617h178l-462 -678l475 -758h-185l-424 676h-252v-676h-157z" />
    <glyph glyph-name="M.ss01" horiz-adv-x="1681" 
d="M1518 1436v-1436h-156v1294h-129l-285 -1294h-225l-279 1294h-125v-1294h-155v1436h409l263 -1252l268 1252h414z" />
    <glyph glyph-name="Q.ss01" horiz-adv-x="1658" 
d="M814 1313q-248 0 -406 -171t-158 -425t158 -424t407 -170q199 0 342 115l-346 346l102 104l347 -344q114 156 114 392t-156 406q-157 171 -404 171zM94 717q0 309 205 525t509 216t512 -216t208 -525t-207 -524t-513 -215t-510 214q-204 216 -204 525z" />
    <glyph glyph-name="V.ss01" horiz-adv-x="1318" 
d="M750 143l358 1291h170l-408 -1434h-421l-408 1434h170l358 -1291h181z" />
    <glyph glyph-name="W.ss01" horiz-adv-x="1896" 
d="M1348 143l358 1291h170l-408 -1434h-391l-129 461l-129 -461h-391l-408 1434h170l359 -1291h153l160 570l-205 721h162l129 -473l129 473h162l-205 -721l160 -570h154z" />
    <glyph glyph-name="X.ss01" horiz-adv-x="1333" 
d="M772 666h-225l-293 -666h-166l326 735l-299 701h166l266 -627h225l266 627h166l-299 -701l326 -735h-166z" />
    <glyph glyph-name="a.ss01" horiz-adv-x="1085" 
d="M487 137h273v352h-273q-92 0 -149 -51t-57 -125t57 -125t149 -51zM242 864v140h669v-1004h-434q-150 0 -247 91t-97 221t100 222t244 93h283v237h-518z" />
    <glyph glyph-name="aacute.ss01" horiz-adv-x="1236" 
d="M729 1436h199l-234 -269h-151zM543 137h272v352h-272q-91 0 -149 -51t-58 -125t58 -125t149 -51zM297 864v140h670v-1004h-435q-150 0 -246 91t-98 221q0 130 100 222t244 93h283v237h-518z" />
    <glyph glyph-name="agrave.ss01" horiz-adv-x="1236" 
d="M377 1436h198l187 -269h-152zM543 137h272v352h-272q-91 0 -149 -51t-58 -125t58 -125t149 -51zM297 864v140h670v-1004h-435q-150 0 -246 91t-98 221q0 130 100 222t244 93h283v237h-518z" />
    <glyph glyph-name="acircumflex.ss01" horiz-adv-x="1236" 
d="M565 1436h199l199 -269h-152l-147 168l-146 -168h-151zM543 137h272v352h-272q-91 0 -149 -51t-58 -125t58 -125t149 -51zM297 864v140h670v-1004h-435q-150 0 -246 91t-98 221q0 130 100 222t244 93h283v237h-518z" />
    <glyph glyph-name="adieresis.ss01" horiz-adv-x="1236" 
d="M737 1341q0 45 30 76t75 31t76 -31q30 -31 30 -76t-30 -75t-76 -29q-45 -1 -75 29t-30 75zM367 1341q0 45 29 76q30 31 75 31t76 -31t31 -76t-31 -75t-76 -29q-45 -1 -75 29t-29 75zM543 137h272v352h-272q-91 0 -149 -51t-58 -125t58 -125t149 -51zM297 864v140h670
v-1004h-435q-150 0 -246 91t-98 221q0 130 100 222t244 93h283v237h-518z" />
    <glyph glyph-name="atilde.ss01" horiz-adv-x="1236" 
d="M946 1436q0 -98 -42 -154t-99 -57q-57 0 -98 20l-62 25q-51 20 -78 20q-57 0 -61 -65h-117q0 98 42 154q41 57 101 57t97 -19l61 -26q61 -20 76 -21q59 0 63 66h117zM543 137h272v352h-272q-91 0 -149 -51t-58 -125t58 -125t149 -51zM297 864v140h670v-1004h-435
q-150 0 -246 91t-98 221q0 130 100 222t244 93h283v237h-518z" />
    <glyph glyph-name="aring.ss01" horiz-adv-x="1236" 
d="M608 1300q0 -27 18 -43t43 -16q26 0 42 16t16 43t-16 42q-16 16 -42 16q-25 0 -43 -16t-18 -42zM510 1304q0 66 45 110t112 44t113 -44t45 -112q0 -68 -46 -112t-112 -45q-66 0 -112 46q-45 47 -45 113zM543 137h272v352h-272q-91 0 -149 -51t-58 -125t58 -125t149 -51z
M297 864v140h670v-1004h-435q-150 0 -246 91t-98 221q0 130 100 222t244 93h283v237h-518z" />
    <glyph glyph-name="ae.ss01" horiz-adv-x="1640" 
d="M1163 866h-252v-299h252q197 -1 197 149t-197 150zM760 137v299h-283q-197 0 -196 -149q0 -150 196 -150h283zM467 573h293v291h-518v140h932q154 0 244 -76t89 -210q0 -134 -96 -211t-237 -77h-263v-293h570v-137h-1014q-147 0 -241 77q-93 77 -93 210t93 210
q94 76 241 76z" />
    <glyph glyph-name="ccedilla.ss01" horiz-adv-x="1116" 
d="M537 -281v267q-184 29 -303 174q-118 145 -118 352q0 208 149 362t369 154t367 -178l-102 -100q-113 135 -269 135t-257 -110q-101 -109 -101 -275t96 -274t266 -108q169 0 284 148l104 -96q-139 -164 -334 -188l-4 -263h-147z" />
    <glyph glyph-name="e.ss01" horiz-adv-x="1046" 
d="M539 463q98 0 160 62q63 61 63 149t-64 150t-160 62q-98 0 -160 -62t-62 -150t62 -150q63 -62 161 -61zM550 322q-146 0 -235 75v-260h570v-137h-721v645q0 176 107 280q108 103 268 103q159 0 267 -100t108 -252t-110 -253q-108 -101 -254 -101z" />
    <glyph glyph-name="eacute.ss01" horiz-adv-x="1046" 
d="M539 463q98 0 160 62q63 61 63 149t-64 150t-160 62q-98 0 -160 -62t-62 -150t62 -150q63 -62 161 -61zM550 322q-146 0 -235 75v-260h570v-137h-721v645q0 176 107 280q108 103 268 103q159 0 267 -100t108 -252t-110 -253q-108 -101 -254 -101zM606 1436h199l-234 -269
h-151z" />
    <glyph glyph-name="egrave.ss01" horiz-adv-x="1046" 
d="M303 1436h199l186 -269h-151zM539 463q98 0 160 62q63 61 63 149t-64 150t-160 62q-98 0 -160 -62t-62 -150t62 -150q63 -62 161 -61zM550 322q-146 0 -235 75v-260h570v-137h-721v645q0 176 107 280q108 103 268 103q159 0 267 -100t108 -252t-110 -253
q-108 -101 -254 -101z" />
    <glyph glyph-name="ecircumflex.ss01" horiz-adv-x="1046" 
d="M444 1436h199l199 -269h-152l-147 168l-146 -168h-151zM539 463q98 0 160 62q63 61 63 149t-64 150t-160 62q-98 0 -160 -62t-62 -150t62 -150q63 -62 161 -61zM550 322q-146 0 -235 75v-260h570v-137h-721v645q0 176 107 280q108 103 268 103q159 0 267 -100t108 -252
t-110 -253q-108 -101 -254 -101z" />
    <glyph glyph-name="edieresis.ss01" horiz-adv-x="1046" 
d="M621 1341q0 45 29 76q30 31 75 31t76 -31t31 -76t-32 -75q-30 -30 -75 -29q-45 -1 -75 29t-29 75zM250 1341q0 45 30 76t74 31t76 -31q31 -31 31 -76t-31 -75t-76 -29q-44 -1 -74 29t-30 75zM539 463q98 0 160 62q63 61 63 149t-64 150t-160 62q-98 0 -160 -62t-62 -150
t62 -150q63 -62 161 -61zM550 322q-146 0 -235 75v-260h570v-137h-721v645q0 176 107 280q108 103 268 103q159 0 267 -100t108 -252t-110 -253q-108 -101 -254 -101z" />
    <glyph glyph-name="f.ss01" horiz-adv-x="856" 
d="M47 864v140h164v147q0 127 89 217t222 90t223 -90t91 -217v-23h-152v21q0 72 -49 120t-113 48t-111 -47q-48 -47 -49 -121v-145h474v-140h-474v-864h-151v864h-164z" />
    <glyph glyph-name="g.ss01" horiz-adv-x="1173" 
d="M885 559q0 125 -85 211t-210 90h-12q-130 0 -218 -86t-88 -213t89 -213t219 -86t217 86q88 86 88 211zM1051 1004v-144h-136q119 -125 119 -303t-124 -305t-300 -127q-31 0 -41 4l482 -391v-135h-908v137h680l-479 397q-221 186 -221 424q0 187 132 315t323 128h473z" />
    <glyph glyph-name="h.ss01" horiz-adv-x="1144" 
d="M315 1436v-432h641v-1004h-151v864h-490v-864h-151v1436h151z" />
    <glyph glyph-name="j.ss01" horiz-adv-x="600" 
d="M399 -397h-399v139h246v1262h153v-1401zM207 1345q0 45 34 79t81 34q46 0 80 -33t34 -79t-34 -81q-34 -34 -80 -34t-81 34q-34 34 -34 80z" />
    <glyph glyph-name="k.ss01" horiz-adv-x="1030" 
d="M164 0v1436h151v-867h250l230 435h166l-265 -502l283 -502h-166l-248 428h-250v-428h-151z" />
    <glyph glyph-name="l.ss01" horiz-adv-x="477" 
d="M313 0h-149v1436h149v-1436z" />
    <glyph glyph-name="m.ss01" horiz-adv-x="1691" 
d="M1530 1004v-1004h-152v864h-456v-864h-152v864h-455v-864h-151v1004h1366z" />
    <glyph glyph-name="n.ss01" horiz-adv-x="1120" 
d="M164 1004h792v-1004h-151v864h-490v-864h-151v1004z" />
    <glyph glyph-name="ntilde.ss01" horiz-adv-x="1120" 
d="M842 1436q0 -98 -42 -154t-100 -57q-58 0 -98 20l-61 25q-51 20 -78 20q-57 0 -62 -65h-116q0 98 42 154q42 57 101 57t96 -19l62 -26q61 -20 76 -21q59 0 63 66h117zM956 1004v-1004h-151v864h-490v-864h-151v1004h792z" />
    <glyph glyph-name="oe.ss01" horiz-adv-x="1859" 
d="M1352 463q98 0 160 62q62 61 62 149t-62 150t-160 62t-160 -62t-64 -150q0 -88 63 -150t161 -61zM272 512q0 -164 98 -268t252 -104q156 0 252 104t97 268t-97 268t-252 104t-252 -104t-98 -268zM1351 322q-157 0 -249 102q-25 -174 -135 -287h731v-137h-1077
q-215 0 -360 147q-144 147 -144 365t144 367q144 150 360 149q262 0 395 -197q47 93 136 145t200 52q160 0 268 -100t106 -252q0 -152 -109 -253t-266 -101z" />
    <glyph glyph-name="r.ss01" horiz-adv-x="743" 
d="M315 864v-864h-151v1004h508v-140h-357z" />
    <glyph glyph-name="s.ss01" horiz-adv-x="991" 
d="M477 1028q201 0 357 -162l-103 -108q-123 129 -264 129q-80 0 -125 -36t-45 -84t32 -83t103 -80l447 -272q-15 -164 -119 -259t-281 -96q-240 0 -385 189l101 104q115 -154 282 -153q100 0 161 42q60 42 75 107l-375 223q-193 113 -193 269q-1 122 97 196t235 74z" />
    <glyph glyph-name="t.ss01" horiz-adv-x="782" 
d="M678 0h-416v864h-215v140h215v280h141v-280h285v-140h-285v-725h275v-139z" />
    <glyph glyph-name="u.ss01" horiz-adv-x="1097" 
d="M934 0h-770v1004h151v-865h467v865h152v-1004z" />
    <glyph glyph-name="uacute.ss01" horiz-adv-x="1097" 
d="M631 1436h198l-233 -269h-152zM164 0v1004h151v-865h467v865h152v-1004h-770z" />
    <glyph glyph-name="ugrave.ss01" horiz-adv-x="1097" 
d="M281 1436h198l187 -269h-152zM934 0h-770v1004h151v-865h467v865h152v-1004z" />
    <glyph glyph-name="ucircumflex.ss01" horiz-adv-x="1097" 
d="M449 1436h198l199 -269h-152l-147 168l-146 -168h-151zM164 0v1004h151v-865h467v865h152v-1004h-770z" />
    <glyph glyph-name="udieresis.ss01" horiz-adv-x="1097" 
d="M629 1341q0 45 29 76q30 31 75 31t76 -31t31 -76t-31 -75t-76 -29q-45 -1 -75 29t-29 75zM258 1341q0 45 30 76t74 31t76 -31q31 -31 31 -76t-31 -75t-76 -29q-44 -1 -74 29t-30 75zM164 0v1004h151v-865h467v865h152v-1004h-770z" />
    <glyph glyph-name="y.ss01" horiz-adv-x="1105" 
d="M631 -397h-160v379l-414 1022h168l328 -834l328 834h168l-418 -1022v-379z" />
    <glyph glyph-name="yacute.ss01" horiz-adv-x="1105" 
d="M610 1436h199l-234 -269h-151zM631 -397h-160v379l-414 1022h168l328 -834l328 834h168l-418 -1022v-379z" />
    <glyph glyph-name="ydieresis.ss01" horiz-adv-x="1105" 
d="M641 1341q0 45 30 76q31 31 75 31t75 -31t31 -76t-31 -75t-76 -29q-45 -1 -75 29t-29 75zM270 1341q0 45 30 76t75 31t76 -31t31 -76t-32 -75q-30 -30 -75 -29q-45 -1 -75 29t-30 75zM631 -397h-160v379l-414 1022h168l328 -834l328 834h168l-418 -1022v-379z" />
    <glyph glyph-name="period.ss01" horiz-adv-x="630" 
d="M186 105q0 53 38 91t91 38t92 -37q37 -37 37 -91t-38 -92q-38 -37 -90 -37q-54 0 -92 37t-38 91z" />
    <glyph glyph-name="colon.ss01" horiz-adv-x="667" 
d="M186 900q0 54 38 91t91 37t91 -37t38 -91t-38 -91t-90 -37q-54 0 -92 37t-38 91zM186 105q0 53 38 91t91 38t92 -37q37 -37 37 -91t-38 -92q-38 -37 -90 -37q-54 0 -92 37t-38 91z" />
    <glyph glyph-name="comma.ss01" horiz-adv-x="628" 
d="M207 -303l-160 70l209 479l162 -72z" />
    <glyph glyph-name="semicolon.ss01" horiz-adv-x="630" 
d="M207 -303l-160 70l209 479l162 -72zM186 900q0 54 38 91t91 37t91 -37t38 -91t-38 -91t-90 -37q-54 0 -92 37t-38 91z" />
    <glyph glyph-name="ellipsis.ss01" horiz-adv-x="1574" 
d="M1233 105q0 53 38 91t91 38t91 -38q38 -36 38 -90t-38 -92q-38 -37 -91 -37t-91 37t-38 91zM709 105q0 54 37 92q38 37 92 37t91 -38q38 -36 38 -90t-38 -92q-38 -37 -91 -37t-92 37q-37 37 -37 91zM186 105q0 53 38 91t91 38t92 -37q37 -37 37 -91t-38 -92
q-38 -37 -90 -37q-54 0 -92 37t-38 91z" />
    <glyph glyph-name="question.ss01" horiz-adv-x="1093" 
d="M610 106q0 -53 -37 -91t-91 -38t-92 38t-38 91q0 54 38 92t92 38t91 -38t37 -92zM453 557h-50v143h46q176 0 275 96t99 220q0 123 -87 210t-210 87q-231 0 -360 -223l-105 114q80 117 199 186t266 68q188 0 322 -127t133 -307q0 -180 -141 -324t-387 -143z" />
    <glyph glyph-name="questiondown.ss01" horiz-adv-x="1007" 
d="M682 899q0 -53 -37 -91t-91 -38t-92 38t-38 91t38 91t92 38t91 -38t37 -91zM639 453v-144h-45q-176 0 -276 -96t-99 -219q0 -123 87 -210t210 -87q231 0 361 223l104 -115q-162 -254 -465 -254q-188 0 -321 127q-133 128 -133 308t140 323q142 143 388 144h49z" />
    <glyph glyph-name="exclam.ss01" horiz-adv-x="630" 
d="M186 105q0 53 38 91t91 38t92 -37q37 -37 37 -91t-38 -92q-38 -37 -90 -37q-54 0 -92 37t-38 91zM236 467v969h157v-969h-157z" />
    <glyph glyph-name="exclamdown.ss01" horiz-adv-x="630" 
d="M444 899q0 -53 -38 -91t-90 -38q-54 0 -92 38t-38 91t38 91t91 38t91 -38t38 -91zM395 537v-934h-157v934h157z" />
    <glyph glyph-name="quotedblleft.ss01" horiz-adv-x="862" 
d="M578 922l-154 65l215 461l129 -57zM246 934l-152 65l213 459l129 -55z" />
    <glyph glyph-name="quotedblright.ss01" horiz-adv-x="862" 
d="M285 1460l153 -65l-215 -461l-129 57zM616 1448l152 -66l-213 -458l-129 55z" />
    <glyph glyph-name="quoteleft.ss01" horiz-adv-x="530" 
d="M246 934l-152 65l213 459l129 -55z" />
    <glyph glyph-name="quoteright.ss01" horiz-adv-x="530" 
d="M285 1458l151 -65l-213 -459l-129 55z" />
    <glyph glyph-name="quotesinglbase.ss01" horiz-adv-x="530" 
d="M285 246l151 -66l-215 -461l-127 58z" />
    <glyph glyph-name="quotedblbase.ss01" horiz-adv-x="862" 
d="M285 246l153 -66l-215 -461l-129 58zM616 233l152 -65l-213 -459l-129 55z" />
    <glyph glyph-name="ampersand.ss01" horiz-adv-x="1406" 
d="M571 670q-131 0 -209 -76t-77 -187q-1 -112 77 -186t209 -74h340v523h-340zM688 1288h-78q-122 0 -192 -66t-70 -169q0 -102 71 -169t191 -67h301v619h156v-619h274v-147h-274v-670h-483q-195 0 -325 110t-130 296q0 106 57 199t154 153q-66 47 -108 126t-42 167
q0 172 121 278t307 107h70v-148z" />
    <glyph glyph-name="germandbls.ss01" horiz-adv-x="1216" 
d="M506 670v145l334 471h-533v-1286h-155v1434h866v-148l-338 -471q188 -4 315 -117q127 -114 127 -292t-132 -292t-324 -114h-160v145h147q139 0 227 71q87 71 87 192q0 122 -87 192t-227 70h-147z" />
    <glyph glyph-name="dollar.ss01" horiz-adv-x="1306" 
d="M594 1669h145v-217q231 -29 402 -213l-105 -115q-156 188 -401 189q-141 0 -235 -69t-93 -177q0 -203 305 -252l142 -24q208 -33 322 -137t114 -268t-122 -276t-329 -128v-215h-145v215q-154 14 -278 84t-199 174l106 110q166 -227 461 -227q152 -1 251 67t99 189
q0 205 -301 258l-176 31q-176 31 -291 129q-114 98 -114 265t129 273t313 121v213z" />
    <glyph glyph-name="zero.ss02" horiz-adv-x="1265" 
d="M117 719q0 297 122 509q60 106 161 168q100 62 232 62t233 -62q184 -113 253 -403q31 -129 31 -274t-31 -275q-70 -291 -253 -404q-101 -62 -232 -62t-233 62q-181 111 -253 404q-30 130 -30 275zM991 719q0 270 -93 432t-265 162t-266 -163q-95 -163 -95 -431t94 -432
t267 -164q172 0 265 163t93 433z" />
    <glyph glyph-name="one.ss02" horiz-adv-x="696" 
d="M336 0v1157l-238 -194v180l373 315h18v-1458h-153z" />
    <glyph glyph-name="two.ss02" horiz-adv-x="1173" 
d="M1034 147v-147h-936v18l602 736q134 162 134 293t-79 199t-198 67q-221 0 -332 -238l-108 107q59 124 178 200t256 76q195 0 317 -108t123 -293q0 -109 -56 -213t-175 -252l-361 -445h635z" />
    <glyph glyph-name="three.ss02" horiz-adv-x="1167" 
d="M1024 412q0 -180 -143 -308t-353 -127q-270 0 -456 230l104 106q154 -193 363 -192q143 0 239 80t96 209q0 128 -99 204t-267 76h-168v21l387 577h-590v148h854v-19l-393 -579q198 -18 312 -132t114 -294z" />
    <glyph glyph-name="four.ss02" horiz-adv-x="1200" 
d="M752 510v563l-441 -563h441zM1106 362h-199v-362h-155v362h-709v19l846 1089h18v-960h199v-148z" />
    <glyph glyph-name="five.ss02" horiz-adv-x="1155" 
d="M897 456q0 142 -96 230q-95 88 -219 88t-204 -52t-112 -134l-137 41l201 807h610v-148h-500l-112 -448q102 82 247 82q185 0 331 -122t146 -333t-138 -350q-140 -139 -379 -140q-141 0 -259 70t-182 168l107 102q137 -195 340 -194q152 -1 254 95t102 238z" />
    <glyph glyph-name="six.ss02" horiz-adv-x="1251" 
d="M276 453q0 -147 98 -239t241 -91q142 0 241 91q98 90 98 238t-98 239t-242 91t-240 -91q-98 -91 -98 -238zM609 -23q-214 1 -353 139t-139 343t172 452l364 525h181l-385 -541q80 35 178 35q199 0 342 -131t143 -347t-144 -346q-145 -129 -359 -129z" />
    <glyph glyph-name="seven.ss02" horiz-adv-x="999" 
d="M20 1290v146h945v-19l-566 -1417h-172l523 1290h-730z" />
    <glyph glyph-name="eight.ss02" horiz-adv-x="1163" 
d="M584 1315q-92 1 -161 -63t-69 -161t69 -157t161 -62q92 0 160 60t69 158q-1 98 -69 162t-160 63zM584 731q-132 0 -222 -88t-90 -222t89 -217t223 -83t222 83q89 83 89 217t-90 222t-221 88zM584 -23q-199 0 -333 120t-134 321q0 131 65 232q66 101 168 157
q-143 119 -143 280t110 266q111 105 267 105t266 -105t111 -266q0 -161 -144 -280q102 -55 168 -157t66 -232q0 -201 -134 -321t-333 -120z" />
    <glyph glyph-name="nine.ss02" horiz-adv-x="1251" 
d="M977 983q0 147 -99 239q-100 92 -242 91q-142 0 -240 -91q-98 -90 -99 -238q0 -148 98 -240q97 -92 241 -91q144 0 243 91q98 92 98 239zM642 1458q214 0 353 -138t139 -343t-171 -453l-365 -524h-180l385 541q-80 -35 -176 -35q-199 0 -343 131t-144 347t144 345
t358 129z" />
    <glyph glyph-name="A.ss02" 
d="M705 1141l-302 -662h603zM715 1470l674 -1470h-170l-154 330h-725l-150 -330h-167l673 1470h19z" />
    <glyph glyph-name="Aacute.ss02" 
d="M805 1786h211l-221 -211h-177zM705 1141l-302 -662h603zM715 1470l674 -1470h-170l-154 330h-725l-150 -330h-167l673 1470h19z" />
    <glyph glyph-name="Agrave.ss02" 
d="M373 1786h211l186 -211h-174zM705 1141l-302 -662h603zM715 1470l674 -1470h-170l-154 330h-725l-150 -330h-167l673 1470h19z" />
    <glyph glyph-name="Acircumflex.ss02" 
d="M606 1786h199l199 -211h-164l-133 127l-136 -127h-161zM705 1141l-302 -662h603zM715 1470l674 -1470h-170l-154 330h-725l-150 -330h-167l673 1470h19z" />
    <glyph glyph-name="Adieresis.ss02" 
d="M786 1679q0 45 30 76t75 31t76 -31t31 -76t-32 -75q-30 -30 -75 -29q-45 -1 -75 29t-30 75zM416 1679q0 45 29 76q30 31 75 31t76 -31t31 -76t-31 -75t-76 -29q-44 -1 -74 29t-30 75zM705 1141l-302 -662h603zM715 1470l674 -1470h-170l-154 330h-725l-150 -330h-167
l673 1470h19z" />
    <glyph glyph-name="Atilde.ss02" 
d="M985 1786q0 -98 -42 -154q-41 -56 -99 -57q-58 0 -99 20l-61 25q-51 20 -78 20q-57 0 -61 -65h-117q0 99 42 155t102 56t96 -19l61 -26q61 -20 76 -21q59 0 63 66h117zM705 1141l-302 -662h603zM715 1470l674 -1470h-170l-154 330h-725l-150 -330h-167l673 1470h19z" />
    <glyph glyph-name="Aring.ss02" 
d="M705 1683q-29 0 -49 -19t-21 -49q0 -30 20 -49q19 -20 49 -20t49 20t19 49q0 30 -19 49t-48 19zM705 1141l-302 -662h603zM522 1620q0 74 52 125t128 51t129 -51t53 -124t-43 -124q-44 -51 -112 -59l660 -1438h-170l-154 330h-725l-150 -330h-167l657 1436q-66 8 -112 59
t-46 125z" />
    <glyph glyph-name="AE.ss02" horiz-adv-x="1828" 
d="M705 1118l-293 -639h585zM1688 1436v-148h-902l226 -483h653v-148h-584l238 -510h369v-147h-469l-158 330h-715l-156 -330h-167l667 1436h998z" />
    <glyph glyph-name="K.ss02" horiz-adv-x="1136" 
d="M276 0h-157v1436h157v-635l578 635h203l-629 -697l662 -739h-207l-607 672v-672z" />
    <glyph glyph-name="M.ss02" horiz-adv-x="1634" 
d="M319 0h-155v1470h18l635 -999l635 999h18v-1470h-155v969l-486 -768h-18l-492 768v-969z" />
    <glyph glyph-name="N.ss02" horiz-adv-x="1458" 
d="M319 0h-155v1470h18l957 -1105v1071h157v-1471h-18l-959 1102v-1067z" />
    <glyph glyph-name="Ntilde.ss02" horiz-adv-x="1458" 
d="M1004 1786q0 -98 -42 -154t-100 -57q-58 0 -98 20l-62 25q-51 20 -77 20q-57 0 -62 -65h-117q0 99 42 155t102 56t96 -19l62 -26q61 -20 75 -21q60 0 64 66h117zM319 0h-155v1470h18l957 -1105v1071h157v-1471h-18l-959 1102v-1067z" />
    <glyph glyph-name="Q.ss02" horiz-adv-x="1667" 
d="M814 1313q-248 0 -406 -171t-158 -425t158 -424t403 -170q247 0 405 171t158 424t-156 424q-157 171 -404 171zM807 -23q-305 -1 -509 215t-204 525t205 525t509 216t512 -216t208 -523q0 -270 -164 -477l207 -205l-105 -105l-204 205q-197 -160 -455 -160z" />
    <glyph glyph-name="R.ss02" horiz-adv-x="1329" 
d="M686 1288h-367v-614h367q160 0 253 78t93 227t-93 229t-253 80zM319 528v-528h-155v1436h500q240 0 382 -124t142 -316t-106 -310q-106 -117 -291 -147l432 -539h-191l-432 528h-281z" />
    <glyph glyph-name="S.ss02" horiz-adv-x="1191" 
d="M158 1087q0 171 121 271t292 100t266 -58t164 -163l-108 -111q-59 90 -132 138t-187 49q-114 0 -188 -65q-73 -64 -73 -154q1 -90 55 -144t179 -104l162 -66q195 -78 277 -170t83 -248q0 -156 -130 -270q-130 -115 -359 -115q-319 0 -488 263l107 110q71 -113 161 -170
t232 -57q142 -1 231 67q90 68 90 170t-54 162q-54 58 -171 103l-211 84q-155 61 -237 151t-82 227z" />
    <glyph glyph-name="Scaron.ss02" horiz-adv-x="1191" 
d="M690 1575h-198l-197 211h162l135 -127l133 127h164zM158 1087q0 171 121 271t292 100t266 -58t164 -163l-108 -111q-59 90 -132 138t-187 49q-114 0 -188 -65q-73 -64 -73 -154q1 -90 55 -144t179 -104l162 -66q195 -78 277 -170t83 -248q0 -156 -130 -270
q-130 -115 -359 -115q-319 0 -488 263l107 110q71 -113 161 -170t232 -57q142 -1 231 67q90 68 90 170t-54 162q-54 58 -171 103l-211 84q-155 61 -237 151t-82 227z" />
    <glyph glyph-name="V.ss02" horiz-adv-x="1249" 
d="M627 365l407 1071h168l-567 -1471h-19l-569 1471h168z" />
    <glyph glyph-name="W.ss02" horiz-adv-x="1914" 
d="M256 1436l322 -1024l370 1058h19l370 -1058l320 1024h164l-467 -1471h-19l-379 1084l-376 -1084h-19l-467 1471h162z" />
    <glyph glyph-name="Z.ss02" horiz-adv-x="1357" 
d="M166 1436h1104v-19l-905 -1270h866v-147h-1143v18l909 1270h-831v148z" />
    <glyph glyph-name="Zcaron.ss02" horiz-adv-x="1357" 
d="M793 1575h-199l-197 211h162l135 -127l133 127h164zM166 1436h1104v-19l-905 -1270h866v-147h-1143v18l909 1270h-831v148z" />
    <glyph glyph-name="a.ss02" horiz-adv-x="1253" 
d="M942 502q0 164 -95 274t-241 109q-146 1 -240 -109t-94 -275t92 -274t239 -109q148 0 244 110q95 110 95 274zM117 502q0 221 138 374q138 152 348 152t335 -151v127h152v-1004h-152v127q-127 -150 -336 -150t-347 152t-138 373z" />
    <glyph glyph-name="aacute.ss02" horiz-adv-x="1253" 
d="M674 1436h198l-233 -269h-152zM942 502q0 164 -95 274t-241 109q-146 1 -240 -109t-94 -275t92 -274t239 -109q148 0 244 110q95 110 95 274zM117 502q0 221 138 374q138 152 348 152t335 -151v127h152v-1004h-152v127q-127 -150 -336 -150t-347 152t-138 373z" />
    <glyph glyph-name="agrave.ss02" horiz-adv-x="1253" 
d="M381 1436h199l186 -269h-152zM942 502q0 164 -95 274t-241 109q-146 1 -240 -109t-94 -275t92 -274t239 -109q148 0 244 110q95 110 95 274zM117 502q0 221 138 374q138 152 348 152t335 -151v127h152v-1004h-152v127q-127 -150 -336 -150t-347 152t-138 373z" />
    <glyph glyph-name="acircumflex.ss02" horiz-adv-x="1253" 
d="M512 1436h199l198 -269h-151l-148 168l-145 -168h-152zM942 502q0 164 -95 274t-241 109q-146 1 -240 -109t-94 -275t92 -274t239 -109q148 0 244 110q95 110 95 274zM117 502q0 221 138 374q138 152 348 152t335 -151v127h152v-1004h-152v127q-127 -150 -336 -150
t-347 152t-138 373z" />
    <glyph glyph-name="adieresis.ss02" horiz-adv-x="1253" 
d="M696 1341q0 45 30 76t75 31t76 -31t31 -76t-32 -75q-30 -30 -75 -29q-45 -1 -75 29t-30 75zM326 1341q0 45 29 76q30 31 75 31t76 -31t31 -76t-31 -75t-76 -29q-44 -1 -74 29t-30 75zM942 502q0 164 -95 274t-241 109q-146 1 -240 -109t-94 -275t92 -274t239 -109
q148 0 244 110q95 110 95 274zM117 502q0 221 138 374q138 152 348 152t335 -151v127h152v-1004h-152v127q-127 -150 -336 -150t-347 152t-138 373z" />
    <glyph glyph-name="atilde.ss02" horiz-adv-x="1253" 
d="M891 1436q0 -98 -42 -154q-41 -56 -99 -57q-58 0 -99 20l-61 25q-51 20 -78 20q-57 0 -61 -65h-117q0 98 42 154q42 57 101 57t96 -19l62 -26q61 -20 76 -21q59 0 63 66h117zM942 502q0 164 -95 274t-241 109q-146 1 -240 -109t-94 -275t92 -274t239 -109q148 0 244 110
q95 110 95 274zM117 502q0 221 138 374q138 152 348 152t335 -151v127h152v-1004h-152v127q-127 -150 -336 -150t-347 152t-138 373z" />
    <glyph glyph-name="aring.ss02" horiz-adv-x="1253" 
d="M549 1300q0 -27 17 -43t43 -16t42 16t17 43q0 27 -16 42q-16 16 -43 16q-26 0 -43 -16t-17 -42zM451 1304q0 66 45 110q46 44 112 44t112 -44t46 -112t-46 -112t-112 -45q-66 0 -112 46q-45 47 -45 113zM942 502q0 164 -95 274t-241 109q-146 1 -240 -109t-94 -275
t92 -274t239 -109q148 0 244 110q95 110 95 274zM117 502q0 221 138 374q138 152 348 152t335 -151v127h152v-1004h-152v127q-127 -150 -336 -150t-347 152t-138 373z" />
    <glyph glyph-name="k.ss02" horiz-adv-x="1019" 
d="M164 0v1436h151v-863l424 431h199l-473 -482l498 -522h-209l-439 461v-461h-151z" />
    <glyph glyph-name="v.ss02" horiz-adv-x="919" 
d="M897 1004l-428 -1039h-18l-428 1039h161l277 -685l274 685h162z" />
    <glyph glyph-name="w.ss02" horiz-adv-x="1368" 
d="M387 356l287 682h20l287 -682l205 648h160l-340 -1039h-19l-303 748l-303 -748h-19l-339 1039h159z" />
    <glyph glyph-name="z.ss02" horiz-adv-x="1034" 
d="M135 1004h799v-19l-606 -846h594v-139h-856v18l600 846h-531v140z" />
    <glyph glyph-name="zcaron.ss02" horiz-adv-x="1034" 
d="M618 1167h-198l-199 269h152l145 -168l148 168h151zM135 1004h799v-19l-606 -846h594v-139h-856v18l600 846h-531v140z" />
    <glyph glyph-name="question.ss02" horiz-adv-x="1003" 
d="M348 98q0 51 36 87t88 36t87 -35t35 -87t-36 -87t-88 -35t-87 35t-35 86zM713 1132q0 78 -65 130t-161 51q-180 0 -301 -178l-94 104q51 90 159 155t236 64q165 0 269 -92t104 -233q0 -233 -268 -340l-88 -37q-131 -55 -131 -142q1 -42 29 -72t73 -30q72 0 111 63
l102 -90q-80 -113 -215 -112q-104 1 -173 69t-69 164q0 187 236 283l84 33q86 33 124 82q38 50 38 128z" />
    <glyph glyph-name="questiondown.ss02" horiz-adv-x="1003" 
d="M301 -100q0 -80 65 -127t160 -47q180 0 301 178l95 -105q-51 -91 -159 -155q-109 -64 -257 -64t-250 88t-102 228q0 223 268 329l88 37q131 55 131 137q0 43 -29 71t-73 28q-72 0 -111 -64l-102 90q80 113 215 113q106 0 174 -67q67 -68 67 -164t-57 -162t-178 -115
l-84 -33q-162 -63 -162 -196zM666 909q0 -51 -35 -87t-87 -36t-88 35t-36 87t36 87t88 35t87 -35t35 -86z" />
    <glyph glyph-name="ampersand.ss02" horiz-adv-x="1406" 
d="M657 1313q-73 0 -117 -50t-44 -136t90 -199l28 -37l19 12q96 59 147 115t51 132q0 75 -50 119t-124 44zM545 123q147 0 301 129l39 33l-318 405l-51 -31q-109 -65 -165 -133t-56 -169q1 -101 71 -167t179 -67zM549 -23q-201 0 -305 110t-105 265q0 252 295 434l43 27
q-139 189 -139 327t93 228t233 90t232 -85q91 -85 91 -210t-62 -205t-198 -172l-22 -14l299 -383l200 170l94 -119l-198 -168l211 -272h-199l-131 164l-43 -35q-188 -152 -389 -152z" />
    <glyph glyph-name="germandbls.ss02" horiz-adv-x="1216" 
d="M506 145h147q139 0 227 71q87 71 87 193q0 121 -87 191t-227 70h-147v147h125q115 0 189 71t73 174q0 103 -82 175q-81 72 -215 72t-212 -89t-77 -243v-977h-155v977q0 217 129 348t322 131t321 -113t127 -278q0 -199 -144 -301q107 -54 161 -150t54 -208
q0 -178 -132 -292t-324 -114h-160v145z" />
    <glyph glyph-name="dollar.ss02" horiz-adv-x="1191" 
d="M158 1096q0 146 101 243q101 98 267 115v215h146v-217q203 -25 329 -215l-108 -111q-59 90 -132 138t-187 49q-114 0 -188 -65q-73 -64 -73 -154q1 -90 55 -144t179 -104l162 -66q195 -78 277 -170t83 -239q0 -147 -104 -256t-293 -131v-217h-146v213q-285 23 -434 260
l107 110q71 -113 161 -170t232 -57q142 -1 231 67q90 68 90 170t-54 162q-54 58 -171 103l-211 84q-155 61 -237 151t-82 236z" />
    <glyph glyph-name="zero.ss03" horiz-adv-x="1265" 
d="M117 719q0 297 122 509q60 106 161 168q100 62 232 62t233 -62q184 -113 253 -403q31 -129 31 -274t-31 -275q-70 -291 -253 -404q-101 -62 -232 -62t-233 62q-181 111 -253 404q-30 130 -30 275zM991 719q0 270 -93 432t-265 162t-266 -163q-95 -163 -95 -431t94 -432
t267 -164q172 0 265 163t93 433z" />
    <glyph glyph-name="one.ss03" horiz-adv-x="905" 
d="M457 0v1098h-301v108q158 8 224 54t105 176h127v-1436h-155z" />
    <glyph glyph-name="two.ss03" horiz-adv-x="1132" 
d="M993 147v-147h-876v47q0 217 84 365t295 272l106 64q121 72 180 144q60 72 60 176q0 106 -71 176t-191 69q-120 0 -195 -74q-76 -74 -90 -201h-156q17 195 143 308q126 112 302 112t296 -106t119 -287q0 -139 -77 -244q-78 -104 -246 -203l-115 -67q-266 -156 -278 -404
h710z" />
    <glyph glyph-name="three.ss03" horiz-adv-x="1185" 
d="M1063 399q0 -195 -142 -309t-341 -113q-199 0 -334 112t-154 294h154q12 -123 107 -192t233 -69t231 72q92 70 92 202t-95 196t-249 63h-129v150h105q147 0 232 72q85 71 85 189t-85 182t-201 65t-192 -61q-77 -62 -93 -162h-158q29 178 155 273t298 95t302 -101
q132 -101 132 -286q0 -117 -54 -199t-128 -122q100 -42 164 -134t65 -217z" />
    <glyph glyph-name="four.ss03" horiz-adv-x="1193" 
d="M745 510v686l-497 -686h497zM1100 362h-199v-362h-156v362h-663v136l674 938h145v-926h199v-148z" />
    <glyph glyph-name="five.ss03" horiz-adv-x="1130" 
d="M915 446q0 150 -92 234t-233 84q-90 0 -170 -46t-115 -112h-141l43 830h758v-148h-619l-29 -485q41 47 120 78t173 30q190 0 326 -123t135 -332q0 -210 -125 -344t-352 -135q-170 1 -296 103t-159 260h160q25 -100 110 -158t209 -59q124 1 211 87q86 86 86 236z" />
    <glyph glyph-name="six.ss03" horiz-adv-x="1261" 
d="M987 450q0 156 -92 244t-220 88t-219 -90t-91 -233t92 -239t220 -97q128 0 219 86t91 241zM674 -23q-240 0 -381 206t-141 543t140 535t386 197q158 0 276 -92t144 -252h-154q-29 98 -103 149q-75 50 -175 50q-166 0 -268 -166t-93 -430q57 105 157 159t212 54
q190 0 330 -131t141 -346t-143 -345t-328 -131z" />
    <glyph glyph-name="seven.ss03" horiz-adv-x="1095" 
d="M94 1288v148h930v-136q-446 -535 -506 -1218l-6 -82h-158l8 80q31 350 153 670t319 538h-740z" />
    <glyph glyph-name="eight.ss03" horiz-adv-x="1134" 
d="M567 1309q-100 0 -185 -67q-85 -66 -85 -184t77 -186q76 -68 192 -68t194 68t78 186t-86 184t-185 67zM872 390q0 120 -88 194t-218 73t-217 -73t-87 -194t89 -194t216 -73q127 0 216 73q89 74 89 194zM567 -23q-195 0 -329 114t-134 296q0 127 84 227t166 123
q-76 31 -146 115t-69 205q0 178 128 288q128 109 300 109t300 -110t128 -287q1 -121 -69 -205t-146 -115q82 -23 166 -123t84 -227q0 -182 -134 -296t-329 -114z" />
    <glyph glyph-name="nine.ss03" horiz-adv-x="1224" 
d="M585 653q128 0 220 90q92 91 92 233t-92 239t-220 97t-220 -85q-93 -86 -93 -241t92 -244t221 -89zM586 1458q244 0 381 -202t137 -538t-131 -539q-131 -202 -389 -202q-158 1 -276 93t-144 252h153q29 -98 103 -148t176 -51q174 0 265 163t93 433q-57 -105 -157 -159
t-211 -54q-188 0 -329 131q-140 131 -140 346t142 345q143 130 327 130z" />
    <glyph glyph-name="A.ss03" horiz-adv-x="1378" 
d="M688 1235l-254 -664h512zM778 1436l559 -1436h-168l-168 422h-624l-166 -422h-170l561 1436h176z" />
    <glyph glyph-name="Aacute.ss03" 
d="M758 1786h211l-221 -211h-177zM705 1235l-254 -664h512zM795 1436l559 -1436h-168l-168 422h-625l-166 -422h-170l561 1436h177z" />
    <glyph glyph-name="Agrave.ss03" 
d="M416 1786h211l186 -211h-174zM705 1235l-254 -664h512zM795 1436l559 -1436h-168l-168 422h-625l-166 -422h-170l561 1436h177z" />
    <glyph glyph-name="Acircumflex.ss03" 
d="M606 1786h199l199 -211h-164l-133 127l-136 -127h-161zM705 1235l-254 -664h512zM795 1436l559 -1436h-168l-168 422h-625l-166 -422h-170l561 1436h177z" />
    <glyph glyph-name="Adieresis.ss03" 
d="M801 1612v174h160v-174h-160zM449 1612v174h159v-174h-159zM705 1235l-254 -664h512zM795 1436l559 -1436h-168l-168 422h-625l-166 -422h-170l561 1436h177z" />
    <glyph glyph-name="Atilde.ss03" 
d="M979 1786q0 -98 -42 -154q-41 -56 -99 -57q-58 0 -99 20l-61 25q-51 20 -78 20q-57 0 -61 -65h-117q0 99 42 155t101 56t97 -19l61 -26q61 -20 76 -21q59 0 63 66h117zM705 1235l-254 -664h512zM795 1436l559 -1436h-168l-168 422h-625l-166 -422h-170l561 1436h177z" />
    <glyph glyph-name="Aring.ss03" 
d="M635 1592q0 -30 20 -49q19 -19 49 -19t49 19t19 49t-19 49t-48 19t-49 -18q-20 -20 -21 -50zM705 1235l-254 -664h512zM522 1591q0 80 52 131q52 52 128 52t129 -52t53 -143q0 -92 -93 -143h4l559 -1436h-168l-168 422h-625l-166 -422h-170l561 1434q-96 51 -96 157z" />
    <glyph glyph-name="AE.ss03" horiz-adv-x="1886" 
d="M705 1235l-254 -664h512zM1747 1436v-148h-895l188 -483h672v-148h-614l198 -510h451v-147h-561l-168 422h-625l-166 -422h-170l561 1436h1129z" />
    <glyph glyph-name="C.ss03" horiz-adv-x="1259" 
d="M692 1458q178 0 282 -59q105 -59 191 -187l-104 -110q-123 211 -349 211t-340 -171t-114 -427t112 -424t341 -168q121 0 205 53t161 162l101 -115q-98 -123 -206 -184t-285 -61t-318 106q-265 200 -266 630q-1 432 271 638q140 106 318 106z" />
    <glyph glyph-name="Ccedilla.ss03" horiz-adv-x="1239" 
d="M692 1458q178 0 282 -59q105 -59 191 -187l-104 -110q-123 211 -349 211t-340 -171t-114 -427t112 -424t341 -168q121 0 205 53t161 162l101 -115q-88 -111 -182 -170t-220 -71l-112 -263h-164l127 265q-256 32 -390 238t-135 493q0 431 272 637q140 106 318 106z" />
    <glyph glyph-name="D.ss03" horiz-adv-x="1341" 
d="M571 1286h-252v-1139h254q494 0 494 580q0 559 -496 559zM164 0v1434h389q313 0 495 -168t181 -541q0 -373 -183 -549t-493 -176h-389z" />
    <glyph glyph-name="Edieresis.ss03" horiz-adv-x="1210" 
d="M741 1612v174h160v-174h-160zM389 1612v174h160v-174h-160zM164 0v1436h940v-148h-785v-483h762v-148h-762v-510h785v-147h-940z" />
    <glyph glyph-name="G.ss03" horiz-adv-x="1423" 
d="M764 567v148h506v-715h-140v205q-63 -103 -174 -165t-243 -63q-281 0 -446 207t-165 531q0 323 180 533t453 210q330 0 508 -268l-104 -111q-145 233 -404 234q-215 0 -345 -165t-130 -433t120 -430t337 -162q182 0 287 123q104 123 114 321h-354z" />
    <glyph glyph-name="Idieresis.ss03" horiz-adv-x="483" 
d="M338 1612v174h160v-174h-160zM-14 1612v174h159v-174h-159zM164 0v1436h155v-1436h-155z" />
    <glyph glyph-name="J.ss03" horiz-adv-x="1054" 
d="M758 446v990h157v-990q1 -215 -111 -342t-318 -127t-322 128t-117 317v65h156v-65q0 -143 79 -221t199 -78q277 -1 277 323z" />
    <glyph glyph-name="M.ss03" horiz-adv-x="1681" 
d="M319 0h-155v1434h203l473 -1252l477 1252h201v-1434h-156v1120l-432 -1120h-178l-433 1120v-1120z" />
    <glyph glyph-name="O.ss03" horiz-adv-x="1433" 
d="M258 717q0 -264 118 -429t343 -165t342 165t117 429t-117 430t-342 166t-343 -166t-118 -430zM714 1458q284 0 450 -212t167 -529q0 -317 -167 -529q-166 -212 -450 -211q-284 -1 -448 211t-164 529t164 529t448 212z" />
    <glyph glyph-name="Oacute.ss03" 
d="M741 1786h211l-221 -211h-176zM248 717q0 -264 118 -429t343 -165t342 165t117 429t-117 430t-342 166t-343 -166t-118 -430zM1321 717q0 -317 -167 -529t-451 -211q-283 -1 -447 211t-164 529t164 529t448 212t450 -212q167 -212 167 -529z" />
    <glyph glyph-name="Ograve.ss03" 
d="M455 1786h211l186 -211h-174zM248 717q0 -264 118 -429t343 -165t342 165t117 429t-117 430t-342 166t-343 -166t-118 -430zM1321 717q0 -317 -167 -529t-451 -211q-283 -1 -447 211t-164 529t164 529t448 212t450 -212q167 -212 167 -529z" />
    <glyph glyph-name="Ocircumflex.ss03" 
d="M614 1786h199l199 -211h-164l-133 127l-135 -127h-162zM248 717q0 -264 118 -429t343 -165t342 165t117 429t-117 430t-342 166t-343 -166t-118 -430zM1321 717q0 -317 -167 -529t-451 -211q-283 -1 -447 211t-164 529t164 529t448 212t450 -212q167 -212 167 -529z" />
    <glyph glyph-name="Odieresis.ss03" horiz-adv-x="1433" 
d="M258 717q0 -264 118 -429t343 -165t342 165t117 429t-117 430t-342 166t-343 -166t-118 -430zM714 1458q284 0 450 -212t167 -529q0 -317 -167 -529q-166 -212 -450 -211q-284 -1 -448 211t-164 529t164 529t448 212zM811 1612v174h160v-174h-160zM459 1612v174h159v-174
h-159z" />
    <glyph glyph-name="Otilde.ss03" horiz-adv-x="1433" 
d="M989 1786q0 -98 -42 -154t-99 -57q-57 0 -98 20l-62 25q-51 20 -78 20q-57 0 -61 -65h-117q0 99 42 155t102 56t96 -19l61 -26q61 -20 76 -21q59 0 63 66h117zM258 717q0 -264 118 -429t343 -165t342 165t117 429t-117 430t-342 166t-343 -166t-118 -430zM714 1458
q284 0 450 -212t167 -529q0 -317 -167 -529q-166 -212 -450 -211q-284 -1 -448 211t-164 529t164 529t448 212z" />
    <glyph glyph-name="Q.ss03" horiz-adv-x="1433" 
d="M248 728q0 -263 118 -423t344 -160t342 160t116 423t-116 425t-342 162t-344 -162t-118 -425zM702 0q-286 0 -448 205t-162 522t164 524t448 207t450 -208q167 -208 167 -521q0 -195 -67 -351t-197 -247l274 14v-145h-629z" />
    <glyph glyph-name="R.ss03" horiz-adv-x="1286" 
d="M705 1286h-386v-534h386q153 0 233 70t80 198q0 126 -80 196t-233 70zM596 604h-277v-604h-155v1434h522q232 0 362 -102t130 -302q0 -135 -71 -230t-179 -134q86 -35 133 -100t67 -199l56 -367h-162l-43 317q-14 99 -43 159q-50 102 -192 121q-52 7 -148 7z" />
    <glyph glyph-name="Udieresis.ss03" horiz-adv-x="1368" 
d="M778 1612v174h160v-174h-160zM426 1612v174h160v-174h-160zM1071 563v873h158v-873q1 -258 -145 -422t-400 -164t-399 164t-146 422v873h158v-875q0 -190 101 -314q102 -124 286 -124t286 125q101 125 101 315z" />
    <glyph glyph-name="Ydieresis.ss03" horiz-adv-x="1183" 
d="M700 1612v174h160v-174h-160zM348 1612v174h160v-174h-160zM670 0h-156v580l-467 856h172l375 -703l371 703h172l-467 -856v-580z" />
    <glyph glyph-name="a.ss03" horiz-adv-x="1093" 
d="M268 271q0 -69 51 -111t142 -43q141 0 224 81t83 214v77l-293 -45q-95 -16 -151 -60t-56 -113zM461 -23q-160 0 -249 82t-89 211q0 262 362 316l283 39v41q0 113 -60 168t-162 55t-162 -49q-62 -49 -73 -133h-155q10 135 115 228t273 93t271 -95q104 -95 105 -263v-430
q0 -72 17 -92t69 -21l26 2v-129q-36 -6 -92 -6t-100 35t-49 96q-107 -148 -330 -148z" />
    <glyph glyph-name="aacute.ss03" horiz-adv-x="1052" 
d="M596 1436h199l-234 -269h-151zM246 271q0 -69 51 -111t141 -43q141 0 225 81q83 81 82 214v77l-292 -45q-95 -16 -151 -60t-56 -113zM438 -23q-160 0 -249 82t-89 211q0 262 363 316l282 39v41q0 113 -60 168q-59 55 -161 55t-164 -49t-71 -133h-156q9 135 115 228
t273 93t271 -95t105 -263v-430q0 -72 18 -92t72 -21h23v-127q-40 -4 -96 -4t-98 34t-48 95q-107 -148 -330 -148z" />
    <glyph glyph-name="agrave.ss03" horiz-adv-x="1052" 
d="M258 1436h199l186 -269h-151zM246 271q0 -69 51 -111t141 -43q141 0 225 81q83 81 82 214v77l-292 -45q-95 -16 -151 -60t-56 -113zM438 -23q-160 0 -249 82t-89 211q0 262 363 316l282 39v41q0 113 -60 168q-59 55 -161 55t-164 -49t-71 -133h-156q9 135 115 228t273 93
t271 -95t105 -263v-430q0 -72 18 -92t72 -21h23v-127q-40 -4 -96 -4t-98 34t-48 95q-107 -148 -330 -148z" />
    <glyph glyph-name="acircumflex.ss03" horiz-adv-x="1052" 
d="M414 1436h198l199 -269h-152l-147 168l-145 -168h-152zM246 271q0 -69 51 -111t141 -43q141 0 225 81q83 81 82 214v77l-292 -45q-95 -16 -151 -60t-56 -113zM438 -23q-160 0 -249 82t-89 211q0 262 363 316l282 39v41q0 113 -60 168q-59 55 -161 55t-164 -49t-71 -133
h-156q9 135 115 228t273 93t271 -95t105 -263v-430q0 -72 18 -92t72 -21h23v-127q-40 -4 -96 -4t-98 34t-48 95q-107 -148 -330 -148z" />
    <glyph glyph-name="adieresis.ss03" horiz-adv-x="1052" 
d="M618 1262v174h160v-174h-160zM266 1262v174h160v-174h-160zM246 271q0 -69 51 -111t141 -43q141 0 225 81q83 81 82 214v77l-292 -45q-95 -16 -151 -60t-56 -113zM438 -23q-160 0 -249 82t-89 211q0 262 363 316l282 39v41q0 113 -60 168q-59 55 -161 55t-164 -49
t-71 -133h-156q9 135 115 228t273 93t271 -95t105 -263v-430q0 -72 18 -92t72 -21h23v-127q-40 -4 -96 -4t-98 34t-48 95q-107 -148 -330 -148z" />
    <glyph glyph-name="atilde.ss03" horiz-adv-x="1052" 
d="M795 1436q0 -98 -42 -154q-41 -56 -99 -57q-58 0 -99 20l-61 25q-51 20 -78 20q-57 0 -62 -65h-116q0 98 42 154q42 57 101 57t96 -19l62 -26q61 -20 75 -21q60 0 64 66h117zM246 271q0 -69 51 -111t141 -43q141 0 225 81q83 81 82 214v77l-292 -45q-95 -16 -151 -60
t-56 -113zM438 -23q-160 0 -249 82t-89 211q0 262 363 316l282 39v41q0 113 -60 168q-59 55 -161 55t-164 -49t-71 -133h-156q9 135 115 228t273 93t271 -95t105 -263v-430q0 -72 18 -92t72 -21h23v-127q-40 -4 -96 -4t-98 34t-48 95q-107 -148 -330 -148z" />
    <glyph glyph-name="aring.ss03" horiz-adv-x="1052" 
d="M463 1300q0 -27 17 -43t43 -16t42 16t17 43q0 27 -16 42q-16 16 -43 16q-26 0 -43 -16t-17 -42zM365 1304q0 66 45 110q46 44 112 44t112 -44t46 -112t-46 -112t-112 -45q-66 0 -112 46q-45 47 -45 113zM246 271q0 -69 51 -111t141 -43q141 0 225 81q83 81 82 214v77
l-292 -45q-95 -16 -151 -60t-56 -113zM438 -23q-160 0 -249 82t-89 211q0 262 363 316l282 39v41q0 113 -60 168q-59 55 -161 55t-164 -49t-71 -133h-156q9 135 115 228t273 93t271 -95t105 -263v-430q0 -72 18 -92t72 -21h23v-127q-40 -4 -96 -4t-98 34t-48 95
q-107 -148 -330 -148z" />
    <glyph glyph-name="ae.ss03" horiz-adv-x="1781" 
d="M512 455q-131 1 -205 -49t-74 -127q-1 -77 55 -119t148 -43q131 0 224 83t94 212v43h-242zM1219 885q-125 0 -202 -82t-97 -213h591q-11 133 -89 214t-203 81zM88 270q0 160 120 240t306 80h240v76q0 100 -68 161t-167 61t-166 -49q-67 -50 -77 -132h-155q10 133 121 227
t252 94q272 0 368 -192q129 193 355 192q117 0 205 -45q157 -80 217 -282q26 -85 26 -177l-2 -69h-748q9 -158 99 -247t250 -89t274 147l107 -96q-164 -193 -394 -193q-282 1 -415 220q-135 -219 -404 -220q-160 0 -252 82t-92 211z" />
    <glyph glyph-name="edieresis.ss03" horiz-adv-x="1138" 
d="M664 1262v174h159v-174h-159zM311 1262v174h160v-174h-160zM577 885q-126 0 -202 -82t-96 -213h589q-10 133 -88 214t-203 81zM620 119q158 0 277 147l104 -96q-160 -193 -388 -193q-228 -1 -362 143t-134 374t124 382q124 153 332 152q153 0 259 -80q190 -144 190 -424
q0 -35 -2 -69h-748q10 -158 100 -247t248 -89z" />
    <glyph glyph-name="i.ss03" horiz-adv-x="585" 
d="M219 0v1004h152v-1004h-152zM215 1237v199h162v-199h-162z" />
    <glyph glyph-name="idieresis.ss03" horiz-adv-x="585" 
d="M389 1262v174h162v-174h-162zM219 0v1004h152v-1004h-152zM37 1262v174h162v-174h-162z" />
    <glyph glyph-name="j.ss03" horiz-adv-x="534" 
d="M209 1237v199h162v-199h-162zM215 -86v1090h152v-1115q0 -161 -72 -229t-221 -68l-105 5v137q68 -2 90 -2q92 0 124 42t32 140z" />
    <glyph glyph-name="odieresis.ss03" horiz-adv-x="1245" 
d="M715 1262v174h159v-174h-159zM362 1262v174h160v-174h-160zM272 502q0 -164 98 -274t252 -110q152 0 250 110t99 274q-1 164 -99 274t-250 109q-152 1 -252 -109q-98 -110 -98 -274zM117 502q0 218 144 372q143 154 359 154t362 -154t146 -372t-145 -372
q-145 -153 -361 -153t-361 153q-144 153 -144 372z" />
    <glyph glyph-name="udieresis.ss03" horiz-adv-x="1120" 
d="M629 1262v174h159v-174h-159zM276 1262v174h160v-174h-160zM268 414q0 -293 258 -293q133 0 206 101t73 284v498h151v-1004h-145v127q-117 -150 -317 -150q-377 0 -377 443v584h151v-590z" />
    <glyph glyph-name="y.ss03" horiz-adv-x="1105" 
d="M275 -248q60 0 91 22q30 22 52 74l55 140l-416 1016h170l330 -834l324 834h168l-482 -1201q-43 -111 -107 -159t-163 -47l-129 4v155q47 -4 107 -4z" />
    <glyph glyph-name="yacute.ss03" horiz-adv-x="1105" 
d="M608 1436h199l-234 -269h-151zM275 -248q60 0 91 22q30 22 52 74l55 140l-416 1016h170l330 -834l324 834h168l-482 -1201q-43 -111 -107 -159t-163 -47l-129 4v155q47 -4 107 -4z" />
    <glyph glyph-name="ydieresis.ss03" horiz-adv-x="1118" 
d="M653 1262v174h160v-174h-160zM301 1262v174h160v-174h-160zM275 -248q60 0 91 22q30 22 52 74l55 140l-416 1016h170l330 -834l324 834h168l-482 -1201q-43 -111 -107 -159t-163 -47l-129 4v155q47 -4 107 -4z" />
    <glyph glyph-name="period.ss03" horiz-adv-x="618" 
d="M211 0v211h197v-211h-197z" />
    <glyph glyph-name="colon.ss03" horiz-adv-x="618" 
d="M211 795v211h197v-211h-197zM211 0v211h197v-211h-197z" />
    <glyph glyph-name="comma.ss03" horiz-adv-x="618" 
d="M211 0v211h197v-246q0 -213 -213 -235v116q94 12 94 131v23h-78z" />
    <glyph glyph-name="semicolon.ss03" horiz-adv-x="618" 
d="M211 795v211h197v-211h-197zM211 0v211h197v-246q0 -213 -213 -235v116q94 12 94 131v23h-78z" />
    <glyph glyph-name="ellipsis.ss03" horiz-adv-x="1435" 
d="M1098 0v211h196v-211h-196zM618 0v211h197v-211h-197zM141 0v211h197v-211h-197z" />
    <glyph glyph-name="question.ss03" horiz-adv-x="1048" 
d="M360 0v211h197v-211h-197zM532 432h-155v37q0 116 57 185q33 40 55 61q23 20 74 63l74 60q137 112 137 230t-82 181t-193 63t-193 -62q-82 -64 -95 -183h-154q17 187 147 289t303 102t299 -105t126 -283t-166 -316l-94 -76q-80 -68 -110 -112t-30 -120v-14z" />
    <glyph glyph-name="questiondown.ss03" horiz-adv-x="1048" 
d="M688 1004v-209h-199v209h199zM672 571v-36q0 -77 -16 -107t-20 -42t-20 -28q-16 -18 -21 -25t-25 -25t-26 -22l-30 -24t-29 -24l-73 -60q-72 -59 -106 -106t-34 -117q0 -107 79 -167t191 -60t196 58t100 175h151q-16 -189 -144 -285t-303 -96t-300 102t-125 271
q0 170 166 309l94 76q2 2 5 4t7 6t40 34q35 30 61 68t26 107v14h156z" />
    <glyph glyph-name="exclam.ss03" horiz-adv-x="595" 
d="M197 0v211h198v-211h-198zM215 432v1004h156v-1004h-156z" />
    <glyph glyph-name="exclamdown.ss03" horiz-adv-x="667" 
d="M197 795v209h198v-209h-198zM215 -397v968h156v-968h-156z" />
    <glyph glyph-name="quotedblright.ss03" horiz-adv-x="817" 
d="M479 1225v211h199v-246q0 -213 -215 -236v117q94 14 94 131v23h-78zM139 1225v211h199v-246q0 -213 -215 -236v117q96 14 96 131v23h-80z" />
    <glyph glyph-name="quotedblleft.ss03" horiz-adv-x="817" 
d="M338 1178v-211h-199v245q0 213 215 236v-117q-94 -14 -94 -131v-22h78zM678 1178v-211h-199v245q0 213 215 236v-117q-96 -14 -96 -131v-22h80z" />
    <glyph glyph-name="quoteleft.ss03" horiz-adv-x="479" 
d="M338 1178v-211h-199v245q0 213 215 236v-117q-94 -14 -94 -131v-22h78z" />
    <glyph glyph-name="quoteright.ss03" horiz-adv-x="479" 
d="M141 1225v211h199v-246q0 -213 -215 -236v117q94 14 94 131v23h-78z" />
    <glyph glyph-name="quotesinglbase.ss03" horiz-adv-x="479" 
d="M139 0v211h199v-246q0 -213 -215 -235v116q96 12 96 131v23h-80z" />
    <glyph glyph-name="quotedblbase.ss03" horiz-adv-x="817" 
d="M479 0v211h199v-246q0 -213 -215 -235v116q94 12 94 131v23h-78zM139 0v211h199v-246q0 -213 -215 -235v116q96 12 96 131v23h-80z" />
    <glyph glyph-name="dieresis.ss03" horiz-adv-x="1138" 
d="M664 1262v174h159v-174h-159zM311 1262v174h160v-174h-160z" />
    <glyph glyph-name="arrowsouth" horiz-adv-x="1466" 
d="M655 1436h156v-1176l459 459l102 -103l-639 -639l-639 639l103 103l458 -459v1176z" />
    </font>
</defs>
</svg>
