<?xml version="1.0" standalone="no"?>
<!DOCTYPE svg PUBLIC "-//W3C//DTD SVG 1.1//EN" "http://www.w3.org/Graphics/SVG/1.1/DTD/svg11.dtd" >
<svg xmlns="http://www.w3.org/2000/svg">
<metadata>
Created by FontPrep 20130207 at Tue Feb 16 10:49:26 2016
 By marco barria
Copyright (c) 2012 by 205 Corp. All rights reserved.
</metadata>
<defs>
<font id="35e260cdab8fc0520542573e2b971ff7" horiz-adv-x='1024' >
  <font-face 
    font-family="Maax-Bold"
    font-weight="700"
    font-stretch="normal"
    units-per-em="2048"
    panose-1="2 0 5 3 0 0 0 2 0 3"
    ascent="1536"
    descent="-512"
    x-height="1004"
    cap-height="1436"
    bbox="-80 -451.01 3807 1821.02"
    underline-thickness="151"
    underline-position="-115"
    unicode-range="U+0020-FB02"
  />
<missing-glyph horiz-adv-x="3969" 
d="M3269 -23q105 -1 169 59t64 149t-60 151t-144 63q-172 0 -224 -133h-281l35 854h865v-280h-580l-12 -238q100 63 227 64q199 0 339 -127t140 -349t-153 -358q-154 -135 -404 -135q-152 0 -280 62t-203 167l217 213q119 -162 285 -162zM1962 864q-131 0 -217 -85t-86 -218
t86 -219t217 -86t217 86t86 219t-86 218t-217 85zM1962 -23q-246 0 -426 162t-180 422t180 422t426 162t426 -162t180 -422t-180 -422t-426 -162zM1139 281v-281h-953v139q0 179 102 315t310 197l119 35q123 37 123 98q0 35 -34 58q-34 22 -112 22t-164 -50
q-88 -50 -141 -126l-190 191q78 123 207 195t302 71q173 0 306 -96t133 -263q0 -137 -89 -222t-270 -140l-124 -37q-126 -34 -138 -106h613z" />
    <glyph glyph-name="arrowwest" unicode="&#x3c;&#x2d;" horiz-adv-x="1669" 
d="M1565 733v-280h-947l312 -299l-185 -201l-641 641l641 639l185 -186l-318 -314h953z" />
    <glyph glyph-name="arrownorth" unicode="&#x2d;^" horiz-adv-x="1488" 
d="M885 0h-281v944l-299 -309l-201 184l641 639l639 -639l-186 -184l-313 313v-948z" />
    <glyph glyph-name="arroweast" unicode="&#x2d;&#x3e;" horiz-adv-x="1669" 
d="M82 453v280h952l-317 314l184 186l641 -639l-641 -641l-184 201l311 299h-946z" />
    <glyph glyph-name="arrowwest2" unicode="&#x3c;&#x2d;&#x2d;" horiz-adv-x="2275" 
d="M2171 733v-280h-1553l312 -299l-185 -201l-641 641l641 639l185 -186l-318 -314h1559z" />
    <glyph glyph-name="arrowwest3" unicode="&#x3c;&#x2d;&#x2d;&#x2d;" horiz-adv-x="2859" 
d="M2755 733v-280h-2137l312 -299l-185 -201l-641 641l641 639l185 -186l-318 -314h2143z" />
    <glyph glyph-name="arroweast2" unicode="&#x2d;&#x2d;&#x3e;" horiz-adv-x="2275" 
d="M82 453v280h1558l-317 314l184 186l641 -639l-641 -641l-184 201l311 299h-1552z" />
    <glyph glyph-name="arroweast3" unicode="&#x2d;&#x2d;&#x2d;&#x3e;" horiz-adv-x="2859" 
d="M82 453v280h2142l-317 314l184 186l641 -639l-641 -641l-184 201l311 299h-2136z" />
    <glyph glyph-name=".notdef" horiz-adv-x="3969" 
d="M3269 -23q105 -1 169 59t64 149t-60 151t-144 63q-172 0 -224 -133h-281l35 854h865v-280h-580l-12 -238q100 63 227 64q199 0 339 -127t140 -349t-153 -358q-154 -135 -404 -135q-152 0 -280 62t-203 167l217 213q119 -162 285 -162zM1962 864q-131 0 -217 -85t-86 -218
t86 -219t217 -86t217 86t86 219t-86 218t-217 85zM1962 -23q-246 0 -426 162t-180 422t180 422t426 162t426 -162t180 -422t-180 -422t-426 -162zM1139 281v-281h-953v139q0 179 102 315t310 197l119 35q123 37 123 98q0 35 -34 58q-34 22 -112 22t-164 -50
q-88 -50 -141 -126l-190 191q78 123 207 195t302 71q173 0 306 -96t133 -263q0 -137 -89 -222t-270 -140l-124 -37q-126 -34 -138 -106h613z" />
    <glyph glyph-name=".null" horiz-adv-x="0" 
 />
    <glyph glyph-name="nonmarkingreturn" horiz-adv-x="681" 
 />
    <glyph glyph-name="space" unicode=" " horiz-adv-x="571" 
 />
    <glyph glyph-name="exclam" unicode="!" horiz-adv-x="679" 
d="M164 160q0 74 50 125t124 51t126 -52t52 -125t-52 -124t-126 -51t-124 51t-50 125zM188 463v973h301v-973h-301z" />
    <glyph glyph-name="quotedbl" unicode="&#x22;" horiz-adv-x="980" 
d="M571 1436h291v-572h-291v572zM117 1436h291v-572h-291v572z" />
    <glyph glyph-name="numbersign" unicode="#" horiz-adv-x="1785" 
d="M784 844l-71 -248h291l73 248h-293zM129 596h293l74 248h-260v270h333l95 322h288l-92 -322h291l90 322h293l-94 -322h217v-270h-291l-72 -248h256v-274h-331l-91 -322h-292l94 322h-293l-92 -322h-291l94 322h-219v274z" />
    <glyph glyph-name="dollar" unicode="$" horiz-adv-x="1366" 
d="M430 1038q0 -98 141 -137v273q-65 -14 -103 -50t-38 -86zM956 412q0 102 -157 141v-289q73 14 115 54t42 94zM571 -233v219q-151 20 -275 93t-204 173l209 211q109 -143 270 -189v320q-207 38 -325 146t-119 285q0 177 127 291t317 136v217h228v-223q246 -45 411 -217
l-204 -215q-92 96 -207 137v-291q461 -84 461 -444q0 -174 -124 -291t-337 -141v-217h-228z" />
    <glyph glyph-name="percent" unicode="%" horiz-adv-x="1722" 
d="M264 0l883 1436h311l-880 -1436h-314zM1221 286q1 -42 27 -67t61 -25t61 26t25 67q0 41 -26 67q-27 26 -61 25q-34 1 -60 -25t-27 -68zM999 287q1 131 91 220t220 89t219 -90t89 -220t-89 -219t-219 -89t-220 88q-90 90 -91 221zM328 1149q0 -41 26 -67t60 -26t60 28
q26 26 26 66t-26 66t-60 25q-34 1 -60 -25t-26 -67zM415 840q-131 0 -221 90t-90 220t90 219t221 89q130 0 219 -89t89 -219t-89 -220t-219 -90z" />
    <glyph glyph-name="ampersand" unicode="&#x26;" 
d="M745 1100q-1 38 -27 62t-68 24t-68 -27t-27 -75q0 -48 68 -128l22 13q100 55 100 131zM389 422q-1 -72 55 -123t150 -51t170 59l-229 303l-11 -6q-135 -70 -135 -182zM564 -23q-222 0 -346 127t-124 304q0 137 70 243t190 168l15 8q-117 152 -117 295t110 240
q111 96 284 96t284 -100t110 -244q0 -112 -54 -190t-171 -156l-29 -20l170 -209q47 96 74 209h305q-51 -268 -194 -459l225 -289h-350l-76 88q-154 -111 -376 -111z" />
    <glyph glyph-name="quotesingle" unicode="'" horiz-adv-x="524" 
d="M117 1436h291v-572h-291v572z" />
    <glyph glyph-name="parenleft" unicode="(" horiz-adv-x="798" 
d="M408 533q0 -456 331 -773l-188 -180q-193 170 -313 415q-121 245 -121 537t120 537q120 244 314 416l188 -180q-331 -316 -331 -772z" />
    <glyph glyph-name="parenright" unicode=")" horiz-adv-x="798" 
d="M367 533q0 456 -332 772l188 180q193 -170 314 -415t121 -538q0 -292 -120 -536t-315 -416l-188 180q332 317 332 773z" />
    <glyph glyph-name="asterisk" unicode="*" horiz-adv-x="985" 
d="M670 1147l149 -180l-190 -148l-135 195l-134 -195l-192 152l147 176l-221 53l56 219l229 -61l-8 229h241l-8 -229l230 61l57 -219z" />
    <glyph glyph-name="plus" unicode="+" horiz-adv-x="1306" 
d="M152 369v270h364v365h270v-365h369v-270h-369v-369h-270v369h-364z" />
    <glyph glyph-name="comma" unicode="," horiz-adv-x="634" 
d="M283 -283h-271l199 529h319z" />
    <glyph glyph-name="hyphen" unicode="-" horiz-adv-x="1028" 
d="M129 406v262h770v-262h-770z" />
    <glyph glyph-name="period" unicode="." horiz-adv-x="679" 
d="M164 156q0 74 50 125t124 51t126 -51t52 -125t-52 -125t-126 -51t-124 51t-50 125z" />
    <glyph glyph-name="slash" unicode="/" horiz-adv-x="1124" 
d="M162 0l604 1436h301l-600 -1436h-305z" />
    <glyph glyph-name="zero" unicode="0" horiz-adv-x="1327" 
d="M94 719q0 331 152 535t418 204t418 -205t151 -535q0 -330 -152 -536q-151 -205 -417 -205t-418 205t-152 537zM930 719q0 215 -69 338t-197 123t-198 -123q-69 -123 -69 -338t69 -339t198 -124q130 0 198 124t68 339z" />
    <glyph glyph-name="one" unicode="1" horiz-adv-x="1167" 
d="M117 281h350v776q-135 -90 -350 -90v272q123 6 227 53t152 144h274v-1155h338v-281h-991v281z" />
    <glyph glyph-name="two" unicode="2" horiz-adv-x="1265" 
d="M1130 281v-281h-1026v47q0 262 104 433t365 302l80 39q107 53 143 103t36 110t-54 103q-53 43 -145 43q-217 0 -332 -230l-197 197q66 137 206 224t330 87t344 -112q153 -112 153 -314q0 -158 -87 -263t-255 -191l-125 -64q-100 -51 -152 -102t-65 -131h677z" />
    <glyph glyph-name="three" unicode="3" horiz-adv-x="1214" 
d="M557 -23q-152 -1 -289 63t-221 167l205 207q125 -158 317 -158q100 0 163 43q62 43 63 121q0 168 -273 168h-119v282h97q258 0 258 162q0 64 -51 106t-138 42q-178 0 -288 -140l-199 199q195 219 479 219q209 0 355 -100t146 -301t-159 -307q82 -41 138 -129t57 -209
q0 -205 -154 -320t-387 -115z" />
    <glyph glyph-name="four" unicode="4" horiz-adv-x="1286" 
d="M702 571v482l-329 -482h329zM1204 303h-198v-303h-304v303h-645v250l615 883h334v-865h198v-268z" />
    <glyph glyph-name="five" unicode="5" horiz-adv-x="1271" 
d="M864 468q0 95 -66 159q-67 63 -169 63q-160 0 -217 -137h-281l35 883h887v-281h-602l-13 -264q98 66 240 65q199 0 344 -130t145 -350q-1 -220 -159 -359t-408 -140q-156 1 -288 63t-208 165l218 215q123 -164 301 -164q102 0 172 58q69 59 69 154z" />
    <glyph glyph-name="six" unicode="6" horiz-adv-x="1306" 
d="M899 470q0 92 -61 152q-62 60 -154 60t-154 -59t-61 -153q0 -94 61 -154q62 -60 154 -60t154 60q61 61 61 154zM682 -23q-268 0 -423 202t-155 542t165 539t448 198q131 0 250 -54t194 -140l-196 -203q-98 119 -260 119q-129 0 -219 -100t-93 -259q115 131 316 131
t347 -135t146 -353t-152 -352t-368 -135z" />
    <glyph glyph-name="seven" unicode="7" horiz-adv-x="1177" 
d="M70 938v498h1048v-265q-428 -444 -483 -1089l-6 -82h-310l9 80q53 627 422 1075h-385v-217h-295z" />
    <glyph glyph-name="eight" unicode="8" horiz-adv-x="1273" 
d="M420 428q0 -80 60 -126t158 -46t157 46t59 126t-59 127t-157 47t-158 -47t-60 -127zM819 1024q0 72 -53 114t-128 42t-129 -42t-54 -114t54 -114t129 -42t128 42t53 114zM637 -23q-227 0 -374 118q-146 118 -146 317q0 114 51 198t129 129q-145 119 -145 299t138 300
t347 120t347 -121t138 -300t-143 -298q76 -45 127 -130t51 -197q-1 -199 -147 -317t-373 -118z" />
    <glyph glyph-name="nine" unicode="9" horiz-adv-x="1296" 
d="M397 967q1 -93 61 -153t153 -60t155 59q61 59 61 153t-61 154q-60 60 -154 60t-154 -60t-61 -153zM614 1458q268 0 422 -202t154 -542t-165 -538q-165 -199 -445 -199q-131 1 -250 55t-195 140l197 205q94 -121 258 -121q129 0 220 99t93 259q-115 -131 -315 -131
t-347 135q-147 136 -147 354t152 352t368 134z" />
    <glyph glyph-name="colon" unicode=":" horiz-adv-x="679" 
d="M164 842q0 74 50 125t124 51t126 -51t52 -125t-52 -125t-126 -51t-124 51t-50 125zM164 156q0 74 50 125t124 51t126 -51t52 -125t-52 -125t-126 -51t-124 51t-50 125z" />
    <glyph glyph-name="semicolon" unicode=";" horiz-adv-x="684" 
d="M291 -283h-271l199 529h320zM190 850q0 74 52 126t125 52q74 0 126 -52t52 -126t-52 -125t-126 -51q-73 0 -125 51t-52 125z" />
    <glyph glyph-name="less" unicode="&#x3c;" horiz-adv-x="1286" 
d="M104 350v303l1031 375v-307l-656 -219l656 -219v-306z" />
    <glyph glyph-name="equal" unicode="=" horiz-adv-x="1331" 
d="M152 182v262h1028v-262h-1028zM152 631v260h1028v-260h-1028z" />
    <glyph glyph-name="greater" unicode="&#x3e;" horiz-adv-x="1286" 
d="M1159 653v-303l-1030 -373v306l655 219l-655 219v307z" />
    <glyph glyph-name="question" unicode="?" horiz-adv-x="1130" 
d="M490 -16q-73 0 -124 51t-51 124q-1 73 51 125t124 52t125 -52t53 -125t-52 -124t-126 -51zM637 463h-299v368h96q119 -1 198 53t79 131q-1 77 -55 120t-138 43q-182 0 -291 -166l-192 205q76 113 203 177t278 64q209 0 353 -123q145 -123 145 -301t-104 -296t-273 -152
v-123z" />
    <glyph glyph-name="at" unicode="@" horiz-adv-x="2181" 
d="M848 498q0 -106 58 -184t162 -78t164 77q58 79 58 185t-58 182t-162 76t-164 -76q-58 -76 -58 -182zM1036 -23q-202 -1 -344 145t-141 376q0 230 137 381q137 150 352 149q160 0 258 -92v68h281v-658q0 -68 17 -102t69 -33q70 0 125 97t55 233q0 313 -189 505
q-188 192 -530 191q-342 0 -561 -198q-219 -199 -219 -531t221 -519t582 -188q193 0 395 54v-217q-188 -57 -407 -58q-465 0 -749 250t-284 682t287 689t725 257t704 -244t267 -649q0 -250 -136 -419t-339 -169q-166 0 -244 121q-130 -121 -332 -121z" />
    <glyph glyph-name="A" unicode="A" horiz-adv-x="1458" 
d="M729 1022l-178 -469h356zM874 1436l562 -1436h-316l-114 283h-555l-113 -283h-315l561 1436h290z" />
    <glyph glyph-name="B" unicode="B" horiz-adv-x="1406" 
d="M723 1155h-279v-295h291q238 0 238 148q-1 82 -59 114t-191 33zM444 281h306q126 -1 192 37t66 128q0 158 -250 158h-314v-323zM139 0v1436h645q224 0 360 -102t136 -288q0 -184 -147 -298q182 -128 182 -322t-136 -310t-360 -116h-680z" />
    <glyph glyph-name="C" unicode="C" horiz-adv-x="1497" 
d="M82 717q0 333 215 537t552 204t556 -270l-205 -209q-62 90 -162 142t-219 53q-168 0 -296 -122t-128 -333t127 -334t314 -123q242 0 389 201l202 -215q-221 -270 -567 -270t-562 202q-216 203 -216 537z" />
    <glyph glyph-name="D" unicode="D" horiz-adv-x="1495" 
d="M565 1155h-121v-874h123q537 0 537 446q0 428 -539 428zM139 0v1436h473q311 0 544 -158q118 -80 188 -222t69 -330q0 -188 -70 -332q-71 -144 -187 -227q-234 -167 -544 -167h-473z" />
    <glyph glyph-name="E" unicode="E" horiz-adv-x="1327" 
d="M139 0v1436h1059v-281h-754v-285h719v-276h-719v-313h754v-281h-1059z" />
    <glyph glyph-name="F" unicode="F" horiz-adv-x="1210" 
d="M444 0h-305v1436h989v-281h-684v-311h637v-279h-637v-565z" />
    <glyph glyph-name="G" unicode="G" horiz-adv-x="1544" 
d="M844 518v281h583v-576q-104 -109 -259 -177t-337 -69q-317 0 -533 207t-216 537q0 329 215 533t552 204t556 -270l-205 -209q-62 90 -162 142t-219 53q-168 0 -296 -122t-128 -330t127 -334q128 -126 308 -126t298 86v170h-284z" />
    <glyph glyph-name="H" unicode="H" horiz-adv-x="1488" 
d="M1047 0v594h-603v-594h-305v1436h305v-564h603v564h303v-1436h-303z" />
    <glyph glyph-name="I" unicode="I" horiz-adv-x="606" 
d="M152 0v1436h303v-1436h-303z" />
    <glyph glyph-name="J" unicode="J" horiz-adv-x="1036" 
d="M420 256q92 0 144 59t52 166v955h304v-942q0 -250 -129 -383t-363 -134q-283 1 -416 224l205 202q76 -147 203 -147z" />
    <glyph glyph-name="K" unicode="K" horiz-adv-x="1363" 
d="M139 0v1436h305v-586l463 586h363l-492 -615l539 -821h-350l-383 586l-140 -178v-408h-305z" />
    <glyph glyph-name="L" unicode="L" horiz-adv-x="1157" 
d="M139 0v1436h305v-1155h656v-281h-961z" />
    <glyph glyph-name="M" unicode="M" horiz-adv-x="1703" 
d="M444 0h-305v1436h305l408 -805l410 805h303v-1436h-303v815l-275 -524h-270l-273 524v-815z" />
    <glyph glyph-name="N" unicode="N" horiz-adv-x="1529" 
d="M444 0h-305v1436h367l579 -973v973h304v-1436h-365l-580 969v-969z" />
    <glyph glyph-name="O" unicode="O" horiz-adv-x="1644" 
d="M822 1171q-192 0 -310 -131q-118 -130 -117 -322q0 -192 117 -323q118 -131 314 -131t312 131t116 321t-120 323q-120 132 -312 132zM82 718q0 320 213 530t525 210t528 -210t215 -530q0 -320 -215 -531q-216 -210 -528 -210t-525 210q-213 211 -213 531z" />
    <glyph glyph-name="P" unicode="P" horiz-adv-x="1339" 
d="M668 1155h-224v-420h224q311 0 311 213q-1 109 -77 158t-234 49zM721 455h-277v-455h-305v1436h582q253 0 407 -130t154 -352t-156 -361q-156 -138 -405 -138z" />
    <glyph glyph-name="Q" unicode="Q" horiz-adv-x="1679" 
d="M1253 719q0 188 -119 320q-120 132 -312 132t-310 -131q-118 -130 -117 -322q0 -192 117 -323t315 -131q115 0 197 43l-174 176l194 195l166 -168q43 96 43 209zM82 718q0 320 213 530t525 210t528 -210t215 -529q0 -240 -131 -430l153 -154l-194 -192l-156 153
q-186 -119 -416 -119q-311 0 -524 210q-213 211 -213 531z" />
    <glyph glyph-name="R" unicode="R" horiz-adv-x="1386" 
d="M680 1155h-236v-416h236q299 0 299 211q-1 104 -73 154t-226 51zM444 461v-461h-305v1436h594q241 0 395 -125t154 -344q0 -152 -77 -270t-206 -179l318 -518h-346l-283 461h-244z" />
    <glyph glyph-name="S" unicode="S" horiz-adv-x="1318" 
d="M104 1034q0 188 157 306t374 118q336 0 553 -229l-205 -215q-162 166 -365 166q-96 0 -153 -39t-57 -103q0 -115 204 -151l142 -23q483 -78 483 -448q0 -197 -157 -318t-414 -121q-188 0 -344 77t-252 198l209 211q160 -207 405 -207q118 0 184 44t66 112q0 114 -201 151
l-176 31q-211 36 -332 144t-121 296z" />
    <glyph glyph-name="T" unicode="T" horiz-adv-x="1241" 
d="M57 1436h1127v-281h-412v-1155h-303v1155h-412v281z" />
    <glyph glyph-name="U" unicode="U" horiz-adv-x="1437" 
d="M1018 627v809h303v-799q0 -322 -160 -491q-161 -169 -443 -169t-442 169t-159 491v799h303v-813q0 -163 76 -265t223 -102q299 0 299 371z" />
    <glyph glyph-name="V" unicode="V" horiz-adv-x="1320" 
d="M664 395l335 1041h312l-492 -1436h-315l-492 1436h310z" />
    <glyph glyph-name="W" unicode="W" horiz-adv-x="1951" 
d="M360 1436l222 -920l231 920h326l231 -920l221 920h326l-383 -1436h-311l-246 948l-248 -948h-311l-383 1436h325z" />
    <glyph glyph-name="X" unicode="X" horiz-adv-x="1402" 
d="M430 1436l270 -455l273 455h356l-446 -701l473 -735h-355l-301 483l-299 -483h-354l473 735l-446 701h356z" />
    <glyph glyph-name="Y" unicode="Y" horiz-adv-x="1280" 
d="M788 0h-301v502l-475 934h332l295 -605l297 605h332l-480 -934v-502z" />
    <glyph glyph-name="Z" unicode="Z" horiz-adv-x="1341" 
d="M111 1436h1103v-269l-725 -886h748v-281h-1133v268l725 887h-718v281z" />
    <glyph glyph-name="bracketleft" unicode="[" horiz-adv-x="768" 
d="M139 -397v1833h572v-267h-281v-1300h281v-266h-572z" />
    <glyph glyph-name="backslash" unicode="\" horiz-adv-x="1114" 
d="M324 1436l604 -1436h-305l-600 1436h301z" />
    <glyph glyph-name="bracketright" unicode="]" horiz-adv-x="768" 
d="M606 1436v-1833h-571v266h280v1300h-280v267h571z" />
    <glyph glyph-name="asciicircum" unicode="^" horiz-adv-x="1366" 
d="M817 1436l445 -748h-312l-268 453l-268 -453h-310l443 748h270z" />
    <glyph glyph-name="underscore" unicode="_" horiz-adv-x="1261" 
d="M104 -397v262h1051v-262h-1051z" />
    <glyph glyph-name="grave" unicode="`" horiz-adv-x="1138" 
d="M248 1436h368l152 -291h-274z" />
    <glyph glyph-name="a" unicode="a" horiz-adv-x="1077" 
d="M362 317q0 -43 35 -69t90 -25q98 0 181 62v114q-183 42 -262 -10q-44 -29 -44 -72zM415 -23q-157 -1 -251 89t-94 238t114 232q115 83 283 82q102 0 201 -28v16q0 72 -45 118t-123 46q-137 0 -215 -117l-185 176q166 199 420 199q190 0 316 -107q125 -108 125 -294v-627
h-289v66q-100 -89 -257 -89z" />
    <glyph glyph-name="b" unicode="b" horiz-adv-x="1251" 
d="M416 502q0 -115 66 -189q66 -73 167 -73q100 0 167 74t67 188t-67 188t-167 74q-101 0 -167 -74t-66 -188zM678 1028q214 0 358 -146t144 -382t-144 -379t-358 -144q-164 0 -262 95v-72h-287v1436h291v-496q100 88 258 88z" />
    <glyph glyph-name="c" unicode="c" horiz-adv-x="1099" 
d="M600 -23q-227 0 -379 150t-151 375q0 225 152 376q154 150 386 150t412 -201l-197 -190q-97 117 -207 117t-180 -71t-70 -181t70 -182q70 -70 174 -70q132 0 234 131l196 -191q-162 -213 -440 -213z" />
    <glyph glyph-name="d" unicode="d" horiz-adv-x="1249" 
d="M834 502q0 114 -67 188t-167 74t-167 -74t-67 -188t68 -189q66 -73 166 -73t167 74t67 188zM70 500q0 236 144 382t357 146q158 0 258 -88v496h291v-1436h-286v72q-98 -94 -263 -95q-213 -1 -357 143t-144 380z" />
    <glyph glyph-name="e" unicode="e" horiz-adv-x="1120" 
d="M568 772q-75 0 -124 -42t-63 -107h360q-4 63 -51 106t-122 43zM592 244q154 0 246 116l192 -180q-162 -203 -430 -203q-229 1 -379 143q-149 142 -149 374t138 383t361 151t351 -154t127 -360l-2 -86h-680q12 -82 71 -133t154 -51z" />
    <glyph glyph-name="f" unicode="f" horiz-adv-x="743" 
d="M696 1161h-49q-96 0 -138 -35t-42 -110v-12h221v-269h-221v-735h-289v735h-131v269h131v28q0 202 120 304t323 102l75 -2v-275z" />
    <glyph glyph-name="g" unicode="g" horiz-adv-x="1224" 
d="M811 525q0 105 -65 172q-66 67 -158 67t-157 -67t-65 -172t66 -172q64 -67 157 -67t157 68q64 66 65 171zM805 72v26q-86 -76 -244 -75q-215 0 -353 135t-138 367q0 231 143 367t348 136q145 0 250 -96v72h287v-900q0 -233 -144 -378t-399 -146q-295 0 -457 203l203 194
q90 -129 252 -129q115 0 183 62t69 162z" />
    <glyph glyph-name="h" unicode="h" horiz-adv-x="1167" 
d="M420 502v-502h-291v1436h291v-490q90 82 233 82q186 0 298 -117t112 -327v-584h-293v561q0 86 -41 141t-125 56q-184 0 -184 -256z" />
    <glyph glyph-name="i" unicode="i" horiz-adv-x="571" 
d="M117 1289q0 71 49 120t120 49t120 -49t49 -120q-1 -71 -51 -120t-120 -49t-118 49q-49 49 -49 120zM139 0v1004h293v-1004h-293z" />
    <glyph glyph-name="j" unicode="j" horiz-adv-x="581" 
d="M150 -14v1018h290v-1053q0 -358 -352 -359l-135 5v266h63q68 -1 101 25t33 98zM127 1289q0 71 49 120t119 49t120 -50t50 -120t-50 -119t-120 -49t-119 49t-49 120z" />
    <glyph glyph-name="k" unicode="k" horiz-adv-x="1116" 
d="M129 0v1436h291v-750l278 318h367l-371 -414l387 -590h-354l-240 381l-67 -74v-307h-291z" />
    <glyph glyph-name="l" unicode="l" horiz-adv-x="548" 
d="M129 0v1436h291v-1436h-291z" />
    <glyph glyph-name="m" unicode="m" horiz-adv-x="1763" 
d="M420 514v-514h-291v1004h287v-70q98 94 256 94t264 -121q122 121 312 121t300 -116t109 -328v-584h-291v571q0 83 -39 135t-118 52t-125 -60t-46 -163v-535h-290v571q0 83 -39 135t-120 52t-125 -64t-44 -180z" />
    <glyph glyph-name="n" unicode="n" horiz-adv-x="1167" 
d="M420 502v-502h-291v1004h287v-70q98 94 237 94q186 0 298 -117t112 -327v-584h-293v561q0 86 -41 141t-125 56q-184 0 -184 -256z" />
    <glyph glyph-name="o" unicode="o" horiz-adv-x="1204" 
d="M369 502q-1 -111 65 -183q66 -71 168 -71t168 72t66 182t-66 182t-168 72t-168 -72t-65 -182zM72 502q0 225 152 376q153 150 378 150t378 -150t153 -376q0 -225 -152 -375t-379 -150t-379 150q-151 150 -151 375z" />
    <glyph glyph-name="p" unicode="p" horiz-adv-x="1249" 
d="M416 502q0 -115 66 -189q66 -73 167 -73q100 0 167 74t67 188t-67 188t-167 74q-101 0 -167 -74t-66 -188zM678 1028q214 0 358 -144t144 -380t-144 -380q-144 -146 -358 -147q-160 0 -258 86v-460h-291v1401h287v-72q100 96 262 96z" />
    <glyph glyph-name="q" unicode="q" horiz-adv-x="1249" 
d="M834 502q0 114 -67 188t-167 74t-167 -74t-67 -188t68 -189q66 -73 166 -73t167 74t67 188zM70 504q0 236 144 380t357 144q162 0 263 -96v72h286v-1401h-291v460q-98 -86 -258 -86q-213 0 -357 146q-144 145 -144 381z" />
    <glyph glyph-name="r" unicode="r" horiz-adv-x="788" 
d="M743 735h-45q-126 0 -202 -81t-76 -234v-420h-291v1004h287v-91q88 104 250 105q48 0 77 -2v-281z" />
    <glyph glyph-name="s" unicode="s" horiz-adv-x="999" 
d="M96 711q0 143 114 230t275 87q227 0 404 -158l-178 -188q-119 98 -238 98q-43 0 -69 -17t-25 -42q0 -37 72 -53l149 -35q330 -78 330 -332q0 -143 -114 -233t-306 -91q-139 -1 -258 57t-182 138l178 182q135 -133 287 -133q45 1 79 19t33 47q0 40 -90 63l-133 33
q-328 82 -328 328z" />
    <glyph glyph-name="t" unicode="t" horiz-adv-x="770" 
d="M516 -4q-350 0 -350 358v381h-131v269h131v280h289v-280h223v-269h-223v-346q1 -71 33 -97t100 -26h86v-266q-78 -4 -158 -4z" />
    <glyph glyph-name="u" unicode="u" horiz-adv-x="1144" 
d="M723 489v515h293v-1004h-287v70q-90 -92 -258 -92t-267 115q-99 116 -100 327v584h293v-572q0 -84 39 -135t115 -51q172 -1 172 243z" />
    <glyph glyph-name="v" unicode="v" horiz-adv-x="1036" 
d="M1024 1004l-356 -1004h-299l-357 1004h310l196 -621l197 621h309z" />
    <glyph glyph-name="w" unicode="w" horiz-adv-x="1605" 
d="M965 1004l165 -601l142 601h311l-283 -1004h-317l-180 618l-180 -618h-318l-282 1004h311l143 -601l164 601h324z" />
    <glyph glyph-name="x" unicode="x" horiz-adv-x="1073" 
d="M385 1004l152 -256l151 256h328l-316 -488l338 -516h-325l-176 285l-175 -285h-327l338 516l-316 488h328z" />
    <glyph glyph-name="y" unicode="y" horiz-adv-x="1118" 
d="M547 -397h-307l163 397l-391 1004h324l225 -621l234 621h311z" />
    <glyph glyph-name="z" unicode="z" horiz-adv-x="1054" 
d="M117 1004h811v-234l-443 -508h465v-262h-846v233l437 510h-424v261z" />
    <glyph glyph-name="braceleft" unicode="{" horiz-adv-x="888" 
d="M600 1032v-1026q0 -82 36 -117t109 -34h86v-263h-137q-197 0 -294 88t-97 297v404h-221v276h221v406q0 209 97 297t294 88h137v-264h-86q-73 0 -109 -35t-36 -117z" />
    <glyph glyph-name="bar" unicode="|" horiz-adv-x="774" 
d="M246 -397v1833h284v-1833h-284z" />
    <glyph glyph-name="braceright" unicode="}" horiz-adv-x="888" 
d="M266 6v1026q0 82 -36 117t-109 35h-86v264h137q197 0 294 -88t97 -297v-406h221v-276h-221v-404q0 -209 -97 -297t-294 -88h-137v263h86q73 1 109 35t36 116z" />
    <glyph glyph-name="asciitilde" unicode="~" horiz-adv-x="1054" 
d="M737 713h211q10 -158 -50 -254t-185 -97q-68 0 -113 17l-139 43q-49 16 -80 16q-63 0 -64 -76h-211q-8 158 52 254t186 97q51 0 111 -17l141 -45q49 -16 78 -16q63 0 63 78z" />
    <glyph glyph-name="exclamdown" unicode="&#xa1;" horiz-adv-x="679" 
d="M516 852q0 -74 -51 -126t-124 -52t-125 52t-52 126t52 125t125 51t124 -51t51 -125zM489 549v-946h-301v946h301z" />
    <glyph glyph-name="cent" unicode="&#xa2;" horiz-adv-x="1150" 
d="M414 500q0 -148 114 -215v434q-114 -71 -114 -219zM754 -233h-226v223q-182 37 -297 177t-115 334t115 335t297 180v221h226v-219q168 -31 313 -191l-197 -190q-59 70 -116 96v-467q71 31 137 115l196 -191q-131 -172 -333 -204v-219z" />
    <glyph glyph-name="sterling" unicode="&#xa3;" horiz-adv-x="1339" 
d="M129 641v277h133q-2 23 -2 65q0 229 144 352t331 123q303 0 471 -227l-209 -213q-94 162 -243 162q-90 0 -140 -60t-51 -149q0 -37 2 -53h363v-277h-307l77 -356h252v225h273v-510h-1094v285h262l-84 356h-178z" />
    <glyph glyph-name="yen" unicode="&#xa5;" horiz-adv-x="1372" 
d="M1174 739v-237h-338v-94h338v-238h-338v-170h-301v170h-338v238h338v94h-338v237h217l-355 697h332l295 -605l297 605h332l-359 -697h218z" />
    <glyph glyph-name="brokenbar" unicode="&#xa6;" horiz-adv-x="774" 
d="M246 -397v747h284v-747h-284zM246 688v748h284v-748h-284z" />
    <glyph glyph-name="section" unicode="&#xa7;" horiz-adv-x="1296" 
d="M885 428q0 123 -174 190l-250 99q-47 -37 -47 -115q0 -127 174 -190l258 -97q39 47 39 113zM1180 453q0 -163 -117 -293q68 -92 67 -209q0 -155 -130 -263t-334 -108q-317 0 -494 285l197 188q127 -201 303 -200q74 -1 118 25t44 73t-39 79t-133 64l-168 58
q-184 66 -281 166q-96 100 -96 280t147 289q-70 94 -69 217q0 154 124 254q125 100 316 100q252 0 450 -225l-194 -195q-63 74 -123 111t-134 37q-72 0 -108 -28t-37 -68q0 -90 156 -152l127 -49q204 -77 306 -175t102 -261z" />
    <glyph glyph-name="dieresis" unicode="&#xa8;" horiz-adv-x="1138" 
d="M639 1306q0 62 44 107q45 45 107 45t108 -45t46 -106t-46 -107t-108 -45q-62 0 -107 44q-44 45 -44 107zM510 1307q0 -61 -46 -107t-108 -45t-107 45q-44 44 -44 106t44 107t106 45q63 0 109 -45t46 -106z" />
    <glyph glyph-name="copyright" unicode="&#xa9;" horiz-adv-x="1691" 
d="M870 307q-186 0 -305 115t-119 295t121 294q121 113 304 113t307 -145l-158 -158q-62 82 -144 82t-135 -52t-53 -133t52 -135q52 -55 140 -55t156 88l158 -147q-138 -162 -324 -162zM285 718q1 -239 159 -402q158 -162 401 -162t403 162t159 401q0 237 -160 401
q-161 164 -403 164t-400 -162t-159 -402zM104 717q0 313 216 527t526 214q309 0 525 -214t216 -527t-216 -527t-526 -213q-310 0 -526 213q-215 214 -215 527z" />
    <glyph glyph-name="ordfeminine" unicode="&#xaa;" horiz-adv-x="878" 
d="M414 991q-86 0 -86 -57t70 -59q70 -1 116 38v64q-49 14 -100 14zM330 684q-108 0 -172 65t-64 175t84 172q84 61 207 61q68 0 129 -20v12q0 51 -30 82t-81 31q-90 0 -151 -80l-137 131q113 145 309 145q147 0 236 -78t90 -217v-463h-230v37q-82 -53 -190 -53z" />
    <glyph glyph-name="guillemotleft" unicode="&#xab;" horiz-adv-x="1351" 
d="M676 502l280 502h316l-285 -502l285 -502h-316zM82 502l280 502h316l-285 -502l285 -502h-316z" />
    <glyph glyph-name="logicalnot" unicode="&#xac;" horiz-adv-x="1284" 
d="M129 406v262h1004v-541h-281v279h-723z" />
    <glyph glyph-name="registered" unicode="&#xae;" horiz-adv-x="1327" 
d="M668 1018h-52v-94h52q72 0 71 49q1 45 -71 45zM616 778v-131h-176v514h256q90 0 155 -50t65 -148t-85 -152l99 -164h-182l-76 131h-56zM264 892q0 -171 114 -290t284 -119t284 119t115 290q0 171 -115 291q-114 120 -284 120t-284 -120t-114 -291zM104 892q0 234 162 400
t396 166t396 -166q163 -166 163 -400t-163 -399t-396 -165t-396 165q-162 165 -162 399z" />
    <glyph glyph-name="macron" unicode="&#xaf;" horiz-adv-x="1138" 
d="M311 1436h512v-240h-512v240z" />
    <glyph glyph-name="degree" unicode="&#xb0;" horiz-adv-x="911" 
d="M336 1109q0 -52 34 -87t83 -35t84 35t35 87t-34 88t-84 36t-84 -36t-34 -88zM456 758q-146 0 -249 102t-103 249q0 145 102 247t250 102q146 0 247 -101t101 -247t-100 -250q-102 -102 -248 -102z" />
    <glyph glyph-name="plusminus" unicode="&#xb1;" horiz-adv-x="1331" 
d="M164 801v270h364v365h271v-365h368v-270h-368v-369h-271v369h-364zM152 0v262h1028v-262h-1028z" />
    <glyph glyph-name="twosuperior" unicode="&#xb2;" horiz-adv-x="854" 
d="M733 838v-207h-639v49q0 293 238 407l82 41q74 35 73 74q0 45 -67 45q-96 0 -166 -117l-158 158q115 170 326 170q131 0 223 -62t92 -184q0 -86 -46 -144t-159 -120l-51 -28q-88 -47 -98 -82h350z" />
    <glyph glyph-name="threesuperior" unicode="&#xb3;" horiz-adv-x="813" 
d="M377 817q41 1 63 19t21 45q0 63 -107 63h-73v195h59q98 0 98 57q0 23 -20 38t-49 15q-82 0 -140 -53l-139 137q115 125 289 125q121 0 208 -57t87 -176t-80 -174q41 -25 72 -75t30 -114q0 -133 -96 -194t-229 -62q-182 0 -301 137l153 154q55 -80 154 -80z" />
    <glyph glyph-name="acute" unicode="&#xb4;" horiz-adv-x="1138" 
d="M551 1436h369l-246 -291h-275z" />
    <glyph glyph-name="mu" unicode="&#xb5;" horiz-adv-x="1179" 
d="M432 -397h-293v1401h293v-572q0 -84 39 -135t115 -51q172 0 172 243v515h293v-1004h-287v70q-88 -92 -207 -93q-66 0 -125 33v-407z" />
    <glyph glyph-name="mu" unicode="&#x3bc;" horiz-adv-x="1179" 
d="M432 -397h-293v1401h293v-572q0 -84 39 -135t115 -51q172 0 172 243v515h293v-1004h-287v70q-88 -92 -207 -93q-66 0 -125 33v-407z" />
    <glyph glyph-name="paragraph" unicode="&#xb6;" horiz-adv-x="1579" 
d="M596 1436h831v-1833h-297v1560h-190v-1560h-295v925h-49q-242 0 -384 123t-142 330t142 331t384 124z" />
    <glyph glyph-name="periodcentered" unicode="&#xb7;" horiz-adv-x="585" 
d="M117 526q0 74 50 125t124 51t126 -51t52 -125t-52 -125t-126 -51t-124 51t-50 125z" />
    <glyph glyph-name="cedilla" unicode="&#xb8;" horiz-adv-x="1146" 
d="M637 -281h-293l145 281h261z" />
    <glyph glyph-name="onesuperior" unicode="&#xb9;" horiz-adv-x="870" 
d="M129 831h205v336q-70 -51 -205 -51v211q166 4 217 109h223v-605h197v-200h-637v200z" />
    <glyph glyph-name="ordmasculine" unicode="&#xba;" horiz-adv-x="985" 
d="M346 1067q0 -80 42 -123t104 -43t105 43q42 43 42 123t-42 123t-104 43q-63 0 -105 -43t-42 -123zM891 1067q0 -165 -115 -277q-116 -112 -284 -112t-283 112t-115 278q0 167 115 279q115 111 284 111t283 -112t115 -279z" />
    <glyph glyph-name="guillemotright" unicode="&#xbb;" horiz-adv-x="1351" 
d="M967 1004l280 -502l-280 -502h-316l285 502l-285 502h316zM373 1004l280 -502l-280 -502h-316l285 502l-285 502h316z" />
    <glyph glyph-name="onequarter" unicode="&#xbc;" horiz-adv-x="2103" 
d="M483 0l883 1436h313l-882 -1436h-314zM106 831h205v336q-70 -51 -205 -51v211q166 4 218 109h223v-605h196v-200h-637v200zM1618 350v217l-137 -217h137zM1974 137h-121v-137h-235v137h-361v201l277 444h319v-432h121v-213z" />
    <glyph glyph-name="onehalf" unicode="&#xbd;" horiz-adv-x="2152" 
d="M483 0l883 1436h313l-882 -1436h-314zM2032 184v-207h-639v50q0 293 237 407l82 41q74 35 74 74q0 45 -68 45q-96 0 -166 -117l-157 158q115 170 325 170q132 -1 224 -63t92 -183q0 -86 -46 -144t-159 -120l-51 -29q-89 -47 -99 -82h351zM106 831h205v336
q-70 -51 -205 -51v211q166 4 218 109h223v-605h196v-200h-637v200z" />
    <glyph glyph-name="threequarters" unicode="&#xbe;" horiz-adv-x="1970" 
d="M352 0l883 1436h313l-882 -1436h-314zM684 862q0 -133 -96 -194t-230 -62q-182 0 -301 137l154 154q55 -80 154 -80q41 1 63 19t21 45q0 63 -107 63h-74v195h60q98 0 98 57q0 23 -20 38t-50 15q-82 0 -139 -53l-139 137q115 125 289 125q121 0 207 -57t88 -176
q0 -119 -80 -174q42 -25 72 -75t30 -114zM1485 350v217l-137 -217h137zM1841 137h-121v-137h-235v137h-361v201l277 444h319v-432h121v-213z" />
    <glyph glyph-name="questiondown" unicode="&#xbf;" horiz-adv-x="1130" 
d="M815 852q0 -74 -51 -126t-125 -52t-125 52t-51 126t51 125t125 51t125 -51t51 -125zM791 549v-365h-95q-124 0 -200 -43t-76 -119t54 -118t138 -41q188 0 291 153l193 -204q-176 -231 -482 -232q-211 0 -354 118t-143 312q0 158 102 272t275 148v119h297z" />
    <glyph glyph-name="Agrave" unicode="&#xc0;" 
d="M389 1786h348l152 -211h-299zM717 1022l-178 -469h356zM862 1436l561 -1436h-315l-115 283h-555l-112 -283h-316l561 1436h291z" />
    <glyph glyph-name="Aacute" unicode="&#xc1;" 
d="M666 1786h348l-201 -211h-299zM717 1022l-178 -469h356zM862 1436l561 -1436h-315l-115 283h-555l-112 -283h-316l561 1436h291z" />
    <glyph glyph-name="Acircumflex" unicode="&#xc2;" 
d="M541 1786h356l174 -211h-274l-78 82l-78 -82h-276zM717 1022l-178 -469h356zM862 1436l561 -1436h-315l-115 283h-555l-112 -283h-316l561 1436h291z" />
    <glyph glyph-name="Atilde" unicode="&#xc3;" 
d="M1042 1786q0 -104 -54 -180t-144 -76q-14 0 -88 16l-84 27q-35 10 -62 10q-53 0 -55 -53h-186q0 104 53 180t145 76q25 0 88 -14l84 -27q41 -12 62 -12q53 0 55 53h186zM717 1022l-178 -469h356zM862 1436l561 -1436h-315l-115 283h-555l-112 -283h-316l561 1436h291z
" />
    <glyph glyph-name="Adieresis" unicode="&#xc4;" 
d="M782 1668q0 62 44 108t106 45q62 0 109 -45q46 -44 46 -106t-46 -107t-108 -45t-107 44q-44 44 -44 106zM348 1668q0 62 44 108t106 45q62 0 109 -45q46 -44 46 -106t-46 -107t-108 -45t-107 44q-44 44 -44 106zM717 1022l-178 -469h356zM862 1436l561 -1436h-315
l-115 283h-555l-112 -283h-316l561 1436h291z" />
    <glyph glyph-name="Aring" unicode="&#xc5;" 
d="M645 1587q1 -27 21 -47t48 -20t48 20t20 47t-20 47t-48 20t-48 -20t-21 -47zM717 1022l-178 -469h356zM498 1587q0 96 64 159q65 62 155 62q89 0 155 -62t66 -158t-72 -163l557 -1425h-315l-115 283h-555l-112 -283h-316l557 1427q-69 64 -69 160z" />
    <glyph glyph-name="AE" unicode="&#xc6;" horiz-adv-x="1898" 
d="M717 1022l-178 -469h356zM1782 1436v-281h-811l112 -285h664v-276h-557l123 -313h469v-281h-674l-115 283h-555l-112 -283h-316l561 1436h1211z" />
    <glyph glyph-name="Ccedilla" unicode="&#xc7;" horiz-adv-x="1497" 
d="M82 715q0 335 215 539t552 204t556 -270l-205 -209q-62 90 -162 142t-219 53q-168 0 -296 -122t-128 -333t127 -334t314 -123q242 0 389 201l202 -215q-193 -233 -489 -264l-104 -265h-293l141 273q-268 46 -434 240t-166 483z" />
    <glyph glyph-name="Egrave" unicode="&#xc8;" horiz-adv-x="1314" 
d="M379 1786h348l152 -211h-299zM139 0v1436h1059v-281h-754v-285h719v-276h-719v-313h754v-281h-1059z" />
    <glyph glyph-name="Eacute" unicode="&#xc9;" horiz-adv-x="1314" 
d="M621 1786h348l-201 -211h-299zM139 0v1436h1059v-281h-754v-285h719v-276h-719v-313h754v-281h-1059z" />
    <glyph glyph-name="Ecircumflex" unicode="&#xca;" horiz-adv-x="1314" 
d="M500 1786h356l174 -211h-274l-78 82l-78 -82h-276zM139 0v1436h1059v-281h-754v-285h719v-276h-719v-313h754v-281h-1059z" />
    <glyph glyph-name="Edieresis" unicode="&#xcb;" horiz-adv-x="1314" 
d="M735 1668q0 62 44 108q45 46 107 45q62 0 108 -45q46 -44 46 -106t-46 -107t-108 -45t-107 44q-44 44 -44 106zM301 1668q0 62 44 108q45 46 107 45q62 0 108 -45q46 -44 46 -106t-46 -107t-108 -45t-107 44q-44 44 -44 106zM139 0v1436h1059v-281h-754v-285h719v-276
h-719v-313h754v-281h-1059z" />
    <glyph glyph-name="Igrave" unicode="&#xcc;" horiz-adv-x="606" 
d="M-23 1786h349l151 -211h-299zM152 0v1436h303v-1436h-303z" />
    <glyph glyph-name="Iacute" unicode="&#xcd;" horiz-adv-x="606" 
d="M272 1786h349l-201 -211h-299zM152 0v1436h303v-1436h-303z" />
    <glyph glyph-name="Icircumflex" unicode="&#xce;" horiz-adv-x="610" 
d="M127 1786h356l174 -211h-274l-78 82l-78 -82h-276zM152 0v1436h303v-1436h-303z" />
    <glyph glyph-name="Idieresis" unicode="&#xcf;" horiz-adv-x="606" 
d="M369 1668q0 62 44 108t106 45q63 0 109 -45q46 -44 46 -106t-46 -107t-108 -45t-107 44q-44 44 -44 106zM-66 1668q0 62 44 108t106 45q62 0 110 -45q46 -44 46 -106t-46 -107t-108 -45t-108 44q-44 44 -44 106zM152 0v1436h303v-1436h-303z" />
    <glyph glyph-name="Eth" unicode="&#xd0;" horiz-adv-x="1564" 
d="M635 1155h-121v-289h234v-268h-234v-317h123q537 0 537 446q0 428 -539 428zM209 0v598h-152v268h152v570h473q311 0 544 -158q118 -80 188 -222t69 -330q0 -188 -70 -332q-71 -144 -187 -227q-234 -167 -544 -167h-473z" />
    <glyph glyph-name="Ntilde" unicode="&#xd1;" horiz-adv-x="1529" 
d="M1102 1786q0 -104 -54 -180t-145 -76q-14 0 -88 16l-84 27q-35 10 -61 10q-53 0 -56 -53h-186q0 104 53 180t146 76q25 0 88 -14l84 -27q41 -12 61 -12q53 0 55 53h187zM444 0h-305v1436h367l579 -973v973h304v-1436h-365l-580 969v-969z" />
    <glyph glyph-name="Ograve" unicode="&#xd2;" horiz-adv-x="1644" 
d="M479 1786h348l152 -211h-299zM822 1171q-192 0 -310 -131q-118 -130 -117 -322q0 -192 117 -323q118 -131 314 -131t312 131t116 321t-120 323q-120 132 -312 132zM82 718q0 320 213 530t525 210t528 -210t215 -530q0 -320 -215 -531q-216 -210 -528 -210t-525 210
q-213 211 -213 531z" />
    <glyph glyph-name="Oacute" unicode="&#xd3;" horiz-adv-x="1644" 
d="M784 1786h349l-201 -211h-299zM822 1171q-192 0 -310 -131q-118 -130 -117 -322q0 -192 117 -323q118 -131 314 -131t312 131t116 321t-120 323q-120 132 -312 132zM82 718q0 320 213 530t525 210t528 -210t215 -530q0 -320 -215 -531q-216 -210 -528 -210t-525 210
q-213 211 -213 531z" />
    <glyph glyph-name="Ocircumflex" unicode="&#xd4;" horiz-adv-x="1644" 
d="M639 1786h356l174 -211h-274l-78 82l-78 -82h-276zM822 1171q-192 0 -310 -131q-118 -130 -117 -322q0 -192 117 -323q118 -131 314 -131t312 131t116 321t-120 323q-120 132 -312 132zM82 718q0 320 213 530t525 210t528 -210t215 -530q0 -320 -215 -531
q-216 -210 -528 -210t-525 210q-213 211 -213 531z" />
    <glyph glyph-name="Otilde" unicode="&#xd5;" horiz-adv-x="1644" 
d="M1149 1786q0 -104 -54 -180t-145 -76q-14 0 -88 16l-84 27q-35 10 -61 10q-53 0 -55 -53h-187q0 104 53 180t146 76q23 0 88 -14l84 -27q41 -12 61 -12q54 0 56 53h186zM822 1171q-192 0 -310 -131q-118 -130 -117 -322q0 -192 117 -323q118 -131 314 -131t312 131
t116 321t-120 323q-120 132 -312 132zM82 718q0 320 213 530t525 210t528 -210t215 -530q0 -320 -215 -531q-216 -210 -528 -210t-525 210q-213 211 -213 531z" />
    <glyph glyph-name="Odieresis" unicode="&#xd6;" horiz-adv-x="1644" 
d="M885 1668q0 62 44 108t106 45q63 0 109 -45q46 -44 46 -106t-46 -107t-108 -45t-107 44q-44 44 -44 106zM451 1668q0 62 44 108t106 45q63 0 109 -45q46 -44 46 -106t-46 -107t-108 -45t-107 44q-44 44 -44 106zM822 1171q-192 0 -310 -131q-118 -130 -117 -322
q0 -192 117 -323q118 -131 314 -131t312 131t116 321t-120 323q-120 132 -312 132zM82 718q0 320 213 530t525 210t528 -210t215 -530q0 -320 -215 -531q-216 -210 -528 -210t-525 210q-213 211 -213 531z" />
    <glyph glyph-name="multiply" unicode="&#xd7;" horiz-adv-x="1234" 
d="M133 797l195 192l290 -291l289 291l195 -192l-289 -293l293 -293l-193 -195l-295 295l-296 -295l-193 195l295 293z" />
    <glyph glyph-name="Oslash" unicode="&#xd8;" horiz-adv-x="1644" 
d="M395 736q0 -173 76 -290l492 703q-68 23 -136 22q-197 0 -315 -131t-117 -304zM1253 704q0 178 -94 302l-497 -713q76 -29 165 -29q195 0 311 131q115 131 115 309zM82 720q0 318 213 528t524 210q160 0 314 -65l86 123l198 -144l-80 -115q225 -213 225 -537t-214 -533
q-215 -210 -529 -210q-180 0 -330 72l-86 -123l-196 142l84 120q-209 214 -209 532z" />
    <glyph glyph-name="Ugrave" unicode="&#xd9;" horiz-adv-x="1437" 
d="M406 1786h348l151 -211h-299zM1018 627v809h303v-799q0 -322 -160 -491q-161 -169 -443 -169t-442 169t-159 491v799h303v-813q0 -163 76 -265t223 -102q299 0 299 371z" />
    <glyph glyph-name="Uacute" unicode="&#xda;" horiz-adv-x="1437" 
d="M680 1786h348l-201 -211h-299zM1018 627v809h303v-799q0 -322 -160 -491q-161 -169 -443 -169t-442 169t-159 491v799h303v-813q0 -163 76 -265t223 -102q299 0 299 371z" />
    <glyph glyph-name="Ucircumflex" unicode="&#xdb;" horiz-adv-x="1437" 
d="M539 1786h356l174 -211h-274l-78 82l-78 -82h-277zM1018 627v809h303v-799q0 -322 -160 -491q-161 -169 -443 -169t-442 169t-159 491v799h303v-813q0 -163 76 -265t223 -102q299 0 299 371z" />
    <glyph glyph-name="Udieresis" unicode="&#xdc;" horiz-adv-x="1437" 
d="M784 1668q0 62 44 108t106 45q62 0 109 -45q47 -44 47 -106t-46 -107t-109 -45q-62 0 -107 44q-44 44 -44 106zM350 1668q0 62 44 108t106 45q62 0 109 -45q46 -44 46 -106t-46 -107t-108 -45t-107 44q-44 44 -44 106zM1018 627v809h303v-799q0 -322 -160 -491
q-161 -169 -443 -169t-442 169t-159 491v799h303v-813q0 -163 76 -265t223 -102q299 0 299 371z" />
    <glyph glyph-name="Yacute" unicode="&#xdd;" horiz-adv-x="1280" 
d="M610 1786h348l-200 -211h-299zM788 0h-301v502l-475 934h332l295 -605l297 605h332l-480 -934v-502z" />
    <glyph glyph-name="Thorn" unicode="&#xde;" horiz-adv-x="1304" 
d="M633 946h-189v-422h189q311 0 311 211t-311 211zM686 246h-242v-246h-305v1436h305v-211h242q254 0 408 -129q154 -130 154 -352t-156 -360t-406 -138z" />
    <glyph glyph-name="germandbls" unicode="&#xdf;" horiz-adv-x="1296" 
d="M712 246q93 0 151 49t59 129q0 160 -217 160h-140v268h99q90 0 141 48t51 122t-54 121t-145 47q-250 0 -249 -309v-881h-291v881q0 266 149 422q150 156 400 155q197 0 341 -121t144 -301q0 -90 -37 -170t-94 -123q195 -117 194 -331q0 -184 -128 -310t-340 -125
q-212 0 -308 99l144 207q37 -37 130 -37z" />
    <glyph glyph-name="agrave" unicode="&#xe0;" horiz-adv-x="1077" 
d="M213 1436h369l151 -291h-274zM362 317q0 -43 35 -69t90 -25q98 0 181 62v114q-183 42 -262 -10q-44 -29 -44 -72zM415 -23q-157 -1 -251 89t-94 238t114 232q115 83 283 82q102 0 201 -28v16q0 72 -45 118t-123 46q-137 0 -215 -117l-185 176q166 199 420 199
q190 0 316 -107q125 -108 125 -294v-627h-289v66q-100 -89 -257 -89z" />
    <glyph glyph-name="aacute" unicode="&#xe1;" horiz-adv-x="1077" 
d="M485 1436h369l-246 -291h-274zM362 317q0 -43 35 -69t90 -25q98 0 181 62v114q-183 42 -262 -10q-44 -29 -44 -72zM415 -23q-157 -1 -251 89t-94 238t114 232q115 83 283 82q102 0 201 -28v16q0 72 -45 118t-123 46q-137 0 -215 -117l-185 176q166 199 420 199
q190 0 316 -107q125 -108 125 -294v-627h-289v66q-100 -89 -257 -89z" />
    <glyph glyph-name="acircumflex" unicode="&#xe2;" horiz-adv-x="1077" 
d="M356 1436h334l187 -291h-252l-103 121l-100 -121h-252zM362 317q0 -43 35 -69t90 -25q98 0 181 62v114q-183 42 -262 -10q-44 -29 -44 -72zM415 -23q-157 -1 -251 89t-94 238t114 232q115 83 283 82q102 0 201 -28v16q0 72 -45 118t-123 46q-137 0 -215 -117l-185 176
q166 199 420 199q190 0 316 -107q125 -108 125 -294v-627h-289v66q-100 -89 -257 -89z" />
    <glyph glyph-name="atilde" unicode="&#xe3;" horiz-adv-x="1077" 
d="M858 1436q0 -104 -54 -180t-145 -76q-14 0 -88 16l-84 27q-35 10 -61 10q-53 0 -55 -53h-187q0 104 54 180t145 76q23 0 88 -15l84 -26q41 -12 61 -13q54 1 56 54h186zM362 317q0 -43 35 -69t90 -25q98 0 181 62v114q-183 42 -262 -10q-44 -29 -44 -72zM415 -23
q-157 -1 -251 89t-94 238t114 232q115 83 283 82q102 0 201 -28v16q0 72 -45 118t-123 46q-137 0 -215 -117l-185 176q166 199 420 199q190 0 316 -107q125 -108 125 -294v-627h-289v66q-100 -89 -257 -89z" />
    <glyph glyph-name="adieresis" unicode="&#xe4;" horiz-adv-x="1077" 
d="M895 1307q0 -61 -46 -107q-47 -46 -109 -45t-106 45t-44 106t44 107t106 45t108 -45t47 -106zM461 1307q0 -61 -46 -107q-47 -46 -109 -45t-106 45t-44 106t44 107t106 45t108 -45t47 -106zM362 317q0 -43 35 -69t90 -25q98 0 181 62v114q-183 42 -262 -10
q-44 -29 -44 -72zM415 -23q-157 -1 -251 89t-94 238t114 232q115 83 283 82q102 0 201 -28v16q0 72 -45 118t-123 46q-137 0 -215 -117l-185 176q166 199 420 199q190 0 316 -107q125 -108 125 -294v-627h-289v66q-100 -89 -257 -89z" />
    <glyph glyph-name="aring" unicode="&#xe5;" horiz-adv-x="1077" 
d="M573 1284q0 20 -14 34q-15 14 -35 13q-20 0 -34 -13q-14 -14 -15 -34q0 -20 14 -34q15 -14 35 -13q20 0 35 13q14 14 14 34zM346 1284q0 72 52 123t126 51t126 -51t52 -123t-52 -123t-126 -51t-126 51t-52 123zM362 317q0 -43 35 -69t90 -25q98 0 181 62v114
q-183 42 -262 -10q-44 -29 -44 -72zM415 -23q-157 -1 -251 89t-94 238t114 232q115 83 283 82q102 0 201 -28v16q0 72 -45 118t-123 46q-137 0 -215 -117l-185 176q166 199 420 199q190 0 316 -107q125 -108 125 -294v-627h-289v66q-100 -89 -257 -89z" />
    <glyph glyph-name="ae" unicode="&#xe6;" horiz-adv-x="1699" 
d="M1161 772q-152 0 -184 -149h346q-4 65 -48 107t-114 42zM520 408q-158 0 -158 -97q0 -39 32 -63t87 -25q121 0 215 82q-16 56 -22 103h-154zM1186 244q141 0 221 127l205 -191q-162 -203 -424 -203q-221 0 -365 132q-166 -131 -355 -131q-190 0 -294 88q-104 90 -104 238
t114 232q115 83 283 82h207q0 68 -49 104t-125 36q-137 0 -215 -109l-185 174q152 205 420 205q186 0 303 -129q135 129 330 129q229 0 353 -152t124 -362l-2 -86h-665q8 -82 67 -133t156 -51z" />
    <glyph glyph-name="ccedilla" unicode="&#xe7;" horiz-adv-x="1099" 
d="M616 754q-110 0 -180 -71t-70 -181t70 -182q70 -70 174 -70q131 0 234 131l196 -191q-123 -166 -319 -200l-107 -271h-292l141 275q-176 41 -285 180t-108 328q0 225 152 376q154 150 386 150t412 -201l-197 -190q-97 117 -207 117z" />
    <glyph glyph-name="egrave" unicode="&#xe8;" horiz-adv-x="1116" 
d="M211 1436h369l151 -291h-274zM566 772q-75 0 -124 -42t-63 -107h360q-4 63 -51 106t-122 43zM590 244q154 0 246 116l192 -180q-162 -203 -430 -203q-229 1 -379 143q-149 142 -149 374t138 383t361 151t351 -154t127 -360l-3 -86h-679q12 -82 71 -133t154 -51z" />
    <glyph glyph-name="eacute" unicode="&#xe9;" horiz-adv-x="1116" 
d="M530 1436h369l-246 -291h-274zM566 772q-75 0 -124 -42t-63 -107h360q-4 63 -51 106t-122 43zM590 244q154 0 246 116l192 -180q-162 -203 -430 -203q-229 1 -379 143q-149 142 -149 374t138 383t361 151t351 -154t127 -360q0 -35 -3 -86h-679q12 -82 71 -133t154 -51z
" />
    <glyph glyph-name="ecircumflex" unicode="&#xea;" horiz-adv-x="1116" 
d="M391 1436h334l186 -291h-252l-102 121l-100 -121h-252zM566 772q-75 0 -124 -42t-63 -107h360q-4 63 -51 106t-122 43zM590 244q154 0 246 116l192 -180q-162 -203 -430 -203q-229 1 -379 143q-149 142 -149 374t138 383t361 151t351 -154t127 -360l-3 -86h-679
q12 -82 71 -133t154 -51z" />
    <glyph glyph-name="edieresis" unicode="&#xeb;" horiz-adv-x="1116" 
d="M934 1307q0 -61 -46 -107t-108 -45t-107 45q-44 44 -44 106t44 107t106 45q63 0 109 -45t46 -106zM500 1307q0 -61 -46 -107t-108 -45t-107 45q-44 44 -44 106t44 107t106 45q63 0 109 -45t46 -106zM566 772q-75 0 -124 -42t-63 -107h360q-4 63 -51 106t-122 43zM590 244
q154 0 246 116l192 -180q-162 -203 -430 -203q-229 1 -379 143q-149 142 -149 374t138 383t361 151t351 -154t127 -360q0 -35 -3 -86h-679q12 -82 71 -133t154 -51z" />
    <glyph glyph-name="igrave" unicode="&#xec;" horiz-adv-x="544" 
d="M-80 1436h369l151 -291h-274zM129 0v1004h293v-1004h-293z" />
    <glyph glyph-name="iacute" unicode="&#xed;" horiz-adv-x="548" 
d="M258 1436h369l-246 -291h-275zM129 0v1004h293v-1004h-293z" />
    <glyph glyph-name="icircumflex" unicode="&#xee;" horiz-adv-x="552" 
d="M111 1436h333l187 -291h-252l-103 121l-100 -121h-252zM129 0v1004h293v-1004h-293z" />
    <glyph glyph-name="idieresis" unicode="&#xef;" horiz-adv-x="598" 
d="M668 1307q0 -61 -46 -107t-108 -45t-108 45q-44 44 -44 106t44 107t107 45t109 -45t46 -106zM-72 1306q0 62 44 107t106 45t109 -45q46 -45 46 -106t-46 -107t-108 -45q-62 0 -107 44q-44 45 -44 107zM152 0v1004h292v-1004h-292z" />
    <glyph glyph-name="eth" unicode="&#xf0;" horiz-adv-x="1171" 
d="M379 456q0 -86 53 -146t142 -60t143 59q53 59 53 147t-53 146q-53 60 -143 60t-142 -60q-53 -60 -53 -146zM1079 502q0 -213 -133 -369t-359 -156q-225 1 -365 139t-140 349t139 341t330 130q61 0 100 -16l-106 143l-226 -129v221l109 62l-162 219h320l65 -93l199 115
v-221l-86 -49l131 -180q184 -254 184 -506z" />
    <glyph glyph-name="ntilde" unicode="&#xf1;" horiz-adv-x="1167" 
d="M932 1436q0 -104 -54 -180t-145 -76q-14 0 -88 16l-84 27q-35 10 -61 10q-53 0 -56 -53h-186q0 104 53 180t146 76q23 0 88 -15l84 -26q41 -12 61 -13q53 1 55 54h187zM420 0h-291v1004h287v-70q98 94 237 94q186 0 298 -117t112 -327v-584h-293v561q0 86 -41 141
t-125 56q-184 0 -184 -256v-502z" />
    <glyph glyph-name="ograve" unicode="&#xf2;" horiz-adv-x="1200" 
d="M236 1436h368l152 -291h-275zM367 502q-1 -111 65 -183q66 -71 168 -71t168 72t66 182t-66 182t-168 72t-168 -72t-65 -182zM70 502q0 225 152 376q153 150 378 150t378 -150q152 -150 152 -376q0 -225 -152 -375t-378 -150q-227 0 -379 150q-151 150 -151 375z" />
    <glyph glyph-name="oacute" unicode="&#xf3;" horiz-adv-x="1200" 
d="M563 1436h369l-246 -291h-274zM367 502q-1 -111 65 -183q66 -71 168 -71t168 72t66 182t-66 182t-168 72t-168 -72t-65 -182zM70 502q0 225 152 376q153 150 378 150t378 -150q152 -150 152 -376q0 -225 -152 -375t-378 -150q-227 0 -379 150q-151 150 -151 375z" />
    <glyph glyph-name="ocircumflex" unicode="&#xf4;" horiz-adv-x="1200" 
d="M436 1436h334l186 -291h-251l-103 121l-100 -121h-252zM367 502q-1 -111 65 -183q66 -71 168 -71t168 72t66 182t-66 182t-168 72t-168 -72t-65 -182zM70 502q0 225 152 376q153 150 378 150t378 -150q152 -150 152 -376q0 -225 -152 -375t-378 -150q-227 0 -379 150
q-151 150 -151 375z" />
    <glyph glyph-name="otilde" unicode="&#xf5;" horiz-adv-x="1200" 
d="M926 1436q0 -104 -54 -180t-145 -76q-14 0 -88 16l-84 27q-35 10 -61 10q-53 0 -56 -53h-186q0 104 53 180t146 76q25 0 88 -15l84 -26q41 -12 61 -13q53 1 55 54h187zM367 502q-1 -111 65 -183q66 -71 168 -71t168 72t66 182t-66 182t-168 72t-168 -72t-65 -182zM70 502
q0 225 152 376q153 150 378 150t378 -150q152 -150 152 -376q0 -225 -152 -375t-378 -150q-227 0 -379 150q-151 150 -151 375z" />
    <glyph glyph-name="odieresis" unicode="&#xf6;" horiz-adv-x="1200" 
d="M973 1307q0 -61 -46 -107q-47 -46 -109 -45t-106 45t-44 106t44 107t106 45t108 -45t47 -106zM539 1307q0 -61 -46 -107q-47 -46 -109 -45t-106 45t-45 106q1 62 45 107t106 45t108 -45t47 -106zM367 502q-1 -111 65 -183q66 -71 168 -71t168 72t66 182t-66 182t-168 72
t-168 -72t-65 -182zM70 502q0 225 152 376q153 150 378 150t378 -150q152 -150 152 -376q0 -225 -152 -375t-378 -150q-227 0 -379 150q-151 150 -151 375z" />
    <glyph glyph-name="divide" unicode="&#xf7;" horiz-adv-x="1329" 
d="M152 399v252h1026v-252h-1026zM663 305q69 0 117 -48t49 -117q0 -70 -49 -116q-50 -46 -118 -46t-115 46q-47 47 -47 116t47 117t116 48zM663 1073q69 0 117 -48t49 -117q0 -70 -49 -116q-50 -46 -118 -46t-115 46q-47 47 -47 116t47 117t116 48z" />
    <glyph glyph-name="oslash" unicode="&#xf8;" horiz-adv-x="1222" 
d="M379 502q0 -68 24 -119l256 367q-25 6 -47 6q-102 0 -168 -72t-65 -182zM846 502q0 72 -31 131l-264 -377q25 -8 61 -8q102 0 168 72t66 182zM82 505q0 222 152 373q153 151 378 150q113 0 211 -41l66 92l160 -114l-62 -86q156 -152 156 -377t-152 -375t-379 -150
q-119 0 -225 46l-68 -97l-157 113l65 94q-145 150 -145 372z" />
    <glyph glyph-name="ugrave" unicode="&#xf9;" horiz-adv-x="1144" 
d="M205 1436h368l152 -291h-274zM723 489v515h293v-1004h-287v70q-90 -92 -258 -92t-267 115q-99 116 -100 327v584h293v-572q0 -84 39 -135t115 -51q172 -1 172 243z" />
    <glyph glyph-name="uacute" unicode="&#xfa;" horiz-adv-x="1144" 
d="M545 1436h368l-245 -291h-275zM723 1004h293v-1004h-287v70q-90 -92 -258 -92t-267 115q-99 116 -100 327v584h293v-572q0 -84 39 -135t115 -51q172 0 172 243v515z" />
    <glyph glyph-name="ucircumflex" unicode="&#xfb;" horiz-adv-x="1144" 
d="M385 1436h334l186 -291h-252l-102 121l-100 -121h-252zM723 489v515h293v-1004h-287v70q-90 -92 -258 -92t-267 115q-99 116 -100 327v584h293v-572q0 -84 39 -135t115 -51q172 -1 172 243z" />
    <glyph glyph-name="udieresis" unicode="&#xfc;" horiz-adv-x="1144" 
d="M924 1307q0 -61 -46 -107t-108 -45t-108 45q-44 44 -44 106t44 107t107 45t109 -45t46 -106zM184 1306q0 62 44 107t106 45t109 -45q46 -45 46 -106t-46 -107t-108 -45q-62 0 -107 44q-44 45 -44 107zM723 1004h293v-1004h-287v70q-90 -92 -258 -92t-267 115
q-99 116 -100 327v584h293v-572q0 -84 39 -135t115 -51q172 0 172 243v515z" />
    <glyph glyph-name="yacute" unicode="&#xfd;" horiz-adv-x="1118" 
d="M549 1436h369l-246 -291h-275zM240 -397l163 397l-391 1004h324l225 -621l234 621h311l-559 -1401h-307z" />
    <glyph glyph-name="thorn" unicode="&#xfe;" horiz-adv-x="1249" 
d="M416 502q0 -115 66 -189q66 -73 167 -73q100 0 167 74t67 188t-67 188t-167 74q-101 0 -167 -74t-66 -188zM678 1028q214 0 358 -144t144 -380t-144 -380q-144 -146 -358 -147q-160 0 -258 86v-460h-291v1833h287v-504q100 96 262 96z" />
    <glyph glyph-name="ydieresis" unicode="&#xff;" horiz-adv-x="1140" 
d="M938 1307q0 -61 -46 -107t-108 -45t-107 45q-44 44 -44 106t44 107t106 45q63 0 109 -45t46 -106zM504 1307q0 -61 -46 -107t-108 -45t-107 45q-44 44 -44 106t44 107t106 45q63 0 109 -45t46 -106zM252 -397l164 397l-391 1004h323l225 -621l234 621h311l-559 -1401
h-307z" />
    <glyph glyph-name="dotlessi" unicode="&#x131;" horiz-adv-x="598" 
d="M152 0v1004h292v-1004h-292z" />
    <glyph glyph-name="Lslash" unicode="&#x141;" horiz-adv-x="1261" 
d="M242 1436h305v-500l143 43v-270l-143 -45v-383h655v-281h-960v571l-131 -39v273l131 39v592z" />
    <glyph glyph-name="lslash" unicode="&#x142;" horiz-adv-x="823" 
d="M266 1436h291v-502l148 45v-270l-148 -45v-664h-291v575l-141 -43v273l141 41v590z" />
    <glyph glyph-name="OE" unicode="&#x152;" horiz-adv-x="1966" 
d="M827 1155q-199 0 -315 -124t-117 -313q0 -190 117 -314t315 -123h80v874h-80zM819 0q-315 0 -526 200t-211 518t212 518t525 200h1030v-281h-637v-285h603v-276h-603v-313h637v-281h-1030z" />
    <glyph glyph-name="oe" unicode="&#x153;" horiz-adv-x="1880" 
d="M1330 772q-75 0 -124 -42t-65 -107h362q-4 63 -51 106t-122 43zM367 502q-1 -111 65 -183q66 -71 167 -71t166 70t69 178v16q-2 106 -69 175t-167 69t-166 -72t-65 -182zM1358 244q150 0 229 127l203 -191q-158 -203 -413 -203t-400 170q-145 -170 -375 -170t-381 150
q-152 150 -151 375q0 225 152 376q153 150 378 150t377 -172q139 172 359 172t346 -154t126 -360l-2 -86h-678q8 -82 70 -133t160 -51z" />
    <glyph glyph-name="Scaron" unicode="&#x160;" horiz-adv-x="1318" 
d="M815 1575h-356l-176 211h276l78 -84l78 84h274zM104 1034q0 188 157 306t374 118q336 0 553 -229l-205 -215q-162 166 -365 166q-96 0 -153 -39t-57 -103q0 -115 204 -151l142 -23q483 -78 483 -448q0 -197 -157 -318t-414 -121q-188 0 -344 77t-252 198l209 211
q160 -207 405 -207q118 0 184 44t66 112q0 114 -201 151l-176 31q-211 36 -332 144t-121 296z" />
    <glyph glyph-name="scaron" unicode="&#x161;" horiz-adv-x="1011" 
d="M655 1145h-333l-187 291h252l100 -121l103 121h252zM96 711q0 143 114 230t275 87q227 0 404 -158l-178 -188q-119 98 -238 98q-43 0 -69 -17t-25 -42q0 -37 72 -53l149 -35q330 -78 330 -332q0 -143 -114 -233t-306 -91q-139 -1 -258 57t-182 138l178 182
q135 -133 287 -133q45 1 79 19t33 47q0 40 -90 63l-133 33q-328 82 -328 328z" />
    <glyph glyph-name="Ydieresis" unicode="&#x178;" horiz-adv-x="1302" 
d="M717 1668q0 62 44 108t106 45q63 0 109 -45q46 -44 46 -106t-46 -107t-108 -45t-107 44q-44 44 -44 106zM283 1668q0 62 44 108t106 45q63 0 109 -45q46 -44 46 -106t-46 -107t-108 -45t-107 44q-44 44 -44 106zM801 0h-301v502l-475 934h331l295 -605l297 605h332
l-479 -934v-502z" />
    <glyph glyph-name="Zcaron" unicode="&#x17d;" horiz-adv-x="1341" 
d="M836 1575h-357l-176 211h277l77 -84l78 84h275zM111 1436h1103v-269l-725 -886h748v-281h-1133v268l725 887h-718v281z" />
    <glyph glyph-name="zcaron" unicode="&#x17e;" horiz-adv-x="1054" 
d="M690 1167h-334l-184 291h250l100 -121l103 121h249zM117 1004h811v-234l-443 -508h465v-262h-846v233l437 510h-424v261z" />
    <glyph glyph-name="florin" unicode="&#x192;" horiz-adv-x="874" 
d="M35 -121h49q98 0 139 34t41 110v712h-131v269h131v28q0 203 120 304t323 102l75 -2v-275h-49q-96 0 -138 -35t-42 -110v-12h221v-269h-221v-735q1 -197 -119 -298t-323 -101l-76 2v276z" />
    <glyph glyph-name="circumflex" unicode="&#x2c6;" horiz-adv-x="1138" 
d="M414 1436h334l186 -291h-252l-102 121l-101 -121h-252z" />
    <glyph glyph-name="caron" unicode="&#x2c7;" horiz-adv-x="991" 
d="M666 1145h-334l-187 291h252l101 -121l102 121h252z" />
    <glyph glyph-name="breve" unicode="&#x2d8;" horiz-adv-x="1138" 
d="M572 1133q-130 -1 -215 81t-93 222h217q8 -82 89 -82t94 82h217q-7 -139 -93 -221t-216 -82z" />
    <glyph glyph-name="dotaccent" unicode="&#x2d9;" horiz-adv-x="598" 
d="M129 1289q0 71 49 120t119 49t120 -50t50 -120t-50 -119t-120 -49t-119 49t-49 120z" />
    <glyph glyph-name="ring" unicode="&#x2da;" horiz-adv-x="1046" 
d="M588 1284q0 20 -14 34t-35 13q-21 0 -35 -13q-14 -14 -14 -34t14 -34t34 -13q20 -1 36 13q14 14 14 34zM360 1284q0 72 52 123t127 51q74 0 126 -51t52 -123t-52 -123t-126 -51q-75 0 -127 51t-52 123z" />
    <glyph glyph-name="ogonek" unicode="&#x2db;" horiz-adv-x="1138" 
d="M774 1436h289l-176 -269h-264zM395 1436h287l-176 -269h-262z" />
    <glyph glyph-name="tilde" unicode="&#x2dc;" horiz-adv-x="1189" 
d="M952 1436q0 -104 -54 -180t-144 -76q-14 0 -88 16l-84 27q-35 10 -62 10q-53 0 -55 -53h-186q0 104 53 180t145 76q23 0 88 -15l84 -26q41 -12 62 -13q53 1 55 54h186z" />
    <glyph glyph-name="hungarumlaut" unicode="&#x2dd;" horiz-adv-x="1163" 
d="M662 -281h-295l147 281h258z" />
    <glyph glyph-name="Delta" unicode="&#x394;" horiz-adv-x="1411" 
d="M705 1090l-308 -818h617zM1305 0h-1201v262l453 1174h295l453 -1174v-262z" />
    <glyph glyph-name="Delta" unicode="&#x2206;" horiz-adv-x="1411" 
d="M705 1090l-308 -818h617zM1305 0h-1201v262l453 1174h295l453 -1174v-262z" />
    <glyph glyph-name="Omega" unicode="&#x3a9;" horiz-adv-x="1605" 
d="M1405 264v-264h-508v504q129 27 209 118q80 90 80 236t-111 237t-271 91t-270 -91q-112 -91 -112 -237t81 -236q81 -91 210 -118v-504h-510v264h246v74q-139 59 -230 193q-90 133 -90 319t98 328t249 211q151 70 327 69q270 0 473 -166t203 -444q0 -180 -90 -314
t-228 -196v-74h244z" />
    <glyph glyph-name="Omega" unicode="&#x2126;" horiz-adv-x="1605" 
d="M1405 264v-264h-508v504q129 27 209 118q80 90 80 236t-111 237t-271 91t-270 -91q-112 -91 -112 -237t81 -236q81 -91 210 -118v-504h-510v264h246v74q-139 59 -230 193q-90 133 -90 319t98 328t249 211q151 70 327 69q270 0 473 -166t203 -444q0 -180 -90 -314
t-228 -196v-74h244z" />
    <glyph glyph-name="pi" unicode="&#x3c0;" horiz-adv-x="1361" 
d="M831 0v735h-301v-735h-284v735h-152v269h1174v-269h-152v-735h-285z" />
    <glyph glyph-name="endash" unicode="&#x2013;" horiz-adv-x="1189" 
d="M129 406v262h934v-262h-934z" />
    <glyph glyph-name="emdash" unicode="&#x2014;" horiz-adv-x="1785" 
d="M129 406v262h1528v-262h-1528z" />
    <glyph glyph-name="quoteleft" unicode="&#x2018;" horiz-adv-x="620" 
d="M57 1436h312l194 -480h-282z" />
    <glyph glyph-name="quoteright" unicode="&#x2019;" horiz-adv-x="620" 
d="M229 1436h312l-224 -480h-282z" />
    <glyph glyph-name="quotesinglbase" unicode="&#x201a;" horiz-adv-x="583" 
d="M207 233h317l-223 -485h-289z" />
    <glyph glyph-name="quotedblleft" unicode="&#x201c;" horiz-adv-x="1073" 
d="M512 1436h309l195 -480h-283zM57 1436h312l194 -480h-282z" />
    <glyph glyph-name="quotedblright" unicode="&#x201d;" horiz-adv-x="1073" 
d="M229 1436h310l-222 -480h-282zM682 1436h311l-223 -480h-283z" />
    <glyph glyph-name="quotedblbase" unicode="&#x201e;" horiz-adv-x="1034" 
d="M657 233h318l-223 -485h-289zM207 233h317l-223 -485h-289z" />
    <glyph glyph-name="dagger" unicode="&#x2020;" horiz-adv-x="1216" 
d="M104 1004h357v432h284v-432h367v-275h-367v-1126h-284v1126h-357v275z" />
    <glyph glyph-name="daggerdbl" unicode="&#x2021;" horiz-adv-x="1273" 
d="M1135 104h-355v-501h-284v501h-367v277h367v348h-357v275h357v432h284v-432h367v-275h-367v-348h355v-277z" />
    <glyph glyph-name="bullet" unicode="&#x2022;" horiz-adv-x="897" 
d="M152 537q0 125 86 211t211 86t211 -86t85 -211q0 -125 -86 -211q-87 -86 -211 -86t-210 86t-86 211z" />
    <glyph glyph-name="ellipsis" unicode="&#x2026;" horiz-adv-x="1640" 
d="M1184 156q0 74 50 125t124 51t126 -51t52 -125t-52 -125t-126 -51t-124 51t-50 125zM645 156q0 74 50 125t124 51t126 -51t52 -125t-52 -125t-126 -51t-124 51t-50 125zM106 156q0 74 50 125t125 51q74 0 126 -51t52 -125t-52 -125t-126 -51q-75 0 -125 51t-50 125z" />
    <glyph glyph-name="perthousand" unicode="&#x2030;" horiz-adv-x="2457" 
d="M264 0l883 1436h311l-880 -1436h-314zM1221 286q1 -42 27 -67t61 -25t61 26t25 67q0 41 -26 67q-27 26 -61 25q-34 1 -60 -25t-27 -68zM999 287q1 131 91 220t220 89t219 -90t89 -220t-89 -219t-219 -89t-220 88q-90 90 -91 221zM328 1149q0 -41 26 -67t60 -26t60 28
q26 26 26 66t-26 66t-60 25q-34 1 -60 -25t-26 -67zM415 840q-131 0 -221 90t-90 220t90 219t221 89q130 0 219 -89t89 -219t-89 -220t-219 -90zM1956 286q0 -42 26 -67t62 -25q34 0 60 26t26 67t-26 67t-60 25q-34 1 -62 -25q-26 -26 -26 -68zM1735 287q0 131 89 220
t220 89t220 -90t89 -220t-89 -219t-219 -89t-220 88q-90 90 -90 221z" />
    <glyph glyph-name="guilsinglleft" unicode="&#x2039;" horiz-adv-x="757" 
d="M82 502l280 502h316l-285 -502l285 -502h-316z" />
    <glyph glyph-name="guilsinglright" unicode="&#x203a;" horiz-adv-x="757" 
d="M373 1004l280 -502l-280 -502h-316l285 502l-285 502h316z" />
    <glyph glyph-name="fraction" unicode="&#x2044;" horiz-adv-x="1298" 
d="M35 0l883 1436h313l-883 -1436h-313z" />
    <glyph glyph-name="Euro" unicode="&#x20ac;" horiz-adv-x="1454" 
d="M117 770v250h172q69 206 225 322t371 116q157 0 277 -58t190 -153l-201 -209q-98 142 -270 142t-267 -160h390v-250h-457q-2 -18 -2 -58t2 -59h457v-250h-388q90 -147 269 -147q98 0 163 32t123 101l201 -217q-186 -195 -489 -195q-217 0 -370 113t-222 313h-174v250h129
q-2 20 -2 62v55h-127z" />
    <glyph glyph-name="trademark" unicode="&#x2122;" horiz-adv-x="1794" 
d="M1014 631h-223v805h278l160 -432l160 432h276v-805h-221v426l-113 -307h-203l-114 307v-426zM47 1436h639v-207h-209v-598h-225v598h-205v207z" />
    <glyph glyph-name="arrownorthwest" unicode="&#x2196;" horiz-adv-x="1394" 
d="M1079 799h-438l653 -652l-198 -198l-652 649v-434h-270v903h905v-268z" />
    <glyph glyph-name="arrownortheast" unicode="&#x2197;" horiz-adv-x="1394" 
d="M291 799v268h905v-903h-270v434l-652 -649l-198 198l653 652h-438z" />
    <glyph glyph-name="arrowsoutheast" unicode="&#x2198;" horiz-adv-x="1394" 
d="M360 268h439l-654 652l199 198l651 -649v434h271v-903h-906v268z" />
    <glyph glyph-name="arrowsouthwest" unicode="&#x2199;" horiz-adv-x="1394" 
d="M1079 268v-268h-905v903h270v-434l652 649l198 -198l-653 -652h438z" />
    <glyph glyph-name="partialdiff" unicode="&#x2202;" horiz-adv-x="1306" 
d="M408 464q0 -92 59 -150t152 -58t152 57q58 57 58 151t-58 151q-57 57 -151 57t-153 -58t-59 -150zM627 -23q-217 1 -370 135t-153 352t146 353t340 135q192 0 301 -106q-2 158 -87 246q-86 88 -226 88t-234 -119l-197 203q76 86 193 140t248 54q270 0 442 -202t172 -538
t-154 -539q-154 -202 -421 -202z" />
    <glyph glyph-name="product" unicode="&#x220f;" horiz-adv-x="1335" 
d="M911 -397v1132h-487v-1132h-285v1401h1057v-1401h-285z" />
    <glyph glyph-name="summation" unicode="&#x2211;" horiz-adv-x="1107" 
d="M1016 -121v-276h-912v264l383 653l-383 651v265h912v-275h-580l369 -641l-369 -641h580z" />
    <glyph glyph-name="minus" unicode="&#x2212;" horiz-adv-x="1331" 
d="M152 401v263h1028v-263h-1028z" />
    <glyph glyph-name="radical" unicode="&#x221a;" horiz-adv-x="1466" 
d="M94 1004h438l224 -611l383 1043h305l-539 -1436h-295l-278 735h-238v269z" />
    <glyph glyph-name="infinity" unicode="&#x221e;" horiz-adv-x="2320" 
d="M1678 250q94 0 171 74q76 74 76 179t-76 178t-171 73q-96 0 -160 -46t-134 -141l-49 -65l49 -66q70 -94 135 -140t159 -46zM642 754q-95 0 -171 -73t-76 -178t76 -179t171 -74t161 46t135 142l47 64l-49 65q-70 94 -134 141q-65 46 -160 46zM1667 1028q237 0 393 -150
t156 -376q0 -225 -157 -375t-392 -150q-190 0 -317 96q-61 46 -103 89q-41 43 -86 104q-63 -84 -121 -139t-160 -102q-103 -47 -227 -48q-237 0 -393 150t-156 375t157 376t392 150q178 0 294 -78t212 -209q223 287 508 287z" />
    <glyph glyph-name="integral" unicode="&#x222b;" horiz-adv-x="804" 
d="M530 1016v-1016q0 -197 -120 -298t-324 -101l-74 2v276h49q96 0 138 34q41 34 41 110v1009q0 203 119 304q120 101 325 102l74 -2v-275h-47q-97 -1 -139 -35t-42 -110z" />
    <glyph glyph-name="approxequal" unicode="&#x2248;" horiz-adv-x="1357" 
d="M971 494h246q10 -150 -58 -239t-203 -89q-70 0 -151 20l-242 54q-57 14 -94 14q-82 0 -82 -76h-244q-10 146 57 236t201 90q70 0 152 -21l244 -53q57 -14 92 -14q82 0 82 78zM971 948h246q10 -150 -58 -238t-203 -89q-53 0 -151 20l-242 55q-76 14 -94 15q-82 0 -82 -78
h-244q-10 147 57 237t201 91q61 0 152 -23l244 -53q76 -14 92 -15q82 0 82 78z" />
    <glyph glyph-name="notequal" unicode="&#x2260;" horiz-adv-x="1331" 
d="M152 608v260h555l81 160h281l-82 -160h193v-260h-324l-96 -186h420v-262h-553l-92 -183h-283l92 183h-192v262h327l94 186h-421z" />
    <glyph glyph-name="lessequal" unicode="&#x2264;" horiz-adv-x="1355" 
d="M152 0v262h1028v-262h-1028zM152 449v303l1030 467v-295l-529 -213h527v-262h-1028z" />
    <glyph glyph-name="greaterequal" unicode="&#x2265;" horiz-adv-x="1355" 
d="M1182 262v-262h-1028v262h1028zM1182 449h-1028v262h526l-528 213v295l1030 -467v-303z" />
    <glyph glyph-name="lozenge" unicode="&#x25ca;" horiz-adv-x="1353" 
d="M408 506l270 -584l268 584l-268 588zM541 1436h272l436 -930l-436 -926h-272l-437 926z" />
    <glyph glyph-name="fi" unicode="&#xfb01;" horiz-adv-x="1261" 
d="M817 1289q0 71 49 120t120 49t120 -49t49 -120t-50 -120t-120 -49t-119 49t-49 120zM840 0v735h-373v-735h-289v735h-131v269h131v28q0 203 120 304t323 102l51 -2v-275h-25q-96 0 -138 -35t-42 -110v-12h666v-1004h-293z" />
    <glyph glyph-name="fl" unicode="&#xfb02;" horiz-adv-x="1284" 
d="M864 0v1161h-217q-96 0 -138 -35t-42 -110v-12h221v-269h-221v-735h-289v735h-131v269h131v28q0 201 120 302t323 102h534v-1436h-291z" />
    <glyph glyph-name="acutecap" horiz-adv-x="1337" 
d="M633 1786h348l-201 -211h-299z" />
    <glyph glyph-name="caroncap" horiz-adv-x="1378" 
d="M850 1575h-356l-177 211h277l78 -84l78 84h274z" />
    <glyph glyph-name="ringcap" 
d="M647 1587q1 -29 21 -49t49 -20t49 20t20 49t-20 49t-49 20t-49 -20t-21 -49zM717 1368q-93 0 -157 64t-64 158q0 93 64 156q65 62 157 62q93 0 157 -62t64 -156t-64 -158t-157 -64z" />
    <glyph glyph-name="gravecap" horiz-adv-x="1337" 
d="M385 1786h348l152 -211h-299z" />
    <glyph glyph-name="circumflexcap" horiz-adv-x="1337" 
d="M510 1786h356l174 -211h-274l-78 82l-78 -82h-276z" />
    <glyph glyph-name="zero.onum" horiz-adv-x="1400" 
d="M700 864q-131 0 -217 -85t-86 -218t86 -219t217 -86t218 86q86 86 86 219t-86 218q-87 85 -218 85zM700 -23q-246 0 -426 162t-180 422t180 422t426 162t426 -162t180 -422t-180 -422t-426 -162z" />
    <glyph glyph-name="one.onum" horiz-adv-x="1116" 
d="M117 281h327v462q-133 -92 -327 -92v273q264 10 354 196h277v-839h309v-281h-940v281z" />
    <glyph glyph-name="two.onum" horiz-adv-x="1193" 
d="M1057 281v-281h-953v139q0 179 102 315t310 197l119 35q123 37 123 98q0 35 -34 58q-34 22 -112 22t-164 -50q-88 -50 -141 -126l-190 191q78 123 207 195t302 71q173 0 306 -96t133 -263q0 -137 -89 -222t-269 -140l-125 -37q-126 -34 -138 -106h613z" />
    <glyph glyph-name="three.onum" horiz-adv-x="1179" 
d="M1063 137q-1 -207 -149 -323t-379 -117q-150 0 -282 63t-218 168l205 205q127 -156 295 -156q96 1 159 47q64 46 64 120t-65 113q-65 40 -181 40h-119v270h94q236 0 236 162q0 61 -54 98t-134 37q-154 0 -267 -137l-198 197q199 221 467 221q203 -1 347 -107t144 -288
t-141 -299q76 -45 126 -129t50 -185z" />
    <glyph glyph-name="four.onum" horiz-adv-x="1263" 
d="M715 268v469l-328 -469h328zM1204 0h-186v-281h-303v281h-633v250l602 870h334v-852h186v-268z" />
    <glyph glyph-name="five.onum" horiz-adv-x="1249" 
d="M606 -23q104 -1 169 59t65 149t-60 151t-145 63q-171 0 -223 -133h-281l35 854h864v-280h-579l-13 -238q100 63 228 64q199 0 339 -127t140 -349t-154 -358t-403 -135q-152 0 -280 62t-204 167l218 213q119 -162 284 -162z" />
    <glyph glyph-name="six.onum" horiz-adv-x="1284" 
d="M874 453q0 86 -56 141t-141 55t-141 -55t-56 -141q0 -85 56 -141t141 -56t141 56t56 141zM670 -23q-268 1 -416 191t-150 528q0 338 167 532q167 196 441 196t425 -195l-197 -205q-38 55 -102 88t-136 33q-129 0 -214 -93t-95 -253q115 131 309 131t336 -130t142 -348
t-146 -346t-364 -129z" />
    <glyph glyph-name="seven.onum" horiz-adv-x="1177" 
d="M57 623v497h1049v-264q-215 -223 -335 -479t-148 -576l-7 -82h-309l8 80q29 326 132 570t290 471h-385v-217h-295z" />
    <glyph glyph-name="eight.onum" horiz-adv-x="1251" 
d="M420 418q0 -72 59 -117t147 -45t147 45q58 45 58 117t-58 118t-146 46q-87 0 -147 -46t-60 -118zM797 999q0 63 -49 105t-121 41q-72 0 -122 -40q-50 -41 -50 -105t49 -104t122 -40t122 40t49 103zM626 -23q-224 0 -367 116q-142 116 -142 300q0 109 52 196t128 132
q-145 115 -145 293t133 294t341 116t341 -116t133 -294t-146 -293q76 -45 128 -132t53 -196q-1 -184 -143 -300t-366 -116z" />
    <glyph glyph-name="nine.onum" horiz-adv-x="1261" 
d="M385 668q0 -86 56 -142q57 -56 143 -55q86 0 142 55q56 56 56 142t-56 141t-142 55t-142 -55t-57 -141zM590 1145q268 -1 416 -191t149 -528q0 -338 -167 -534q-166 -196 -440 -196t-425 198l196 202q37 -53 103 -86t135 -33q133 0 216 85t95 260q-118 -132 -312 -132
t-334 130t-140 349q0 218 146 347q147 129 362 129z" />
    <glyph glyph-name="zero.ss01" horiz-adv-x="1331" 
d="M924 719q0 12 -1 37t-1 37l-439 -424q63 -103 189 -103t190 124q62 124 62 329zM408 719q0 -57 2 -86l442 430q-70 109 -194 109t-188 -124q-62 -124 -62 -329zM1229 719q0 -332 -152 -536q-153 -203 -411 -203t-411 204t-153 535t152 535t411 204t411 -204t153 -535z
" />
    <glyph glyph-name="one.ss01" horiz-adv-x="1093" 
d="M117 279h295v878h-273v279h598v-1157h297v-279h-917v279z" />
    <glyph glyph-name="two.ss01" horiz-adv-x="1183" 
d="M750 1005q0 77 -50 125t-124 50q-72 0 -124 -50t-52 -126t50 -125t122 -49t126 48q52 50 52 127zM102 1023q0 167 138 301t343 134q204 0 336 -128t132 -312q1 -115 -57 -211t-179 -227l-274 -299h508v-281h-930v240l309 331q-152 51 -239 168t-87 284z" />
    <glyph glyph-name="three.ss01" horiz-adv-x="1179" 
d="M737 430q0 186 -245 186h-162v269l278 280h-514v271h912v-260l-326 -310q172 -30 277 -144t105 -298t-146 -314q-148 -132 -390 -133q-289 0 -479 230l205 209q106 -164 284 -164q86 0 144 46q57 46 57 132z" />
    <glyph glyph-name="four.ss01" horiz-adv-x="1296" 
d="M971 846v-275h243v-268h-243v-303h-303v303h-566v428l506 705h346l-528 -736v-129h242v275h303z" />
    <glyph glyph-name="five.ss01" horiz-adv-x="1269" 
d="M594 256q106 0 176 64t70 161q0 95 -64 157t-155 62q-150 0 -207 -135h-277v871h912v-279h-611v-262q35 33 103 52t137 20q199 0 343 -125q144 -126 144 -350q1 -224 -153 -369t-402 -146q-319 0 -506 216l209 206q117 -143 281 -143z" />
    <glyph glyph-name="six.ss01" horiz-adv-x="1269" 
d="M399 494q0 -106 67 -176t169 -68q102 0 167 68q64 68 64 176q0 106 -64 175q-65 69 -167 69t-169 -70q-67 -68 -67 -174zM630 -20q-226 0 -378 150q-150 150 -150 392q0 121 53 249q52 128 138 235l350 432h332l-369 -443q33 12 96 13q193 0 327 -146t134 -367
q0 -222 -153 -369q-154 -146 -380 -146z" />
    <glyph glyph-name="seven.ss01" horiz-adv-x="1138" 
d="M70 963v473h1009v-275l-499 -1161h-332l512 1161h-389v-198h-301z" />
    <glyph glyph-name="eight.ss01" horiz-adv-x="1273" 
d="M635 1212q-72 0 -121 -46t-49 -120t45 -120q45 -47 126 -47t125 47t44 121q0 73 -49 119t-121 46zM635 629q-89 1 -145 -53t-56 -137t58 -133t143 -50q86 0 143 50q58 50 58 133t-56 137t-145 53zM127 422q0 211 178 328q-55 42 -99 120t-44 166q0 194 139 308t334 114
t334 -115t139 -307q0 -88 -44 -167t-99 -119q178 -117 178 -328q0 -148 -80 -252q-146 -191 -429 -190q-283 0 -427 190q-80 104 -80 252z" />
    <glyph glyph-name="nine.ss01" horiz-adv-x="1261" 
d="M856 944q0 106 -66 175q-67 69 -169 69t-167 -69t-65 -175t65 -175t167 -69t169 69q66 69 66 175zM92 942q0 222 154 370q154 146 380 146t376 -150t151 -393q0 -121 -52 -249t-138 -234l-351 -432h-331l368 442q-35 -12 -96 -12q-193 0 -327 145t-134 367z" />
    <glyph glyph-name="A.ss01" horiz-adv-x="1441" 
d="M993 1434l387 -1434h-309l-72 262h-557l-71 -262h-310l388 1434h544zM672 1153l-158 -614h416l-162 614h-96z" />
    <glyph glyph-name="Aacute.ss01" horiz-adv-x="1441" 
d="M664 1786h348l-201 -211h-299zM993 1434l387 -1434h-309l-72 262h-557l-71 -262h-310l388 1434h544zM672 1153l-158 -614h416l-162 614h-96z" />
    <glyph glyph-name="Agrave.ss01" horiz-adv-x="1441" 
d="M406 1786h348l151 -211h-299zM993 1434l387 -1434h-309l-72 262h-557l-71 -262h-310l388 1434h544zM672 1153l-158 -614h416l-162 614h-96z" />
    <glyph glyph-name="Acircumflex.ss01" horiz-adv-x="1441" 
d="M543 1786h356l174 -211h-274l-78 82l-78 -82h-276zM993 1434l387 -1434h-309l-72 262h-557l-71 -262h-310l388 1434h544zM672 1153l-158 -614h416l-162 614h-96z" />
    <glyph glyph-name="Adieresis.ss01" horiz-adv-x="1441" 
d="M786 1668q0 62 44 108t106 45q62 0 110 -45q46 -44 46 -106t-46 -107t-108 -45t-108 44q-44 44 -44 106zM352 1668q0 62 44 108t106 45q62 0 109 -45q46 -44 46 -106t-46 -107t-108 -45t-107 44q-44 44 -44 106zM993 1434l387 -1434h-309l-72 262h-557l-71 -262h-310
l388 1434h544zM672 1153l-158 -614h416l-162 614h-96z" />
    <glyph glyph-name="Atilde.ss01" horiz-adv-x="1441" 
d="M1059 1786q0 -104 -54 -180t-145 -76q-14 0 -88 16l-84 27q-35 10 -61 10q-53 0 -56 -53h-186q0 104 53 180t146 76q23 0 88 -14l84 -27q41 -12 61 -12q53 0 55 53h187zM993 1434l387 -1434h-309l-72 262h-557l-71 -262h-310l388 1434h544zM672 1153l-158 -614h416
l-162 614h-96z" />
    <glyph glyph-name="Aring.ss01" horiz-adv-x="1441" 
d="M645 1587q1 -29 21 -49t49 -20t49 20t20 49t-20 49t-49 20t-49 -20t-21 -49zM672 1153l-158 -614h416l-162 614h-96zM494 1589q0 94 64 157q65 62 157 62q93 0 157 -62t64 -156t-64 -156h121l387 -1434h-309l-72 262h-557l-71 -262h-310l388 1434h106q-61 61 -61 155z
" />
    <glyph glyph-name="AE.ss01" horiz-adv-x="1847" 
d="M672 1153l-158 -614h416l-162 614h-96zM1683 594h-462l84 -313h413v-281h-647l-72 262h-557l-71 -262h-310l388 1434h1269v-281h-649l76 -283h538v-276z" />
    <glyph glyph-name="Ccedilla.ss01" horiz-adv-x="1497" 
d="M950 -281h-260v273q-272 44 -440 238t-168 485q0 335 215 539t552 204t556 -270l-205 -209q-62 90 -162 142t-219 53q-168 0 -296 -122t-128 -333t127 -334t314 -123q242 0 389 201l202 -215q-190 -231 -477 -264v-265z" />
    <glyph glyph-name="G.ss01" horiz-adv-x="1544" 
d="M823 1458q178 0 331 -73t251 -197l-205 -209q-51 74 -150 133t-223 59q-188 0 -317 -131q-129 -132 -129 -324t129 -323t310 -131t308 86v170h-284v281h583v-799h-299v39q-150 -61 -305 -62q-315 0 -531 208t-216 533q0 324 217 532t530 208z" />
    <glyph glyph-name="I.ss01" horiz-adv-x="991" 
d="M139 1157v279h713v-279h-207v-878h207v-279h-713v279h205v878h-205z" />
    <glyph glyph-name="Iacute.ss01" horiz-adv-x="991" 
d="M469 1786h348l-201 -211h-299zM139 1157v279h713v-279h-207v-878h207v-279h-713v279h205v878h-205z" />
    <glyph glyph-name="Igrave.ss01" horiz-adv-x="991" 
d="M166 1786h348l152 -211h-299zM139 1157v279h713v-279h-207v-878h207v-279h-713v279h205v878h-205z" />
    <glyph glyph-name="Icircumflex.ss01" horiz-adv-x="991" 
d="M319 1786h357l174 -211h-275l-77 82l-78 -82h-277zM139 1157v279h713v-279h-207v-878h207v-279h-713v279h205v878h-205z" />
    <glyph glyph-name="Idieresis.ss01" horiz-adv-x="991" 
d="M557 1668q0 62 44 108q45 46 107 45q62 0 108 -45q46 -44 46 -106t-46 -107t-108 -45t-107 44q-44 44 -44 106zM123 1668q0 62 44 108t106 45q63 0 109 -45q46 -44 46 -106t-46 -107t-108 -45t-107 44q-44 44 -44 106zM139 1157v279h713v-279h-207v-878h207v-279h-713
v279h205v878h-205z" />
    <glyph glyph-name="J.ss01" horiz-adv-x="1171" 
d="M328 1157v279h692v-942q0 -240 -134 -378t-356 -138t-346 128q-125 129 -125 363v43h301v-43q0 -213 175 -213q184 0 184 240v661h-391z" />
    <glyph glyph-name="K.ss01" horiz-adv-x="1253" 
d="M113 0v1436h301v-549h90l375 549h321l-463 -678l475 -758h-327l-377 604h-94v-604h-301z" />
    <glyph glyph-name="M.ss01" horiz-adv-x="1865" 
d="M1722 1436v-1436h-307v1151h-61l-252 -1151h-348l-246 1151h-59v-1151h-306v1436h615l170 -893l176 893h618z" />
    <glyph glyph-name="Q.ss01" horiz-adv-x="1681" 
d="M1270 719q0 186 -124 319t-302 133t-303 -133t-125 -321q0 -187 125 -321t305 -134q90 0 174 39l-242 244l203 207l242 -242q47 94 47 209zM102 718q0 314 213 527t523 213t525 -214q216 -214 216 -527t-215 -527t-525 -213q-310 0 -524 213q-213 214 -213 528z" />
    <glyph glyph-name="V.ss01" horiz-adv-x="1441" 
d="M350 1434l324 -1153h96l322 1153h309l-408 -1434h-544l-408 1434h309z" />
    <glyph glyph-name="W.ss01" horiz-adv-x="2015" 
d="M1010 344l-101 -344h-479l-410 1436h320l311 -1155h62l141 473l-215 682h299l70 -265l69 265h299l-215 -682l142 -473h61l311 1155h320l-400 -1436h-489z" />
    <glyph glyph-name="X.ss01" horiz-adv-x="1368" 
d="M735 594h-100l-264 -594h-320l326 735l-299 701h319l238 -555h100l238 555h317l-299 -701l326 -735h-318z" />
    <glyph glyph-name="a.ss01" horiz-adv-x="1110" 
d="M676 389h-219q-82 0 -82 -63t82 -64h219v127zM170 737v267h797v-1004h-500q-166 0 -265 90q-100 90 -100 234t102 230q102 85 263 85h209v98h-506z" />
    <glyph glyph-name="aacute.ss01" horiz-adv-x="1110" 
d="M676 389h-219q-82 0 -82 -63t82 -64h219v127zM170 737v267h797v-1004h-500q-166 0 -265 90q-100 90 -100 234t102 230q102 85 263 85h209v98h-506zM547 1436h368l-245 -291h-275z" />
    <glyph glyph-name="agrave.ss01" horiz-adv-x="1110" 
d="M289 1436h368l152 -291h-274zM676 389h-219q-82 0 -82 -63t82 -64h219v127zM170 737v267h797v-1004h-500q-166 0 -265 90q-100 90 -100 234t102 230q102 85 263 85h209v98h-506z" />
    <glyph glyph-name="acircumflex.ss01" horiz-adv-x="1138" 
d="M412 1436h333l187 -291h-252l-102 121l-101 -121h-252zM676 389h-219q-82 0 -82 -63t82 -64h219v127zM170 737v267h797v-1004h-500q-166 0 -265 90q-100 90 -100 234t102 230q102 85 263 85h209v98h-506z" />
    <glyph glyph-name="adieresis.ss01" horiz-adv-x="1171" 
d="M641 1306q0 62 44 107q45 45 107 45t108 -45t46 -106t-46 -107t-108 -45q-62 0 -107 44q-44 45 -44 107zM512 1307q0 -61 -46 -107t-108 -45t-107 45q-44 44 -44 106t44 107t106 45q63 0 109 -45t46 -106zM676 389h-219q-82 0 -82 -63t82 -64h219v127zM170 737v267h797
v-1004h-500q-166 0 -265 90q-100 90 -100 234t102 230q102 85 263 85h209v98h-506z" />
    <glyph glyph-name="atilde.ss01" horiz-adv-x="1118" 
d="M928 1436q0 -104 -54 -180t-145 -76q-14 0 -88 16l-84 27q-35 10 -61 10q-53 0 -56 -53h-186q0 104 53 180t146 76q23 0 88 -15l84 -26q41 -12 61 -13q53 1 55 54h187zM676 389h-219q-82 0 -82 -63t82 -64h219v127zM170 737v267h797v-1004h-500q-166 0 -265 90
q-100 90 -100 234t102 230q102 85 263 85h209v98h-506z" />
    <glyph glyph-name="aring.ss01" horiz-adv-x="1110" 
d="M625 1284q-1 20 -15 34t-34 13q-20 0 -35 -13q-15 -14 -15 -34t14 -34t35 -13q20 -1 35 13t15 34zM397 1284q1 72 53 123t126 51t125 -51q53 -51 53 -123t-52 -123t-127 -51q-74 0 -126 51t-52 123zM676 389h-219q-82 0 -82 -63t82 -64h219v127zM170 737v267h797v-1004
h-500q-166 0 -265 90q-100 90 -100 234t102 230q102 85 263 85h209v98h-506z" />
    <glyph glyph-name="ae.ss01" horiz-adv-x="1550" 
d="M1124 741h-157v-112h157q72 0 72 56t-72 56zM676 379h-230q-72 0 -71 -57q0 -59 71 -60h230v117zM1413 262v-262h-946q-166 0 -265 88q-100 88 -100 232t102 226q102 83 263 83h209v108h-506v267h934q166 0 265 -88t99 -230q0 -143 -100 -225t-264 -82h-137v-117h446z
" />
    <glyph glyph-name="ccedilla.ss01" horiz-adv-x="1099" 
d="M715 -279h-260v275q-172 45 -279 182q-106 137 -106 324q0 225 152 376q154 150 386 150t412 -201l-197 -190q-97 117 -207 117t-180 -71t-70 -181t70 -182q70 -70 174 -70q131 0 234 131l196 -191q-127 -168 -325 -202v-267z" />
    <glyph glyph-name="e.ss01" horiz-adv-x="946" 
d="M483 588q41 0 68 26t27 64t-27 64t-68 26t-67 -27t-27 -63q1 -36 27 -64q26 -26 67 -26zM483 330q-55 0 -90 8v-76h447v-262h-738v649q0 179 110 279t272 100t272 -98q108 -98 108 -251t-112 -251t-269 -98z" />
    <glyph glyph-name="eacute.ss01" horiz-adv-x="966" 
d="M463 588q41 0 67 26t27 64q0 38 -27 64q-28 26 -68 26t-67 -27t-27 -63t27 -64q27 -26 68 -26zM463 330q-55 0 -90 8v-76h446v-262h-737v649q0 178 109 279q110 100 273 100q164 0 272 -98t108 -251t-112 -251t-269 -98zM451 1436h368l-246 -291h-274z" />
    <glyph glyph-name="egrave.ss01" horiz-adv-x="966" 
d="M147 1436h369l152 -291h-275zM463 588q41 0 67 26t27 64q0 38 -27 64q-28 26 -68 26t-67 -27t-27 -63t27 -64q27 -26 68 -26zM463 330q-55 0 -90 8v-76h446v-262h-737v649q0 178 109 279q110 100 273 100q164 0 272 -98t108 -251t-112 -251t-269 -98z" />
    <glyph glyph-name="ecircumflex.ss01" horiz-adv-x="966" 
d="M299 1436h334l186 -291h-252l-102 121l-100 -121h-252zM463 588q41 0 67 26t27 64q0 38 -27 64q-28 26 -68 26t-67 -27t-27 -63t27 -64q27 -26 68 -26zM463 330q-55 0 -90 8v-76h446v-262h-737v649q0 178 109 279q110 100 273 100q164 0 272 -98t108 -251t-112 -251
t-269 -98z" />
    <glyph glyph-name="edieresis.ss01" horiz-adv-x="966" 
d="M528 1306q0 62 44 107t106 45t109 -45t47 -106t-46 -107t-109 -45q-62 0 -107 44q-44 45 -44 107zM94 1306q0 62 44 107t106 45t109 -45q46 -45 46 -106t-46 -107t-108 -45q-62 0 -107 44q-44 45 -44 107zM463 588q41 0 67 26t27 64q0 38 -27 64q-28 26 -68 26t-67 -27
t-27 -63t27 -64q27 -26 68 -26zM463 330q-55 0 -90 8v-76h446v-262h-737v649q0 178 109 279q110 100 273 100q164 0 272 -98t108 -251t-112 -251t-269 -98z" />
    <glyph glyph-name="f.ss01" horiz-adv-x="886" 
d="M47 735v269h109v116q0 152 106 245t260 93t259 -94t106 -248v-20h-295v16q0 74 -69 74t-68 -84v-98h432v-269h-432v-735h-299v735h-109z" />
    <glyph glyph-name="g.ss01" horiz-adv-x="1173" 
d="M762 565q0 76 -53 123t-131 47t-130 -47t-53 -123t53 -124t131 -48t130 48t53 124zM1112 1004v-263h-115q57 -82 58 -184q0 -172 -92 -274t-234 -131l332 -291v-258h-918v266h512l-331 278q-221 186 -222 420q0 185 142 311t334 126h534z" />
    <glyph glyph-name="h.ss01" horiz-adv-x="1191" 
d="M129 0v1434h291v-430h643v-1004h-293v735h-350v-735h-291z" />
    <glyph glyph-name="j.ss01" horiz-adv-x="600" 
d="M154 1289q0 71 49 120t120 49t119 -49t50 -120q0 -71 -50 -120t-120 -49t-119 49t-49 120zM469 -397h-510v266h217v1135h293v-1401z" />
    <glyph glyph-name="k.ss01" horiz-adv-x="1071" 
d="M143 0v1436h295v-803h82l193 371h309l-264 -502l282 -502h-309l-209 365h-84v-365h-295z" />
    <glyph glyph-name="l.ss01" horiz-adv-x="548" 
d="M420 1434v-1434h-291v1434h291z" />
    <glyph glyph-name="m.ss01" horiz-adv-x="1785" 
d="M1657 1004v-1004h-291v735h-328v-735h-290v735h-328v-735h-291v1004h1528z" />
    <glyph glyph-name="n.ss01" horiz-adv-x="1191" 
d="M129 1004h934v-1004h-293v735h-350v-735h-291v1004z" />
    <glyph glyph-name="ntilde.ss01" horiz-adv-x="1191" 
d="M932 1436q0 -104 -54 -180t-145 -76q-14 0 -88 16l-84 27q-35 10 -61 10q-53 0 -56 -53h-186q0 104 53 180t146 76q23 0 88 -15l84 -26q41 -12 61 -13q53 1 55 54h187zM1063 1004v-1004h-293v735h-350v-735h-291v1004h934z" />
    <glyph glyph-name="oe.ss01" horiz-adv-x="1734" 
d="M1251 588q41 0 68 26t27 64t-27 64t-68 26t-67 -27t-27 -63q1 -36 27 -64q26 -26 67 -26zM389 512q1 -104 63 -172t158 -68t159 68q62 68 62 172t-62 172q-63 68 -159 68t-158 -68t-63 -172zM1262 330q-82 0 -154 32q-16 -57 -39 -96h547v-266h-1006q-221 0 -369 144
q-149 144 -149 368t150 370t366 146t363 -139q105 139 279 139t278 -98t104 -252t-106 -251t-264 -97z" />
    <glyph glyph-name="r.ss01" horiz-adv-x="751" 
d="M420 735v-735h-291v1004h578v-269h-287z" />
    <glyph glyph-name="s.ss01" horiz-adv-x="991" 
d="M477 1028q223 0 387 -151l-153 -222l-154 97q-75 49 -107 12q-14 -14 -14 -41t47 -55l416 -254q0 -239 -177 -367q-97 -70 -233 -70q-231 0 -423 179l145 217l121 -70q98 -55 156 -55t71 49l-272 152q-172 96 -172 278q0 129 108 215q109 86 254 86z" />
    <glyph glyph-name="t.ss01" horiz-adv-x="876" 
d="M774 0h-567v735h-172v269h172v280h315v-280h262v-269h-286v-467h276v-268z" />
    <glyph glyph-name="u.ss01" horiz-adv-x="1191" 
d="M1063 0h-934v1004h291v-736h350v736h293v-1004z" />
    <glyph glyph-name="uacute.ss01" horiz-adv-x="1191" 
d="M573 1436h369l-246 -291h-274zM1063 0h-934v1004h291v-736h350v736h293v-1004z" />
    <glyph glyph-name="ugrave.ss01" horiz-adv-x="1191" 
d="M225 1436h369l151 -291h-274zM1063 0h-934v1004h291v-736h350v736h293v-1004z" />
    <glyph glyph-name="ucircumflex.ss01" horiz-adv-x="1191" 
d="M428 1436h334l186 -291h-252l-102 121l-100 -121h-252zM1063 0h-934v1004h291v-736h350v736h293v-1004z" />
    <glyph glyph-name="udieresis.ss01" horiz-adv-x="1191" 
d="M967 1307q0 -61 -46 -107q-47 -46 -109 -45t-106 45t-44 106t44 107t106 45t108 -45t47 -106zM227 1306q0 62 44 107q45 45 107 45t108 -45t46 -106t-46 -107t-108 -45q-62 0 -107 44q-44 45 -44 107zM1063 0h-934v1004h291v-736h350v736h293v-1004z" />
    <glyph glyph-name="y.ss01" horiz-adv-x="1167" 
d="M733 -397h-303v397l-399 1004h321l232 -629l231 629h322l-404 -1004v-397z" />
    <glyph glyph-name="yacute.ss01" horiz-adv-x="1105" 
d="M551 1436h369l-246 -291h-275zM723 -397h-303v397l-400 1004h322l231 -629l232 629h321l-403 -1004v-397z" />
    <glyph glyph-name="ydieresis.ss01" horiz-adv-x="1167" 
d="M649 1306q0 62 44 107q45 45 107 45t108 -45t46 -106t-46 -107t-108 -45q-62 0 -107 44q-44 45 -44 107zM215 1306q0 62 44 107q45 45 107 45t108 -45t46 -106t-46 -107t-108 -45q-62 0 -107 44q-44 45 -44 107zM733 -397h-303v397l-399 1004h321l232 -629l231 629h322
l-404 -1004v-397z" />
    <glyph glyph-name="period.ss01" horiz-adv-x="690" 
d="M133 179q-1 85 59 143t145 59q85 0 143 -58q58 -57 58 -143t-58 -144t-143 -58t-145 58t-59 143z" />
    <glyph glyph-name="colon.ss01" horiz-adv-x="690" 
d="M337 621q-85 0 -145 58t-59 143q-1 86 59 144t145 58t143 -58t58 -144t-58 -143q-58 -58 -143 -58zM133 179q-1 85 59 143t145 59q85 0 143 -58q58 -57 58 -143t-58 -144t-143 -58t-145 58t-59 143z" />
    <glyph glyph-name="comma.ss01" horiz-adv-x="690" 
d="M285 -315l-246 110l190 469l267 -121z" />
    <glyph glyph-name="semicolon.ss01" horiz-adv-x="690" 
d="M337 621q-85 0 -145 58t-59 143q-1 86 59 144t145 58t143 -58t58 -144t-58 -143q-58 -58 -143 -58zM285 -315l-246 110l190 469l267 -121z" />
    <glyph glyph-name="ellipsis.ss01" horiz-adv-x="1718" 
d="M1180 179q0 85 59 143t144 59q85 0 143 -58q58 -57 59 -143q0 -86 -58 -144q-57 -58 -143 -58t-145 58t-59 143zM655 179q-1 85 59 143t145 59q85 0 143 -58q58 -57 58 -143t-58 -144t-143 -58t-145 58t-59 143zM133 179q-1 85 59 143t145 59q85 0 143 -58
q58 -57 58 -143t-58 -144t-143 -58t-145 58t-59 143z" />
    <glyph glyph-name="question.ss01" horiz-adv-x="1118" 
d="M664 463h-299v368h96q119 -1 197 53t79 131q0 77 -54 120t-138 43q-182 0 -291 -166l-193 205q76 113 203 177t279 64q209 0 353 -123t144 -317q0 -162 -103 -280t-273 -152v-123zM317 179q-1 85 59 143t145 59q85 0 143 -58q58 -57 59 -143q0 -86 -58 -144
q-57 -58 -143 -58t-146 58t-59 143z" />
    <glyph glyph-name="questiondown.ss01" horiz-adv-x="1118" 
d="M750 575v-368h-97q-119 0 -197 -53q-78 -52 -79 -130q0 -78 54 -120t138 -43q182 0 291 166l193 -205q-76 -114 -203 -178t-279 -64q-209 0 -353 123t-144 317q0 162 103 280t274 153v122h299zM797 859q1 -85 -59 -143t-145 -58t-143 58t-58 143t58 143t143 58t145 -58
t59 -143z" />
    <glyph glyph-name="exclam.ss01" horiz-adv-x="690" 
d="M188 463v973h301v-973h-301zM143 179q-1 85 59 143t145 59q85 0 143 -58q58 -57 58 -143t-58 -144t-143 -58t-145 58t-59 143z" />
    <glyph glyph-name="exclamdown.ss01" horiz-adv-x="690" 
d="M504 575v-972h-301v972h301zM549 859q1 -85 -59 -143t-145 -58t-143 58t-58 143t58 143t143 58t145 -58t59 -143z" />
    <glyph glyph-name="quotedblleft.ss01" horiz-adv-x="962" 
d="M672 1454l246 -111l-191 -469l-266 121zM274 1454l246 -111l-190 -469l-267 121z" />
    <glyph glyph-name="quotedblright.ss01" horiz-adv-x="962" 
d="M266 911l-246 111l191 469l266 -121zM664 911l-246 111l190 469l266 -121z" />
    <glyph glyph-name="quoteleft.ss01" horiz-adv-x="604" 
d="M274 1454l246 -111l-190 -469l-267 121z" />
    <glyph glyph-name="quoteright.ss01" horiz-adv-x="604" 
d="M307 907l-246 111l191 469l266 -121z" />
    <glyph glyph-name="quotesinglbase.ss01" horiz-adv-x="604" 
d="M307 -315l-246 110l191 469l266 -121z" />
    <glyph glyph-name="quotedblbase.ss01" horiz-adv-x="962" 
d="M266 -303l-246 110l191 469l266 -120zM664 -303l-246 110l190 469l266 -120z" />
    <glyph glyph-name="ampersand.ss01" horiz-adv-x="1431" 
d="M430 442q0 -76 51 -120t131 -43h244v329h-262q-68 0 -116 -45t-48 -121zM748 1157h-123q-49 0 -93 -31t-45 -95q0 -64 39 -104t101 -40h229v549h301v-549h197v-279h-197v-608h-539q-215 0 -352 105t-137 307q0 106 62 214t151 150q-63 45 -111 121q-47 76 -47 160
q0 193 133 285t361 94h70v-279z" />
    <glyph glyph-name="germandbls.ss01" horiz-adv-x="1320" 
d="M602 598v279l209 276h-369v-1153h-309v1434h1032v-271l-235 -299q145 -38 232 -148t87 -259q0 -215 -132 -336t-365 -121h-150v299h137q201 0 201 147q0 152 -201 152h-137z" />
    <glyph glyph-name="dollar.ss01" horiz-adv-x="1400" 
d="M139 1020q0 174 118 287t296 141v221h301v-231q213 -49 369 -209l-205 -215q-162 166 -365 166q-96 0 -153 -39t-58 -103q0 -115 205 -151l141 -23q483 -78 484 -448q0 -166 -112 -279t-306 -147v-223h-301v225q-281 49 -449 260l209 211q160 -207 406 -207q117 0 183 44
t67 112q0 114 -201 151l-176 31q-211 36 -332 144t-121 282z" />
    <glyph glyph-name="zero.ss02" horiz-adv-x="1349" 
d="M674 -23q-264 0 -418 209t-154 533q0 323 154 531t418 208t418 -208t154 -532t-154 -532q-154 -209 -418 -209zM674 264q133 0 195 110q63 110 63 346t-62 344t-196 108q-133 0 -196 -109q-62 -109 -62 -345t62 -344q62 -110 196 -110z" />
    <glyph glyph-name="one.ss02" horiz-adv-x="788" 
d="M324 0v899l-242 -174v309l522 422h21v-1456h-301z" />
    <glyph glyph-name="two.ss02" horiz-adv-x="1265" 
d="M780 1011q0 61 -52 115t-139 54t-161 -44t-158 -161l-188 188q74 135 211 215t295 80q203 0 350 -116t147 -310q0 -115 -47 -206t-168 -246l-233 -299h489v-281h-1034v29l598 776q54 73 72 109t18 97z" />
    <glyph glyph-name="three.ss02" horiz-adv-x="1271" 
d="M1094 1436v-29l-316 -500q152 -35 252 -155t100 -319q0 -198 -152 -327t-374 -129q-313 0 -500 230l207 207q106 -158 275 -158q98 0 159 56t61 146t-62 145q-64 54 -185 54h-235v21l301 487h-463v271h932z" />
    <glyph glyph-name="four.ss02" horiz-adv-x="1312" 
d="M729 571v267l-207 -267h207zM1032 1456v-885h199v-268h-199v-303h-303v303h-729v29l930 1124h102z" />
    <glyph glyph-name="five.ss02" horiz-adv-x="1257" 
d="M582 256q106 0 176 64t69 161q0 96 -67 158q-68 61 -162 61q-145 0 -213 -129l-272 86l176 779h747v-279h-518l-63 -237q80 47 200 47q199 0 349 -126q150 -125 150 -349t-155 -369q-154 -145 -401 -146q-319 0 -506 216l209 206q117 -143 281 -143z" />
    <glyph glyph-name="six.ss02" horiz-adv-x="1269" 
d="M399 494q0 -106 67 -176t169 -68q102 0 167 68q64 68 64 176q0 106 -64 175q-65 69 -167 69t-169 -70q-67 -68 -67 -174zM630 -20q-226 0 -378 150q-150 150 -150 392q0 121 53 249q52 128 138 235l350 432h332l-369 -443q33 12 96 13q193 0 327 -146t134 -367
q0 -222 -153 -369q-154 -146 -380 -146z" />
    <glyph glyph-name="seven.ss02" horiz-adv-x="1140" 
d="M82 1161v275h1014v-29l-500 -1407h-332l430 1161h-612z" />
    <glyph glyph-name="eight.ss02" horiz-adv-x="1290" 
d="M645 1212q-61 0 -105 -42t-44 -103t39 -104t111 -43t111 42q38 42 38 104t-44 104q-45 42 -106 42zM645 670q-90 0 -152 -60q-63 -60 -63 -150q0 -88 64 -146t151 -58q88 0 152 57q63 57 63 147t-62 150t-153 60zM642 -20q-212 0 -366 124t-153 349q0 115 59 207t133 141
q-49 41 -86 111t-36 151q0 174 131 285q131 110 321 110t322 -110q131 -111 131 -285q0 -80 -37 -151t-86 -111q74 -49 133 -141t59 -207q0 -221 -156 -348q-157 -125 -369 -125z" />
    <glyph glyph-name="nine.ss02" horiz-adv-x="1261" 
d="M856 944q0 106 -66 175q-67 69 -169 69t-167 -69t-65 -175t65 -175t167 -69t169 69q66 69 66 175zM92 942q0 222 154 370q154 146 380 146t376 -150t151 -393q0 -121 -52 -249t-138 -234l-351 -432h-331l368 442q-35 -12 -96 -12q-193 0 -327 145t-134 367z" />
    <glyph glyph-name="A.ss02" horiz-adv-x="1449" 
d="M719 881l-150 -338h301zM735 1470l692 -1470h-315l-129 272h-526l-127 -272h-307l684 1470h28z" />
    <glyph glyph-name="Aacute.ss02" horiz-adv-x="1449" 
d="M702 1786h349l-201 -211h-299zM719 881l-150 -338h301zM735 1470l692 -1470h-315l-129 272h-526l-127 -272h-307l684 1470h28z" />
    <glyph glyph-name="Agrave.ss02" horiz-adv-x="1449" 
d="M373 1786h348l151 -211h-299zM719 881l-150 -338h301zM735 1470l692 -1470h-315l-129 272h-526l-127 -272h-307l684 1470h28z" />
    <glyph glyph-name="Acircumflex.ss02" horiz-adv-x="1449" 
d="M543 1786h356l174 -211h-274l-78 82l-78 -82h-276zM719 881l-150 -338h301zM735 1470l692 -1470h-315l-129 272h-526l-127 -272h-307l684 1470h28z" />
    <glyph glyph-name="Atilde.ss02" horiz-adv-x="1449" 
d="M1057 1798q-1 -104 -55 -180t-144 -76q-14 0 -88 17l-84 26q-35 10 -61 10q-53 0 -56 -53h-186q0 104 53 180t146 76q25 0 88 -14l84 -27q41 -12 61 -12q53 0 55 53h187zM719 881l-150 -338h301zM735 1470l692 -1470h-315l-129 272h-526l-127 -272h-307l684 1470h28z" />
    <glyph glyph-name="Adieresis.ss02" horiz-adv-x="1449" 
d="M778 1668q0 62 44 108t106 45q62 0 109 -45q46 -44 46 -106t-46 -107t-108 -45t-107 44q-44 44 -44 106zM344 1668q0 62 44 108t106 45q62 0 109 -45q46 -44 46 -106t-46 -107t-108 -45t-107 44q-44 44 -44 106zM719 881l-150 -338h301zM735 1470l692 -1470h-315
l-129 272h-526l-127 -272h-307l684 1470h28z" />
    <glyph glyph-name="Aring.ss02" horiz-adv-x="1449" 
d="M649 1587q1 -27 21 -47t48 -20t48 20t20 47t-20 47t-48 20t-48 -20t-21 -47zM719 901l-150 -348h301zM502 1598q0 85 64 148q65 62 155 62t156 -62q65 -62 65 -148t-46 -145q-46 -58 -118 -77l649 -1376h-315l-129 283h-526l-127 -283h-307l639 1376q-68 18 -114 78
t-46 144z" />
    <glyph glyph-name="AE.ss02" horiz-adv-x="1888" 
d="M719 901l-152 -348h305zM1759 1436v-279h-858l135 -297h688v-278h-561l137 -303h459v-279h-647l-129 283h-522l-131 -283h-307l684 1436h1052z" />
    <glyph glyph-name="K.ss02" horiz-adv-x="1273" 
d="M444 0h-305v1436h305v-568l396 568h344l-492 -697l525 -739h-367l-406 586v-586z" />
    <glyph glyph-name="M.ss02" horiz-adv-x="1773" 
d="M444 0h-305v1470h29l721 -841l717 841h28v-1470h-303v721l-426 -520h-28l-433 520v-721z" />
    <glyph glyph-name="N.ss02" horiz-adv-x="1527" 
d="M444 0h-305v1470h29l917 -870v836h304v-1471h-29l-916 864v-829z" />
    <glyph glyph-name="Ntilde.ss02" horiz-adv-x="1527" 
d="M1069 1798q0 -104 -54 -180t-145 -76q-14 0 -88 17l-84 26q-35 10 -61 10q-53 0 -55 -53h-187q-1 104 53 180t146 76q25 0 88 -14l84 -27q41 -12 61 -12q54 0 56 53h186zM444 0h-305v1470h29l917 -870v836h304v-1471h-29l-916 864v-829z" />
    <glyph glyph-name="Q.ss02" horiz-adv-x="1679" 
d="M1253 718q0 189 -119 321q-120 132 -312 132t-310 -131t-117 -320q0 -190 120 -322q119 -132 311 -132t310 131q117 132 117 321zM82 718q0 320 213 530t525 210t528 -210t215 -529q0 -240 -131 -430l163 -164l-194 -193l-166 164q-186 -119 -416 -119q-311 0 -524 210
q-213 211 -213 531z" />
    <glyph glyph-name="R.ss02" horiz-adv-x="1351" 
d="M690 1155h-246v-416h246q289 0 289 226q0 190 -289 190zM444 461v-461h-305v1436h582q253 0 407 -124t154 -345q0 -172 -94 -298t-258 -177l395 -492h-364l-357 461h-160z" />
    <glyph glyph-name="S.ss02" horiz-adv-x="1232" 
d="M158 1047q0 195 137 303t336 108q139 0 259 -59t193 -152l-196 -198q-111 133 -279 133q-72 0 -112 -38t-39 -87q0 -49 35 -86t120 -72l203 -84q164 -68 250 -159t86 -244q0 -201 -144 -318t-386 -117q-167 0 -305 76t-224 197l199 203q152 -201 356 -201q102 0 154 41
q51 41 51 106q0 99 -147 156l-211 84q-336 133 -336 408z" />
    <glyph glyph-name="Scaron.ss02" horiz-adv-x="1232" 
d="M811 1575h-356l-176 211h276l78 -84l78 84h274zM158 1047q0 195 137 303t336 108q139 0 259 -59t193 -152l-196 -198q-111 133 -279 133q-72 0 -112 -38t-39 -87q0 -49 35 -86t120 -72l203 -84q164 -68 250 -159t86 -244q0 -201 -144 -318t-386 -117q-167 0 -305 76
t-224 197l199 203q152 -201 356 -201q102 0 154 41q51 41 51 106q0 99 -147 156l-211 84q-336 133 -336 408z" />
    <glyph glyph-name="V.ss02" horiz-adv-x="1316" 
d="M322 1436l337 -846l338 846h310l-633 -1471h-29l-633 1471h310z" />
    <glyph glyph-name="W.ss02" horiz-adv-x="1947" 
d="M1389 -35l-418 893l-418 -893h-29l-495 1471h309l242 -756l376 790h29l377 -790l242 756h309l-496 -1471h-28z" />
    <glyph glyph-name="Z.ss02" horiz-adv-x="1429" 
d="M178 1436h1125v-29l-697 -1126h682v-281h-1184v29l701 1126h-627v281z" />
    <glyph glyph-name="Zcaron.ss02" horiz-adv-x="1357" 
d="M913 1575h-356l-176 211h276l78 -84l78 84h274zM178 1436h1125v-29l-697 -1126h682v-281h-1184v29l701 1126h-627v281z" />
    <glyph glyph-name="a.ss02" horiz-adv-x="1298" 
d="M373 508q-1 -102 71 -180t182 -78t180 77t71 181q0 104 -70 177t-181 73t-182 -74t-71 -176zM72 502q0 223 153 375q154 152 373 151q180 0 279 -92v68h292v-1004h-292v74q-117 -96 -279 -97q-219 0 -373 151q-153 151 -153 374z" />
    <glyph glyph-name="aacute.ss02" horiz-adv-x="1298" 
d="M586 1436h368l-245 -291h-275zM373 508q-1 -102 71 -180t182 -78t180 77t71 181q0 104 -70 177t-181 73t-182 -74t-71 -176zM72 502q0 223 153 375q154 152 373 151q180 0 279 -92v68h292v-1004h-292v74q-117 -96 -279 -97q-219 0 -373 151q-153 151 -153 374z" />
    <glyph glyph-name="agrave.ss02" horiz-adv-x="1298" 
d="M293 1436h369l151 -291h-274zM373 508q-1 -102 71 -180t182 -78t180 77t71 181q0 104 -70 177t-181 73t-182 -74t-71 -176zM72 502q0 223 153 375q154 152 373 151q180 0 279 -92v68h292v-1004h-292v74q-117 -96 -279 -97q-219 0 -373 151q-153 151 -153 374z" />
    <glyph glyph-name="acircumflex.ss02" horiz-adv-x="1298" 
d="M467 1436h334l186 -291h-252l-102 121l-101 -121h-251zM373 508q-1 -102 71 -180t182 -78t180 77t71 181q0 104 -70 177t-181 73t-182 -74t-71 -176zM72 502q0 223 153 375q154 152 373 151q180 0 279 -92v68h292v-1004h-292v74q-117 -96 -279 -97q-219 0 -373 151
q-153 151 -153 374z" />
    <glyph glyph-name="adieresis.ss02" horiz-adv-x="1298" 
d="M686 1306q0 62 44 107t106 45t109 -45q46 -45 46 -106t-46 -107t-108 -45q-62 0 -107 44q-44 45 -44 107zM557 1307q0 -61 -46 -107q-47 -46 -109 -45t-106 45t-44 106t44 107t106 45t108 -45t47 -106zM373 508q-1 -102 71 -180t182 -78t180 77t71 181q0 104 -70 177
t-181 73t-182 -74t-71 -176zM72 502q0 223 153 375q154 152 373 151q180 0 279 -92v68h292v-1004h-292v74q-117 -96 -279 -97q-219 0 -373 151q-153 151 -153 374z" />
    <glyph glyph-name="atilde.ss02" horiz-adv-x="1298" 
d="M952 1436q0 -104 -54 -180t-144 -76q-14 0 -88 16l-84 27q-35 10 -62 10q-53 0 -55 -53h-186q0 104 53 180t145 76q23 0 88 -15l84 -26q41 -12 62 -13q53 1 55 54h186zM373 508q-1 -102 71 -180t182 -78t180 77t71 181q0 104 -70 177t-181 73t-182 -74t-71 -176zM72 502
q0 223 153 375q154 152 373 151q180 0 279 -92v68h292v-1004h-292v74q-117 -96 -279 -97q-219 0 -373 151q-153 151 -153 374z" />
    <glyph glyph-name="aring.ss02" horiz-adv-x="1298" 
d="M662 1284q0 20 -14 34t-36 13q-20 0 -34 -13q-14 -14 -14 -34t14 -34t34 -13q20 -1 35 13t15 34zM434 1284q0 72 52 123t126 51t126 -51t52 -123t-52 -123t-126 -51t-126 51t-52 123zM373 508q-1 -102 71 -180t182 -78t180 77t71 181q0 104 -70 177t-181 73t-182 -74
t-71 -176zM72 502q0 223 153 375q154 152 373 151q180 0 279 -92v68h292v-1004h-292v74q-117 -96 -279 -97q-219 0 -373 151q-153 151 -153 374z" />
    <glyph glyph-name="k.ss02" horiz-adv-x="1079" 
d="M129 0v1436h291v-774l244 342h333l-356 -482l397 -522h-350l-268 362v-362h-291z" />
    <glyph glyph-name="v.ss02" horiz-adv-x="1011" 
d="M1012 1004l-490 -1024h-28l-494 1024h309l199 -455l194 455h310z" />
    <glyph glyph-name="w.ss02" horiz-adv-x="1515" 
d="M487 571l256 453h29l256 -453l176 433h312l-426 -1024h-27l-305 555l-305 -555h-27l-426 1024h311z" />
    <glyph glyph-name="z.ss02" horiz-adv-x="1103" 
d="M135 1004h852v-27l-461 -715h455v-262h-899v29l455 714h-402v261z" />
    <glyph glyph-name="zcaron.ss02" horiz-adv-x="1034" 
d="M723 1145h-334l-186 291h252l100 -121l102 121h252zM135 1004h852v-27l-461 -715h455v-262h-899v29l455 714h-402v261z" />
    <glyph glyph-name="question.ss02" horiz-adv-x="1044" 
d="M348 156q0 74 50 125t124 51t126 -51t52 -125t-52 -125t-126 -51t-124 51t-50 125zM651 1118q0 63 -102 64q-150 0 -264 -158l-183 195q66 104 181 172t245 67q178 0 296 -95t118 -233t-71 -214q-71 -75 -228 -140l-98 -41q-57 -25 -58 -69q0 -52 68 -52q35 0 80 43
l135 -172q-111 -113 -266 -112q-119 0 -206 83t-87 203q0 221 252 330l94 41q53 23 74 42q20 19 20 46z" />
    <glyph glyph-name="questiondown.ss02" horiz-adv-x="1003" 
d="M696 852q0 -74 -50 -125t-124 -51t-126 51t-52 125t52 125t126 51t124 -51t50 -125zM557 342q0 51 -67 51q-35 0 -80 -43l-136 172q111 113 267 113q119 0 205 -83t88 -204q0 -248 -252 -330l-95 -30q-94 -31 -94 -90q0 -32 29 -52t80 -20q143 0 258 158l182 -195
q-66 -104 -180 -172t-246 -68q-178 -1 -296 97t-118 250q0 254 299 346l99 30q57 25 57 70z" />
    <glyph glyph-name="ampersand.ss02" horiz-adv-x="1431" 
d="M766 1100q0 34 -22 60t-67 26q-44 0 -70 -25q-61 -59 28 -180l18 -25l17 11q96 59 96 133zM586 242q115 0 207 84l-224 290l-24 -14q-133 -80 -133 -192q0 -78 53 -123t121 -45zM666 1458q170 0 282 -93t113 -241q0 -223 -223 -354l-25 -16l193 -248l168 137l165 -211
l-170 -141l232 -291h-350l-90 117q-176 -139 -386 -140q-335 0 -434 281q-25 72 -24 148q0 262 250 407l34 21q-49 66 -69 98q-58 95 -60 192q0 138 112 236t282 98z" />
    <glyph glyph-name="germandbls.ss02" horiz-adv-x="1296" 
d="M565 268h140q100 0 158 47t59 125q0 154 -217 154h-140v268h99q90 0 141 46t51 119t-54 118t-147 45q-248 0 -247 -309v-881h-291v881q0 266 149 422q150 156 400 155q197 0 341 -118t144 -298q0 -90 -37 -168t-94 -120q195 -117 194 -326q0 -182 -128 -305t-351 -123
h-170v268z" />
    <glyph glyph-name="dollar.ss02" horiz-adv-x="1232" 
d="M158 1047q0 164 100 268t258 133v221h248v-227q195 -45 319 -195l-196 -198q-111 133 -279 133q-72 0 -112 -38t-39 -87q0 -49 35 -86t120 -72l203 -84q164 -68 250 -159q86 -92 86 -252t-103 -271t-284 -143v-223h-248v219q-264 41 -424 264l199 203q152 -201 356 -201
q102 0 154 41q51 41 51 106q0 99 -147 156l-211 84q-336 133 -336 408z" />
    <glyph glyph-name="zero.ss03" horiz-adv-x="1349" 
d="M106 719q0 331 152 535t418 204t418 -205t152 -535t-152 -536q-152 -205 -418 -205t-418 205t-152 537zM942 719q0 215 -69 338t-197 123t-198 -123q-68 -123 -68 -338t68 -339t198 -124t198 124t68 339z" />
    <glyph glyph-name="one.ss03" horiz-adv-x="886" 
d="M356 0v993h-295v226q152 8 233 57t126 160h242v-1436h-306z" />
    <glyph glyph-name="two.ss03" horiz-adv-x="1103" 
d="M715 1035q0 61 -41 103t-116 42t-123 -52t-52 -147h-305q10 215 146 346t337 131t331 -117t130 -297q0 -246 -283 -442l-166 -117q-133 -94 -153 -204h596v-281h-955v47q1 233 93 398t333 329l76 51q82 53 117 101t35 109z" />
    <glyph glyph-name="three.ss03" horiz-adv-x="1234" 
d="M602 -23q-222 0 -356 123q-135 123 -154 308h305q15 -74 69 -113t136 -39t137 50t55 120t-50 116t-152 46h-158v282h94q215 0 215 164q0 70 -45 108t-108 38q-135 0 -162 -138h-305q18 197 150 307q132 109 318 109q185 0 321 -101t137 -286q-1 -100 -47 -183t-109 -120
q86 -43 145 -130t60 -208q0 -203 -137 -328t-359 -125z" />
    <glyph glyph-name="four.ss03" horiz-adv-x="1298" 
d="M715 571v482l-330 -482h330zM1217 303h-199v-303h-303v303h-645v250l614 883h334v-865h199v-268z" />
    <glyph glyph-name="five.ss03" horiz-adv-x="1200" 
d="M862 467q0 99 -62 161t-173 62q-70 0 -129 -37t-86 -100h-281l35 883h887v-281h-598l-19 -266q84 68 230 67q205 0 353 -136t148 -355q1 -219 -155 -353t-396 -135q-198 0 -338 123t-165 303h305q20 -79 80 -115t144 -36q83 0 152 58q68 59 68 157z" />
    <glyph glyph-name="six.ss03" horiz-adv-x="1284" 
d="M686 684q-92 0 -154 -58t-63 -152q0 -94 61 -156q60 -64 156 -64t154 58q57 58 57 156t-59 157q-60 59 -152 59zM700 1206q-110 0 -188 -92t-78 -272q100 110 294 110t334 -131t140 -350t-152 -356t-372 -138q-262 -1 -408 183t-145 526q0 342 147 557t443 215
q188 0 322 -112t137 -279h-289q-7 61 -61 100t-124 39z" />
    <glyph glyph-name="seven.ss03" horiz-adv-x="1187" 
d="M82 1155v281h1048v-265q-428 -444 -483 -1089l-6 -82h-309l8 80q53 627 422 1075h-680z" />
    <glyph glyph-name="eight.ss03" horiz-adv-x="1273" 
d="M420 428q0 -80 60 -126t158 -46t157 46t59 126t-59 127t-157 47t-158 -47t-60 -127zM819 1024q0 72 -53 114t-128 42t-129 -42t-54 -114t54 -114t129 -42t128 42t53 114zM637 -23q-227 0 -374 118q-146 118 -146 317q0 114 51 198t129 129q-145 119 -145 299t138 300
t347 120t347 -121t138 -300t-143 -298q76 -45 127 -130t51 -197q-1 -199 -147 -317t-373 -118z" />
    <glyph glyph-name="nine.ss03" horiz-adv-x="1249" 
d="M621 752q92 0 154 58q63 58 63 152t-62 156q-62 64 -156 64q-96 0 -153 -58t-57 -156q0 -97 59 -157q60 -59 152 -59zM606 229q109 1 188 93t78 272q-100 -111 -294 -111t-333 131q-141 130 -141 350t153 357t372 137q262 0 407 -183q146 -183 146 -525t-148 -557
t-442 -216q-188 0 -323 113q-134 113 -136 279h289q8 -61 61 -101t123 -39z" />
    <glyph glyph-name="A.ss03" 
d="M729 1022l-149 -387h294zM874 1436l562 -1436h-316l-151 365h-490l-141 -365h-315l561 1436h290z" />
    <glyph glyph-name="Aacute.ss03" 
d="M668 1786h348l-201 -211h-299zM729 1022l-149 -387h294zM874 1436l562 -1436h-316l-151 365h-490l-141 -365h-315l561 1436h290z" />
    <glyph glyph-name="Agrave.ss03" 
d="M385 1786h348l152 -211h-299zM729 1022l-149 -387h294zM874 1436l562 -1436h-316l-151 365h-490l-141 -365h-315l561 1436h290z" />
    <glyph glyph-name="Acircumflex.ss03" 
d="M541 1786h356l174 -211h-274l-78 82l-78 -82h-276zM729 1022l-149 -387h294zM874 1436l562 -1436h-316l-151 365h-490l-141 -365h-315l561 1436h290z" />
    <glyph glyph-name="Adieresis.ss03" 
d="M803 1575v211h235v-211h-235zM422 1575v211h235v-211h-235zM729 1022l-149 -387h294zM874 1436l562 -1436h-316l-151 365h-490l-141 -365h-315l561 1436h290z" />
    <glyph glyph-name="Atilde.ss03" 
d="M1042 1786q0 -104 -54 -180t-144 -76q-14 0 -88 16l-84 27q-35 10 -62 10q-53 0 -55 -53h-186q0 104 53 180t145 76q25 0 88 -14l84 -27q41 -12 62 -12q53 0 55 53h186zM729 1022l-149 -387h294zM874 1436l562 -1436h-316l-151 365h-490l-141 -365h-315l561 1436h290z
" />
    <glyph glyph-name="Aring.ss03" 
d="M657 1587q1 -27 21 -47t48 -20t48 20t21 47q-1 27 -21 47t-48 20t-48 -20t-21 -47zM729 1022l-149 -387h294zM510 1587q0 96 64 159q65 62 155 62t156 -62q65 -62 65 -158t-71 -163l557 -1425h-316l-151 365h-490l-141 -365h-315l557 1427q-70 64 -70 160z" />
    <glyph glyph-name="AE.ss03" horiz-adv-x="1910" 
d="M729 1022l-149 -387h294zM1757 0h-637l-151 365h-490l-141 -365h-315l561 1436h1173v-279h-774l117 -297h622v-278h-514l119 -303h430v-279z" />
    <glyph glyph-name="C.ss03" horiz-adv-x="1359" 
d="M780 1182q-174 0 -275 -136t-101 -329t98 -328q100 -135 288 -135t310 164l188 -203q-188 -238 -498 -238t-498 214q-190 215 -190 527t188 526t489 214q302 0 489 -233l-185 -199q-69 80 -137 118t-166 38z" />
    <glyph glyph-name="Ccedilla.ss03" horiz-adv-x="1390" 
d="M779 1458q302 0 489 -233l-185 -199q-69 80 -137 118t-166 38q-174 0 -275 -136t-101 -329t98 -328q100 -135 288 -135t310 164l188 -203q-150 -190 -397 -227l-107 -269h-292l141 275q-240 51 -385 252q-146 200 -146 492t188 506t489 214z" />
    <glyph glyph-name="D.ss03" horiz-adv-x="1392" 
d="M143 1434h488q295 0 477 -188t182 -529t-182 -529t-477 -188h-488v1434zM596 1155h-150v-879h150q195 0 295 114t100 327t-100 325t-295 113z" />
    <glyph glyph-name="Edieresis.ss03" horiz-adv-x="1337" 
d="M764 1575v211h235v-211h-235zM383 1575v211h235v-211h-235zM152 0v1436h1058v-281h-753v-285h719v-276h-719v-313h753v-281h-1058z" />
    <glyph glyph-name="G.ss03" horiz-adv-x="1566" 
d="M854 518v281h596v-799h-268v143q-66 -80 -174 -123t-228 -43q-284 0 -480 201q-196 202 -196 526t207 539t525 215q358 0 581 -258l-200 -207q-157 181 -349 181t-321 -136t-129 -332t110 -320t275 -124q131 0 224 66t118 190h-291z" />
    <glyph glyph-name="Idieresis.ss03" horiz-adv-x="606" 
d="M377 1575v211h235v-211h-235zM-4 1575v211h235v-211h-235zM152 0v1436h303v-1436h-303z" />
    <glyph glyph-name="J.ss03" horiz-adv-x="1150" 
d="M719 496v940h301v-942q0 -240 -134 -378t-356 -138t-346 128q-125 129 -125 363v43h301v-43q0 -213 175 -213q184 0 184 240z" />
    <glyph glyph-name="M.ss03" horiz-adv-x="1865" 
d="M1722 1436v-1436h-307v1069l-313 -1069h-348l-305 1069v-1069h-306v1436h502l283 -1016l289 1016h505z" />
    <glyph glyph-name="O.ss03" horiz-adv-x="1544" 
d="M406 718q0 -204 96 -333t272 -129t272 129q95 129 95 333t-95 333q-94 129 -270 129t-273 -129t-97 -333zM769 -23q-299 0 -483 208t-184 533q0 324 184 532t483 208q298 0 485 -209q188 -209 188 -533t-188 -531q-188 -208 -485 -208z" />
    <glyph glyph-name="Oacute.ss03" horiz-adv-x="1544" 
d="M731 1786h348l-200 -211h-299zM406 718q0 -204 96 -333t272 -129t272 129q95 129 95 333t-95 333q-94 129 -270 129t-273 -129t-97 -333zM769 -23q-299 0 -483 208t-184 533q0 324 184 532t483 208q298 0 485 -209q188 -209 188 -533t-188 -531q-188 -208 -485 -208z" />
    <glyph glyph-name="Ograve.ss03" horiz-adv-x="1544" 
d="M471 1786h348l152 -211h-299zM406 718q0 -204 96 -333t272 -129t272 129q95 129 95 333t-95 333q-94 129 -270 129t-273 -129t-97 -333zM769 -23q-299 0 -483 208t-184 533q0 324 184 532t483 208q298 0 485 -209q188 -209 188 -533t-188 -531q-188 -208 -485 -208z" />
    <glyph glyph-name="Ocircumflex.ss03" horiz-adv-x="1544" 
d="M588 1786h356l174 -211h-274l-78 82l-78 -82h-276zM406 718q0 -204 96 -333t272 -129t272 129q95 129 95 333t-95 333q-94 129 -270 129t-273 -129t-97 -333zM769 -23q-299 0 -483 208t-184 533q0 324 184 532t483 208q298 0 485 -209q188 -209 188 -533t-188 -531
q-188 -208 -485 -208z" />
    <glyph glyph-name="Otilde.ss03" horiz-adv-x="1544" 
d="M1106 1786q0 -104 -54 -180t-145 -76q-14 0 -88 16l-84 27q-35 10 -61 10q-53 0 -56 -53h-186q0 104 53 180t146 76q25 0 88 -14l84 -27q41 -12 61 -12q54 0 56 53h186zM406 718q0 -204 96 -333t272 -129t272 129q95 129 95 333t-95 333q-94 129 -270 129t-273 -129
t-97 -333zM769 -23q-299 0 -483 208t-184 533q0 324 184 532t483 208q298 0 485 -209q188 -209 188 -533t-188 -531q-188 -208 -485 -208z" />
    <glyph glyph-name="Odieresis.ss03" horiz-adv-x="1544" 
d="M852 1575v211h235v-211h-235zM471 1575v211h236v-211h-236zM406 718q0 -204 96 -333t272 -129t272 129q95 129 95 333t-95 333q-94 129 -270 129t-273 -129t-97 -333zM769 -23q-299 0 -483 208t-184 533q0 324 184 532t483 208q298 0 485 -209q188 -209 188 -533
t-188 -531q-188 -208 -485 -208z" />
    <glyph glyph-name="Q.ss03" horiz-adv-x="1556" 
d="M406 727q0 -205 97 -338t272 -133t271 133q95 133 95 338t-95 329q-96 124 -272 124t-272 -124t-96 -329zM102 728q0 322 184 526t483 204q298 0 485 -204t188 -525q0 -276 -137 -467l180 17v-279h-723q-296 2 -478 204t-182 524z" />
    <glyph glyph-name="R.ss03" horiz-adv-x="1368" 
d="M725 1155h-281v-364h281q131 0 193 45q61 45 61 137q0 182 -254 182zM604 512h-160v-512h-305v1436h582q257 0 409 -118t152 -329q0 -123 -70 -226t-188 -155q96 -59 140 -129t73 -180l80 -299h-324l-55 231q-25 102 -51 156q-27 53 -95 89t-188 36z" />
    <glyph glyph-name="Udieresis.ss03" horiz-adv-x="1462" 
d="M803 1575v211h235v-211h-235zM422 1575v211h235v-211h-235zM1030 627v809h303v-799q1 -322 -159 -491t-443 -169t-443 169t-159 491v799h303v-813q0 -163 76 -265t223 -102q299 0 299 371z" />
    <glyph glyph-name="Ydieresis.ss03" horiz-adv-x="1323" 
d="M748 1575v211h235v-211h-235zM367 1575v211h235v-211h-235zM811 0h-301v502l-475 934h332l295 -605l296 605h332l-479 -934v-502z" />
    <glyph glyph-name="a.ss03" horiz-adv-x="1083" 
d="M367 313q1 -35 29 -57t73 -23q168 0 168 179v12l-172 -27q-98 -16 -98 -84zM445 -23q-173 -1 -268 89t-95 215q0 276 338 319l217 27v32q0 49 -31 75t-80 26t-82 -23t-36 -69h-293q10 166 124 263q115 97 291 97t288 -87t112 -251v-362q0 -82 67 -82h35v-244
q-70 -6 -136 -6t-111 20q-46 20 -66 76q-101 -115 -274 -115z" />
    <glyph glyph-name="aacute.ss03" horiz-adv-x="1083" 
d="M518 1436h369l-246 -291h-274zM367 313q1 -35 29 -57t73 -23q168 0 168 179v12l-172 -27q-98 -16 -98 -84zM445 -23q-173 -1 -268 89t-95 215q0 276 338 319l217 27v32q0 49 -31 75t-80 26t-82 -23t-36 -69h-293q10 166 124 263q115 97 291 97t288 -87t112 -251v-362
q0 -82 67 -82h35v-244q-70 -6 -136 -6t-111 20q-46 20 -66 76q-101 -115 -274 -115z" />
    <glyph glyph-name="agrave.ss03" horiz-adv-x="1083" 
d="M231 1436h369l152 -291h-275zM367 313q1 -35 29 -57t73 -23q168 0 168 179v12l-172 -27q-98 -16 -98 -84zM445 -23q-173 -1 -268 89t-95 215q0 276 338 319l217 27v32q0 49 -31 75t-80 26t-82 -23t-36 -69h-293q10 166 124 263q115 97 291 97t288 -87t112 -251v-362
q0 -82 67 -82h35v-244q-70 -6 -136 -6t-111 20q-46 20 -66 76q-101 -115 -274 -115z" />
    <glyph glyph-name="acircumflex.ss03" horiz-adv-x="1083" 
d="M373 1436h334l186 -291h-252l-102 121l-101 -121h-252zM367 313q1 -35 29 -57t73 -23q168 0 168 179v12l-172 -27q-98 -16 -98 -84zM445 -23q-173 -1 -268 89t-95 215q0 276 338 319l217 27v32q0 49 -31 75t-80 26t-82 -23t-36 -69h-293q10 166 124 263q115 97 291 97
t288 -87t112 -251v-362q0 -82 67 -82h35v-244q-70 -6 -136 -6t-111 20q-46 20 -66 76q-101 -115 -274 -115z" />
    <glyph glyph-name="adieresis.ss03" horiz-adv-x="1083" 
d="M625 1225v211h235v-211h-235zM244 1225v211h235v-211h-235zM367 313q1 -35 29 -57t73 -23q168 0 168 179v12l-172 -27q-98 -16 -98 -84zM445 -23q-173 -1 -268 89t-95 215q0 276 338 319l217 27v32q0 49 -31 75t-80 26t-82 -23t-36 -69h-293q10 166 124 263
q115 97 291 97t288 -87t112 -251v-362q0 -82 67 -82h35v-244q-70 -6 -136 -6t-111 20q-46 20 -66 76q-101 -115 -274 -115z" />
    <glyph glyph-name="atilde.ss03" horiz-adv-x="1083" 
d="M870 1436q0 -104 -54 -180t-144 -76q-14 0 -88 16l-84 27q-35 10 -62 10q-53 0 -55 -53h-186q0 104 53 180t145 76q23 0 88 -15l84 -26q41 -12 62 -13q53 1 55 54h186zM367 313q1 -35 29 -57t73 -23q168 0 168 179v12l-172 -27q-98 -16 -98 -84zM445 -23q-173 -1 -268 89
t-95 215q0 276 338 319l217 27v32q0 49 -31 75t-80 26t-82 -23t-36 -69h-293q10 166 124 263q115 97 291 97t288 -87t112 -251v-362q0 -82 67 -82h35v-244q-70 -6 -136 -6t-111 20q-46 20 -66 76q-101 -115 -274 -115z" />
    <glyph glyph-name="aring.ss03" horiz-adv-x="1083" 
d="M584 1284q0 20 -14 34t-35 13q-21 0 -35 -13q-14 -14 -14 -34t14 -34t34 -13q20 -1 36 13q14 14 14 34zM356 1284q0 72 52 123t127 51q73 0 125 -51t52 -123t-52 -123t-126 -51t-126 51t-52 123zM367 313q1 -35 29 -57t73 -23q168 0 168 179v12l-172 -27q-98 -16 -98 -84
zM445 -23q-173 -1 -268 89t-95 215q0 276 338 319l217 27v32q0 49 -31 75t-80 26t-82 -23t-36 -69h-293q10 166 124 263q115 97 291 97t288 -87t112 -251v-362q0 -82 67 -82h35v-244q-70 -6 -136 -6t-111 20q-46 20 -66 76q-101 -115 -274 -115z" />
    <glyph glyph-name="ae.ss03" horiz-adv-x="1732" 
d="M387 313q0 -35 29 -57t73 -23q168 0 168 179v12l-172 -27q-98 -16 -98 -84zM1151 1028q229 0 356 -154t127 -360l-2 -86h-680q12 -82 72 -133t154 -51q154 0 245 116l193 -180q-162 -203 -430 -203q-231 0 -375 154q-137 -154 -360 -154q-158 -1 -253 89t-96 215
q0 276 338 319l217 27v32q0 49 -30 75q-31 26 -80 26t-82 -23t-37 -69h-293q10 166 124 263q113 97 307 97t288 -123q111 123 297 123zM1155 772q-74 0 -124 -41t-64 -108h360q-4 63 -51 106t-121 43z" />
    <glyph glyph-name="i.ss03" horiz-adv-x="538" 
d="M123 1159v277h293v-277h-293zM123 0v1004h293v-1004h-293z" />
    <glyph glyph-name="idieresis.ss03" horiz-adv-x="614" 
d="M358 1180v256h308v-256h-308zM-51 1180v256h307v-256h-307zM162 0v1004h293v-1004h-293z" />
    <glyph glyph-name="j.ss03" horiz-adv-x="569" 
d="M156 -14v1018h290v-1053q0 -358 -352 -359l-135 5v266h64q69 -1 101 25t32 98zM156 1159v277h290v-277h-290z" />
    <glyph glyph-name="y.ss03" horiz-adv-x="1140" 
d="M245 -139q58 0 92 17q33 18 60 79l19 43l-391 1004h323l225 -623l234 623h311l-448 -1125q-60 -147 -150 -217t-272 -70l-92 2v269q31 -2 89 -2z" />
    <glyph glyph-name="yacute.ss03" horiz-adv-x="1140" 
d="M573 1436h369l-246 -291h-274zM245 -139q58 0 92 17q33 18 60 79l19 43l-391 1004h323l225 -623l234 623h311l-448 -1125q-60 -147 -150 -217t-272 -70l-92 2v269q31 -2 89 -2z" />
    <glyph glyph-name="ydieresis.ss03" horiz-adv-x="1140" 
d="M245 -139q58 0 92 17q33 18 60 79l19 43l-391 1004h323l225 -623l234 623h311l-448 -1125q-60 -147 -150 -217t-272 -70l-92 2v269q31 -2 89 -2zM651 1225v211h236v-211h-236zM270 1225v211h236v-211h-236z" />
    <glyph glyph-name="edieresis.ss03" horiz-adv-x="1138" 
d="M651 1225v211h236v-211h-236zM270 1225v211h236v-211h-236zM579 772q-75 0 -124 -42t-64 -107h361q-4 63 -51 106t-122 43zM602 244q154 0 246 116l192 -180q-162 -203 -430 -203q-229 1 -379 143q-149 142 -149 374t138 383t361 151t351 -154t127 -360q0 -35 -2 -86
h-680q11 -82 71 -133t154 -51z" />
    <glyph glyph-name="odieresis.ss03" horiz-adv-x="1247" 
d="M698 1225v211h236v-211h-236zM317 1225v211h236v-211h-236zM389 502q0 -111 66 -183q66 -71 168 -71t168 72t65 182q0 110 -66 182t-167 72q-102 0 -168 -72t-66 -182zM92 502q0 225 153 376q153 150 378 150t377 -150t153 -376q0 -225 -152 -375q-153 -150 -379 -150
t-378 150t-152 375z" />
    <glyph glyph-name="udieresis.ss03" horiz-adv-x="1167" 
d="M655 1225v211h236v-211h-236zM274 1225v211h236v-211h-236zM745 1004h293v-1004h-286v70q-90 -92 -258 -92t-268 115q-99 116 -99 327v584h293v-572q0 -84 39 -135t114 -51q172 0 172 243v515z" />
    <glyph glyph-name="period.ss03" horiz-adv-x="575" 
d="M133 0v319h309v-319h-309z" />
    <glyph glyph-name="colon.ss03" horiz-adv-x="575" 
d="M133 684v320h309v-320h-309zM133 0v319h309v-319h-309z" />
    <glyph glyph-name="comma.ss03" horiz-adv-x="575" 
d="M127 0v299h309v-227q0 -340 -309 -367v141q68 8 109 48t40 106h-149z" />
    <glyph glyph-name="semicolon.ss03" horiz-adv-x="581" 
d="M139 684v320h310v-320h-310zM127 0v299h309v-227q0 -340 -309 -367v141q68 8 109 48t40 106h-149z" />
    <glyph glyph-name="ellipsis.ss03" horiz-adv-x="1632" 
d="M1190 0v319h309v-319h-309zM662 0v319h309v-319h-309zM133 0v319h309v-319h-309z" />
    <glyph glyph-name="question.ss03" horiz-adv-x="1128" 
d="M367 0v268h297v-268h-297zM664 432h-299v37q1 119 35 191t126 139l64 47q141 102 141 196q0 66 -47 101t-129 35t-137 -50t-68 -135h-299q5 199 151 332t359 133t344 -110t131 -291q0 -113 -55 -198t-162 -173l-47 -39q-68 -51 -88 -90t-20 -111v-14z" />
    <glyph glyph-name="questiondown.ss03" horiz-adv-x="1128" 
d="M717 1036v-268h-297v268h297zM719 604v-37q0 -119 -35 -191t-127 -138l-63 -48q-141 -102 -142 -196q0 -66 47 -100t129 -35q82 0 138 49q55 49 67 135h299q-6 -199 -151 -332t-359 -133t-344 111q-131 111 -131 291q0 114 55 198t162 172l47 39q68 51 88 90t21 111v14
h299z" />
    <glyph glyph-name="exclam.ss03" horiz-adv-x="686" 
d="M195 0v268h297v-268h-297zM195 432v1004h297v-1004h-297z" />
    <glyph glyph-name="exclamdown.ss03" horiz-adv-x="686" 
d="M492 1004v-269h-297v269h297zM492 571v-1003h-297v1003h297z" />
    <glyph glyph-name="quotedblright.ss03" horiz-adv-x="989" 
d="M129 1167v269h297v-197q0 -166 -72 -256t-225 -111v142q137 33 137 153h-137zM563 1167v269h297v-197q0 -166 -72 -256t-225 -111v142q137 33 137 153h-137z" />
    <glyph glyph-name="quotedblleft.ss03" horiz-adv-x="985" 
d="M860 1141v-269h-297v197q0 166 72 256t225 111v-142q-137 -33 -137 -153h137zM426 1141v-269h-297v197q0 166 72 256t225 111v-142q-137 -33 -137 -153h137z" />
    <glyph glyph-name="quoteleft.ss03" horiz-adv-x="575" 
d="M571 1141v-299h-309v227q0 340 309 367v-142q-69 -8 -109 -48t-40 -105h149z" />
    <glyph glyph-name="quoteright.ss03" horiz-adv-x="575" 
d="M127 1167v299h309v-227q0 -340 -309 -367v142q68 8 109 48t40 105h-149z" />
    <glyph glyph-name="quotesinglbase.ss03" horiz-adv-x="575" 
d="M127 0v299h309v-227q0 -340 -309 -367v141q68 8 109 48t40 106h-149z" />
    <glyph glyph-name="quotedblbase.ss03" horiz-adv-x="1009" 
d="M561 0v299h309v-227q0 -340 -309 -367v141q68 8 109 48t41 106h-150zM127 0v299h309v-227q0 -340 -309 -367v141q68 8 109 48t40 106h-149z" />
    <glyph glyph-name="dieresis.ss03" horiz-adv-x="1163" 
d="M651 1225v211h236v-211h-236zM270 1225v211h236v-211h-236z" />
    <glyph glyph-name="arrowsouth" horiz-adv-x="1488" 
d="M604 1436h281v-949l313 314l186 -185l-639 -639l-641 639l201 185l299 -309v944z" />
    <glyph glyph-name="LF" horiz-adv-x="0" 
 />
    <glyph glyph-name="apple" horiz-adv-x="0" 
 />
    </font>
</defs>
</svg>
